<svg id="Capa_1" enable-background="new 0 0 492.07 492.07" height="512" viewBox="0 0 492.07 492.07" width="512" xmlns="http://www.w3.org/2000/svg"><path d="m322.645 439.735v-387.36l-134.138-20-134.138 20v387.36l125.54 20z" fill="#fff3ef"/><path d="m322.645 439.735v-387.626l-15.04-10-14.96 10v387.626l15 10z" fill="#f1f0f0"/><path d="m322.645 439.911v23.143c0 16.026-12.991 29.017-29.017 29.017h-210.242c-16.025 0-29.017-12.991-29.017-29.017v-23.143z" fill="#0473ce"/><path d="m292.645 439.911v23.143c0 16.026-12.991 29.017-29.017 29.017h30c16.025 0 29.017-12.991 29.017-29.017v-23.143z" fill="#0067c5"/><path d="m322.645 29.017c0-16.026-12.991-29.017-29.017-29.017h-210.242c-16.026 0-29.017 12.991-29.017 29.017v23.143h41.885c5.929 0 11.56 2.601 15.404 7.116l7.884 9.261c3.843 4.515 9.474 7.116 15.403 7.116h104.495c5.929 0 11.56-2.601 15.404-7.116l7.884-9.261c3.844-4.515 9.474-7.116 15.404-7.116h44.514v-23.143z" fill="#0473ce"/><path d="m293.628 0h-30c16.026 0 29.017 12.991 29.017 29.017v23.143h30v-23.143c0-16.026-12.991-29.017-29.017-29.017z" fill="#0067c5"/><path d="m202.52 45.326h-51.363c-4.142 0-7.5-3.358-7.5-7.5 0-4.142 3.358-7.5 7.5-7.5h51.363c4.142 0 7.5 3.358 7.5 7.5 0 4.142-3.358 7.5-7.5 7.5z" fill="#0593fc"/><path d="m225.858 45.326c-4.142 0-7.5-3.358-7.5-7.5 0-4.142 3.358-7.5 7.5-7.5 4.142 0 7.5 3.358 7.5 7.5 0 4.142-3.358 7.5-7.5 7.5z" fill="#0593fc"/><path d="m437.701 203.771c0 69.954-68.527 133.988-98.371 158.558-7.805 6.426-19.131 6.167-26.661-.579-29.529-26.454-98.945-95.308-98.945-157.98 0-61.849 50.139-111.988 111.988-111.988s111.989 50.139 111.989 111.989z" fill="#60b7ff"/><path d="m325.713 91.782c-5.087 0-10.093.346-15 1.003 54.756 7.331 96.988 54.223 96.988 110.986 0 68.386-65.482 131.107-96.3 156.839.429.387.854.769 1.268 1.14 7.53 6.746 18.856 7.004 26.661.579 29.844-24.57 98.371-88.604 98.371-158.558 0-61.85-50.138-111.989-111.988-111.989z" fill="#26a6fe"/><ellipse cx="325.713" cy="206.917" fill="#fff3ef" rx="80.433" ry="80.433" transform="matrix(.707 -.707 .707 .707 -50.914 290.919)"/><path d="m325.713 126.484c-5.129 0-10.138.501-15 1.418 37.25 7.03 65.433 39.722 65.433 79.015 0 39.294-28.183 71.985-65.433 79.015 4.862.917 9.871 1.418 15 1.418 44.422 0 80.433-36.011 80.433-80.433s-36.011-80.433-80.433-80.433z" fill="#f1f0f0"/><path d="m338.214 170.603c0 6.731-5.522 12.754-12.425 12.754-7.056 0-12.578-6.023-12.578-12.754s5.522-12.577 12.578-12.577c6.903.001 12.425 5.846 12.425 12.577zm1.228 42.437v27.007c0 4.251-6.2 8.503-13.817 8.503-7.972 0-13.64-4.251-13.64-8.503v-27.007c0-4.96 5.669-8.325 13.64-8.325 7.616 0 13.817 3.365 13.817 8.325z" fill="#60b7ff"/><g fill="#c5d3dd"><path d="m169.767 158.424h-61.766c-4.142 0-7.5-3.358-7.5-7.5s3.358-7.5 7.5-7.5h61.766c4.142 0 7.5 3.358 7.5 7.5s-3.358 7.5-7.5 7.5z"/><path d="m169.767 192.713h-61.766c-4.142 0-7.5-3.358-7.5-7.5s3.358-7.5 7.5-7.5h61.766c4.142 0 7.5 3.358 7.5 7.5s-3.358 7.5-7.5 7.5z"/><path d="m194.512 273.567h-86.511c-4.142 0-7.5-3.358-7.5-7.5s3.358-7.5 7.5-7.5h86.511c4.142 0 7.5 3.358 7.5 7.5s-3.358 7.5-7.5 7.5z"/><path d="m213.725 307.856h-105.724c-4.142 0-7.5-3.358-7.5-7.5s3.358-7.5 7.5-7.5h105.724c4.142 0 7.5 3.358 7.5 7.5s-3.358 7.5-7.5 7.5z"/></g><path d="m237.147 391.685h-110.43c-10.336 0-18.716-8.379-18.716-18.716 0-10.336 8.379-18.716 18.716-18.716h110.43c10.336 0 18.716 8.379 18.716 18.716-.001 10.337-8.38 18.716-18.716 18.716z" fill="#05e39c"/><path d="m237.147 354.254h-30c10.336 0 18.715 8.379 18.715 18.716 0 10.336-8.379 18.716-18.715 18.716h30c10.336 0 18.715-8.379 18.715-18.716s-8.379-18.716-18.715-18.716z" fill="#0ed290"/></svg>