<svg id="Capa_1" enable-background="new 0 0 492.07 492.07" height="512" viewBox="0 0 492.07 492.07" width="512" xmlns="http://www.w3.org/2000/svg"><path d="m380.173 439.735v-387.36l-134.138-20-134.138 20v387.36l125.54 20z" fill="#fff3ef"/><path d="m380.173 439.735v-387.626l-15.04-10-14.96 10v387.626l15 10z" fill="#f1f0f0"/><path d="m380.173 439.911v23.143c0 16.026-12.991 29.017-29.017 29.017h-210.242c-16.025 0-29.017-12.991-29.017-29.017v-23.143z" fill="#0473ce"/><path d="m350.173 439.911v23.143c0 16.026-12.991 29.017-29.017 29.017h30c16.025 0 29.017-12.991 29.017-29.017v-23.143z" fill="#0067c5"/><path d="m380.173 29.017c0-16.026-12.991-29.017-29.017-29.017h-210.242c-16.025 0-29.017 12.991-29.017 29.017v23.143h41.885c5.929 0 11.56 2.601 15.404 7.116l7.884 9.261c3.843 4.515 9.474 7.116 15.404 7.116h104.495c5.929 0 11.56-2.601 15.404-7.116l7.884-9.261c3.843-4.515 9.474-7.116 15.404-7.116h44.514v-23.143z" fill="#0473ce"/><path d="m351.156 0h-30c16.026 0 29.017 12.991 29.017 29.017v23.143h30v-23.143c0-16.026-12.991-29.017-29.017-29.017z" fill="#0067c5"/><path d="m260.048 45.326h-51.363c-4.142 0-7.5-3.358-7.5-7.5 0-4.142 3.358-7.5 7.5-7.5h51.363c4.142 0 7.5 3.358 7.5 7.5 0 4.143-3.358 7.5-7.5 7.5z" fill="#0593fc"/><path d="m283.386 45.326c-4.142 0-7.5-3.358-7.5-7.5 0-4.142 3.358-7.5 7.5-7.5 4.142 0 7.5 3.358 7.5 7.5 0 4.143-3.358 7.5-7.5 7.5z" fill="#0593fc"/><path d="m333.207 306.202v-50.592c0-1.472-1.509-2.461-2.859-1.874l-18.166 7.9c-2.163 1.355-4.928 1.281-7.014-.189l-24.386-15.668c-2.326-1.638-5.458-1.526-7.66.275l-16.99 13.891c-1.561 1.277-3.637 1.734-5.591 1.231l-29.833-10.891c-1.593-.41-3.282-.185-4.712.628l-21.466 13.769c-1.729.983-3.82 1.098-5.646.308l-27.191-11.321c-1.346-.56-2.829.429-2.829 1.887v50.644c0 7.8 6.323 14.124 14.124 14.124h146.096c7.799.001 14.123-6.322 14.123-14.122z" fill="#fd6930"/><path d="m330.348 253.736-18.166 7.9c-2.163 1.355-4.928 1.281-7.014-.189l-1.961-1.26v46.014c0 7.8-6.323 14.124-14.124 14.124h30c7.8 0 14.124-6.323 14.124-14.124v-50.591c0-1.472-1.509-2.461-2.859-1.874z" fill="#fd5426"/><path d="m333.207 205.839v-65.061c0-6.672-5.408-12.08-12.08-12.08h-150.183c-6.671 0-12.08 5.408-12.08 12.08v64.853c0 3.198 1.675 6.162 4.413 7.812l21.519 12.965c3.374 2.033 7.63 1.88 10.849-.389l17.179-12.109c2.764-1.948 6.328-2.356 9.461-1.084l24.816 10.08c3.218 1.307 6.885.838 9.67-1.236l15.505-11.546c3.301-2.458 7.777-2.626 11.253-.421l19.143 12.142c3.075 1.951 6.972 2.062 10.153.29l16.062-8.945c2.666-1.486 4.32-4.299 4.32-7.351z" fill="#fd6930"/><path d="m321.126 128.698h-30c6.672 0 12.08 5.408 12.08 12.08v65.061c0 3.052-1.653 5.865-4.32 7.35l-5.251 2.924 9.035 5.731c3.075 1.951 6.972 2.062 10.154.29l16.062-8.945c2.667-1.485 4.32-4.298 4.32-7.35v-65.061c.001-6.672-5.408-12.08-12.08-12.08z" fill="#fd5426"/><g fill="#ef4424"><path d="m293.943 175.552c.092-.139.174-.282.256-.426.043-.075.09-.148.13-.223.063-.12.116-.243.173-.366.048-.104.1-.205.142-.311.037-.092.066-.188.1-.281.05-.138.102-.274.143-.414.02-.069.034-.139.052-.208.043-.165.087-.329.119-.496.013-.069.019-.138.031-.207.027-.167.055-.335.071-.503.009-.096.009-.192.015-.288.008-.141.019-.282.019-.423s-.011-.282-.019-.423c-.006-.096-.006-.192-.015-.288-.016-.169-.044-.336-.071-.503-.012-.069-.017-.138-.031-.207-.032-.167-.076-.331-.119-.496-.018-.069-.032-.139-.052-.208-.041-.14-.093-.276-.143-.414-.034-.093-.063-.189-.1-.281-.043-.105-.094-.207-.142-.311-.056-.123-.11-.246-.173-.366-.04-.076-.087-.148-.13-.223-.082-.143-.164-.287-.256-.426-.04-.06-.086-.118-.128-.177-.103-.146-.208-.291-.322-.431-.01-.012-.017-.024-.027-.036-.05-.06-.105-.112-.157-.171-.103-.116-.205-.233-.316-.343-.102-.102-.208-.194-.314-.289-.066-.059-.126-.122-.195-.179l-.098-.081c-.001-.001-.002-.002-.004-.003l-15.697-13.024c-3.189-2.645-7.917-2.205-10.561.983-2.646 3.188-2.205 7.916.982 10.561l8.841 7.337-8.841 7.336c-3.188 2.645-3.628 7.374-.982 10.561 1.483 1.788 3.621 2.711 5.775 2.711 1.688 0 3.385-.566 4.785-1.728l15.798-13.108c.074-.061.139-.129.209-.192.088-.079.177-.156.262-.24.139-.137.269-.28.396-.426.037-.043.079-.08.116-.124.01-.012.017-.024.027-.036.115-.14.219-.285.322-.431.043-.06.089-.118.129-.178z"/><path d="m225.945 153.51c-2.645-3.188-7.371-3.627-10.561-.983l-15.694 13.023c-.003.003-.006.005-.009.008l-.094.078c-.067.055-.126.117-.19.174-.108.096-.217.191-.32.295-.111.11-.212.226-.314.342-.052.059-.108.112-.158.172-.01.012-.017.024-.027.036-.115.14-.219.285-.322.431-.042.059-.088.117-.128.177-.092.139-.174.282-.256.426-.043.075-.09.148-.13.223-.063.12-.116.243-.173.366-.048.104-.1.205-.142.311-.037.092-.066.188-.1.281-.049.138-.102.274-.143.414-.02.069-.033.139-.052.208-.043.165-.087.329-.119.496-.013.069-.019.138-.031.207-.027.167-.055.334-.071.503-.009.096-.009.192-.015.288-.008.141-.019.282-.019.423s.011.282.019.423c.006.096.006.192.015.288.016.169.044.336.071.503.011.069.017.138.031.207.032.167.076.331.119.496.018.069.031.139.052.208.041.14.093.276.143.414.033.093.063.189.1.281.043.105.094.207.142.311.056.123.11.246.173.366.04.076.087.148.13.223.082.143.164.287.256.426.04.06.086.118.128.177.103.146.208.291.322.431.01.012.017.024.027.036.036.044.077.08.114.123.128.146.258.291.399.429.083.082.169.157.255.234.072.065.139.134.214.197l15.798 13.108c1.4 1.162 3.098 1.728 4.785 1.728 2.154 0 4.293-.923 5.775-2.711 2.645-3.188 2.205-7.916-.982-10.561l-8.842-7.336 8.842-7.337c3.187-2.647 3.628-7.376.982-10.563z"/><path d="m256.097 150.782c-3.701-1.86-8.209-.369-10.07 3.332l-13.181 26.217c-1.86 3.701-.368 8.209 3.332 10.069 1.081.543 2.23.801 3.363.801 2.745 0 5.39-1.513 6.707-4.133l13.181-26.217c1.86-3.7.368-8.208-3.332-10.069z"/></g><path d="m296.557 403.118h-101.044c-8.491 0-15.375-6.884-15.375-15.375v-15.25c0-8.491 6.884-15.375 15.375-15.375h101.044c8.491 0 15.375 6.884 15.375 15.375v15.25c0 8.491-6.883 15.375-15.375 15.375z" fill="#fee45a"/><path d="m296.557 357.118h-30c8.491 0 15.375 6.883 15.375 15.375v15.25c0 8.491-6.884 15.375-15.375 15.375h30c8.491 0 15.375-6.884 15.375-15.375v-15.25c0-8.492-6.883-15.375-15.375-15.375z" fill="#fac600"/></svg>