<svg id="Capa_1" enable-background="new 0 0 512 512" height="512" viewBox="0 0 512 512" width="512" xmlns="http://www.w3.org/2000/svg"><path d="m104.914 48.41h302.168v415.704h-302.168z" fill="#8ac9fe"/><path d="m383.527 54.033h23.555v403.933h-23.555z" fill="#60b7ff"/><path d="m407.082 54.033h-302.168v-23.856c0-16.665 13.51-30.174 30.174-30.174h241.819c16.665 0 30.174 13.51 30.174 30.174v23.856z" fill="#5a5a5a"/><path d="m407.086 30.178v23.856h-23.557v-23.856c0-16.667-13.511-30.178-30.178-30.178h23.557c16.667 0 30.178 13.511 30.178 30.178z" fill="#444"/><path d="m376.908 511.997h-241.819c-16.665 0-30.174-13.509-30.174-30.174v-23.856h302.168v23.856c-.001 16.664-13.51 30.174-30.175 30.174z" fill="#5a5a5a"/><path d="m407.086 457.966v23.856c0 16.667-13.511 30.178-30.178 30.178h-23.557c16.667 0 30.178-13.511 30.178-30.178v-23.856z" fill="#444"/><path d="m270.696 491.425h-29.393c-4.142 0-7.5-3.358-7.5-7.5s3.358-7.5 7.5-7.5h29.393c4.142 0 7.5 3.358 7.5 7.5s-3.358 7.5-7.5 7.5z" fill="#303030"/><path d="m104.916 54.033h302.168v48.981h-302.168z" fill="#fac600"/><path d="m186.829 54.033h138.343v48.981h-138.343z" fill="#fb2b3a"/><path d="m299.318 86.024h-86.637c-4.142 0-7.5-3.358-7.5-7.5s3.358-7.5 7.5-7.5h86.637c4.142 0 7.5 3.358 7.5 7.5s-3.358 7.5-7.5 7.5z" fill="#cc061e"/><path d="m477.789 405.127h-214.165c-4.557 0-8.251-3.694-8.251-8.251v-71.282c0-4.557 3.694-8.251 8.251-8.251h214.165c4.557 0 8.251 3.694 8.251 8.251v71.282c.001 4.557-3.694 8.251-8.251 8.251z" fill="#68ca44"/><path d="m477.789 280.113h-214.165c-4.557 0-8.251-3.694-8.251-8.251v-71.282c0-4.557 3.694-8.251 8.251-8.251h214.165c4.557 0 8.251 3.694 8.251 8.251v71.282c.001 4.557-3.694 8.251-8.251 8.251z" fill="#ebebeb"/><path d="m486.04 325.598v71.279c0 4.559-3.692 8.251-8.251 8.251h-214.167c-4.559 0-8.251-3.692-8.251-8.251v-7.168h205.06c4.559 0 8.251-3.692 8.251-8.251v-64.111h9.107c4.559 0 8.251 3.692 8.251 8.251z" fill="#4fc123"/><path d="m486.04 200.584v71.279c0 4.559-3.692 8.251-8.251 8.251h-214.167c-4.559 0-8.251-3.692-8.251-8.251v-7.168h205.06c4.559 0 8.251-3.692 8.251-8.251v-64.111h9.107c4.559 0 8.251 3.692 8.251 8.251z" fill="#d3d1d1"/><path d="m453.597 230.313h-165.781c-4.142 0-7.5-3.358-7.5-7.5s3.358-7.5 7.5-7.5h165.781c4.142 0 7.5 3.358 7.5 7.5s-3.358 7.5-7.5 7.5z" fill="#acacac"/><path d="m453.597 257.128h-165.781c-4.142 0-7.5-3.358-7.5-7.5s3.358-7.5 7.5-7.5h165.781c4.142 0 7.5 3.358 7.5 7.5s-3.358 7.5-7.5 7.5z" fill="#acacac"/><path d="m453.597 355.327h-165.781c-4.142 0-7.5-3.358-7.5-7.5s3.358-7.5 7.5-7.5h165.781c4.142 0 7.5 3.358 7.5 7.5s-3.358 7.5-7.5 7.5z" fill="#47af1c"/><path d="m453.597 382.143h-165.781c-4.142 0-7.5-3.358-7.5-7.5s3.358-7.5 7.5-7.5h165.781c4.142 0 7.5 3.358 7.5 7.5s-3.358 7.5-7.5 7.5z" fill="#47af1c"/><circle cx="125.115" cy="248.672" fill="#0593fc" r="99.155"/><path d="m170.033 328.858v8.23c-13.484 6.867-28.745 10.737-44.918 10.737s-31.434-3.87-44.918-10.737v-8.23c0-17.652 14.32-31.962 31.972-31.962h25.892c17.652 0 31.972 14.31 31.972 31.962z" fill="#fac600"/><path d="m170.033 328.861v8.231c-4.034 2.046-8.221 3.832-12.543 5.33v-8.999c0-16.903-7.654-31.271-22.771-36.524h3.342c17.652 0 31.972 14.31 31.972 31.962z" fill="#e0ae10"/><path d="m112.525 178.416-25.218 10.43c-5.361 2.217-8.179 8.126-6.529 13.688l3.614 12.179h40.721.001 40.721l3.614-12.179c1.65-5.561-1.168-11.47-6.529-13.687l-25.217-10.43c-8.061-3.335-17.116-3.335-25.178-.001z" fill="#fac600"/><path d="m169.447 202.53-3.611 12.178h-13.551l4.303-17.46c1.249-4.216.336-8.605-2.151-11.919l8.49 3.515c5.358 2.219 8.172 8.125 6.52 13.686z" fill="#e0ae10"/><path d="m166.37 237.596h-.536v-22.884h-81.441v22.884h-.536c-4.995 0-9.045 4.049-9.045 9.045 0 4.995 4.049 9.045 9.045 9.045h.536v.29c0 16.235 13.161 29.395 29.395 29.395h22.651c16.235 0 29.395-13.161 29.395-29.395v-.29h.536c4.995 0 9.045-4.049 9.045-9.045 0-4.995-4.049-9.045-9.045-9.045z" fill="#fed2a4"/><path d="m175.417 246.641c0 4.993-4.051 9.044-9.044 9.044h-.54v.292c0 16.231-13.156 29.393-29.393 29.393h-8.445c15.294-1.031 27.381-13.768 27.381-29.327v-41.264l10.457-.066v22.884h.54c2.497 0 4.756 1.014 6.393 2.651 1.637 1.636 2.651 3.896 2.651 6.393z" fill="#ffbd86"/><path d="m125.115 214.712s-40.69 0-40.722 0c0 0 2.927 5.053 4.809 7.45 2.358 3.005 5.075 5.743 8.144 8.023 9.924 7.373 22.675 10.692 34.923 8.871 6.777-1.007 13.283-3.584 18.896-7.516 1.811-1.269 3.526-2.677 5.136-4.193 3.875-3.648 8.069-9.082 9.535-12.636h-40.721z" fill="#5a5a5a"/><path d="m165.836 214.708c-1.46 3.554-5.657 8.989-9.537 12.639-1.604 1.517-3.323 2.929-5.138 4.197-5.609 3.928-12.111 6.502-18.891 7.51-8.845 1.316-17.95-.048-26.065-3.688 4.764.807 9.652.884 14.464.173 6.78-1.008 13.282-3.592 18.901-7.52 1.805-1.268 3.525-2.68 5.138-4.197 2.737-2.574 5.638-6.051 7.616-9.114z" fill="#444"/><path d="m125.115 308.566c-6.405 0-11.598-5.193-11.598-11.598v-11.598h23.196v11.598c0 6.405-5.193 11.598-11.598 11.598z" fill="#fed2a4"/><path d="m113.513 285.374h23.204v9.277h-23.204z" fill="#ffbd86"/></svg>