<?xml version="1.0" encoding="utf-8"?>
<!-- Generator: Adobe Illustrator 21.0.0, SVG Export Plug-In . SVG Version: 6.00 Build 0)  -->
<svg version="1.1" id="Capa_1" xmlns="http://www.w3.org/2000/svg" xmlns:xlink="http://www.w3.org/1999/xlink" x="0px" y="0px"
	 viewBox="0 0 350 375.4" style="enable-background:new 0 0 350 375.4;" xml:space="preserve">
<style type="text/css">
	.st0{fill:#BED0FC;}
	.st1{fill:#FFFFFF;}
	.st2{fill:#3461F3;}
	.st3{fill:#F3F7FF;}
	.st4{fill:#E3ECFF;}
	.st5{fill:#FAFAFA;}
	.st6{fill:none;}
	.st7{fill:#7324C8;}
	.st8{fill:#B4A7D0;}
	.st9{fill:#DCD7EB;}
	.st10{fill:#F0EEF6;}
	.st11{fill:#527FEF;}
	.st12{fill:#7EA8FC;}
	.st13{fill:#E2E9F7;}
	.st14{fill:#FF4F5B;}
	.st15{opacity:0.43;fill:#DDD6FF;enable-background:new    ;}
	.st16{fill:#320968;}
	.st17{fill:#DD4586;}
	.st18{fill:#38326D;}
	.st19{fill:#F6A388;}
	.st20{fill:#55499B;}
	.st21{fill:#452E17;}
	.st22{fill:#766CD3;}
	.st23{fill:#FFC4C0;}
	.st24{fill:#262376;}
	.st25{fill:#191960;}
	.st26{clip-path:url(#SVGID_2_);}
	.st27{fill:#8883E5;}
	.st28{opacity:0.25;}
	.st29{fill:#7D67CE;}
	.st30{fill:#131354;}
	.st31{fill:#6479AD;}
	.st32{fill:#664624;}
	.st33{fill:#E0856C;}
	.st34{fill:#934747;}
	.st35{clip-path:url(#SVGID_4_);}
	.st36{fill:#EA5C5C;}
	.st37{fill:#D1816B;}
</style>
<g>
	<g>
		<g>
			<g>
				<path class="st0" d="M330.4,87.7l-19.3-0.1c-2.6,0-4.7,2.2-4.7,4.9V96c0,2.7-2.1,4.9-4.7,4.9l-37.7-0.2c-2.6,0-4.7-2.2-4.7-4.9
					v-3.5c0-2.7-2.1-4.9-4.7-4.9h-6.8l-17-0.1c-8.4,0-15.3,6.8-15.3,15.1l-1.1,244c0,8.4,6.8,15.3,15.1,15.3l99.5,0.4
					c8.4,0,15.3-6.8,15.3-15.1l1.1-244C345.6,94.6,338.8,87.8,330.4,87.7z"/>
			</g>
		</g>
		<g>
			<g>
				<g>
					<g>
						<g>
							<path class="st1" d="M317,329.6l-74.1-0.4c-0.8,0-1.4-0.9-1.4-1.8l0.1-19.3c0-1.1,0.6-1.8,1.4-1.8l74.1,0.4
								c0.8,0,1.4,0.9,1.4,1.8l-0.1,19.3C318.4,328.8,317.7,329.6,317,329.6z"/>
						</g>
					</g>
					<g>
						<path class="st2" d="M263.4,319.6l0.3-0.4c0.4,0.4,1.1,0.7,1.8,0.7c1.1,0,1.5-0.4,1.5-1.1c0-1.6-3.4-0.6-3.4-2.8
							c0-0.9,0.6-1.6,2-1.6c0.6,0,1.3,0.2,1.8,0.5l-0.2,0.5c-0.4-0.4-1.1-0.5-1.5-0.5c-1.1,0-1.5,0.4-1.5,1.1c0,1.6,3.4,0.6,3.4,2.7
							c0,0.9-0.6,1.6-2.1,1.6C264.7,320.3,263.9,320,263.4,319.6z"/>
						<path class="st2" d="M268.9,314.5h0.6v5.8h-0.6V314.5z"/>
						<path class="st2" d="M275.9,314.5v5.8h-0.4l-3.5-4.7v4.7h-0.6v-5.8h0.5l3.5,4.7v-4.7H275.9z"/>
						<path class="st2" d="M281.6,317.5h0.5v2.2c-0.5,0.5-1.2,0.7-2,0.7c-1.7,0-2.9-1.2-2.9-3c0-1.7,1.2-3,3-2.9
							c0.9,0,1.6,0.3,2,0.9l-0.4,0.4c-0.4-0.5-1.1-0.7-1.7-0.7c-1.4,0-2.4,1-2.4,2.4s1,2.4,2.4,2.4c0.5,0,1.1-0.1,1.5-0.4
							L281.6,317.5z"/>
						<path class="st2" d="M285.8,317.9v-3.3h0.6v3.3c0,1.4,0.6,2,1.7,2c1.1,0,1.7-0.6,1.7-2v-3.3h0.5v3.3c0,1.7-0.9,2.5-2.3,2.5
							C286.7,320.4,285.8,319.6,285.8,317.9z"/>
						<path class="st2" d="M296.6,316.6c0,1.2-0.9,2-2.3,1.9h-1.5v1.8h-0.6v-5.8h2.1C295.7,314.6,296.6,315.4,296.6,316.6z
							 M296,316.6c0-1-0.6-1.5-1.7-1.5h-1.5v2.9h1.5C295.3,318,296,317.5,296,316.6z"/>
					</g>
				</g>
			</g>
		</g>
	</g>
	<g>
		<g>
			
				<rect x="242.5" y="148.9" transform="matrix(4.615651e-03 -1 1 4.615651e-03 82.0631 405.8884)" class="st3" width="4.7" height="25.7"/>
		</g>
	</g>
	<g>
		<g>
			<g>
				<path class="st3" d="M333,188.3c0,0,0.2,0,0.6-0.2c0.4-0.2,0.9-0.5,1-1.3c0-1.6,0-3.9,0-6.9c0-1.5,0-3.2,0-5c0-0.4,0-0.9,0-1.4
					s0-1-0.3-1.3c-0.3-0.4-0.7-0.6-1.1-0.6c-0.5,0-1.1,0-1.6,0c-4.2,0-9,0-14.4,0c-21.4-0.1-51-0.2-83.5-0.4c-0.4,0-0.9,0.2-1.1,0.5
					c-0.3,0.4-0.3,0.8-0.3,1.3c0,1.1,0,2,0,3c0,2,0,4,0,6c0,1,0,2,0,3c0,0.4-0.1,1.1,0,1.4c0.1,0.4,0.4,0.7,0.8,0.9
					c0.2,0.1,0.4,0.1,0.6,0.1h0.7h1.5c1,0,1.9,0,2.9,0c7.7,0,15.1,0.1,22.1,0.1c14.1,0.1,26.9,0.2,37.5,0.3
					c10.6,0.1,19.3,0.2,25.3,0.2c3,0,5.3,0.1,6.9,0.1c0.8,0,1.4,0,1.8,0C332.8,188.3,333,188.3,333,188.3s-0.2,0-0.6,0
					c-0.4,0-1.1,0-1.8,0c-1.6,0-4,0-6.9,0c-6,0-14.7,0-25.3,0c-10.7,0-23.5-0.1-37.5-0.1c-7,0-14.5-0.1-22.1-0.1c-1,0-1.9,0-2.9,0
					h-1.5h-0.7c-0.3,0-0.5,0-0.8-0.2c-0.5-0.3-1-0.7-1.1-1.2c-0.1-0.3-0.1-0.5-0.1-0.8v-0.7c0-1,0-1.9,0-3c0-2,0-4,0-6c0-1,0-2,0-3
					c0-0.3,0-0.5,0-0.8c0.1-0.3,0.2-0.6,0.4-0.8c0.4-0.4,1-0.8,1.5-0.8c32.6,0.2,62.1,0.4,83.5,0.4c5.4,0,10.2,0.1,14.4,0.1
					c0.5,0,1.1,0,1.6,0c0.5,0,1.1,0.3,1.4,0.7c0.4,0.4,0.4,1.1,0.4,1.5c0,0.4,0,1,0,1.4c0,1.8,0,3.5-0.1,5c0,3-0.1,5.3-0.1,6.9
					c-0.1,0.8-0.7,1.2-1.1,1.4C333.3,188.3,333,188.3,333,188.3z"/>
			</g>
		</g>
	</g>
	<g>
		<g>
			
				<rect x="260.2" y="156.2" transform="matrix(4.619080e-03 -1 1 4.619080e-03 81.4984 441.3398)" class="st3" width="4.4" height="47"/>
		</g>
	</g>
	<g>
		<g>
			
				<rect x="242.3" y="191.9" transform="matrix(4.615634e-03 -1 1 4.615634e-03 38.755 448.4721)" class="st3" width="4.7" height="25.7"/>
		</g>
	</g>
	<g>
		<g>
			<g>
				<path class="st3" d="M332.4,231.3c0,0,0.2,0,0.6-0.1c0.4-0.1,1-0.4,1.2-1.1c0.2-0.4,0.2-0.8,0.2-1.2c0-0.5,0-1.1,0-1.6
					c0-1.1,0-2.5,0-4c0-1.5,0-3.2,0-4.9c0-0.4,0-0.9,0-1.4c0-0.4,0-0.9-0.3-1.3c-0.3-0.4-0.6-0.7-1.1-0.9c-0.4-0.2-1-0.1-1.5-0.1
					c-4.2,0-9,0-14.4,0c-21.3-0.1-50.8-0.2-83.2-0.4c-0.9,0-1.8,0.7-1.8,1.6c0,1,0,2,0,3c0,2,0,4,0,6c0,1,0,1.9,0,3
					c0,0.5-0.1,1,0.1,1.4c0.1,0.4,0.4,0.8,0.7,1.1c0.4,0.3,0.8,0.4,1.2,0.4h1.5c1,0,1.9,0,2.9,0c7.6,0,15,0.1,22.1,0.1
					c14.1,0.1,26.8,0.2,37.4,0.3c10.6,0.1,19.2,0.2,25.2,0.2c3,0,5.3,0.1,6.9,0.1c0.8,0,1.4,0,1.8,0
					C332.1,231.3,332.4,231.3,332.4,231.3s-0.2,0-0.6,0c-0.4,0-1.1,0-1.8,0c-1.6,0-3.9,0-6.9,0c-6,0-14.6,0-25.2,0
					s-23.4-0.1-37.4-0.1c-7,0-14.4-0.1-22.1-0.1c-1,0-1.9,0-2.9,0H234c-0.5,0-1.1-0.1-1.5-0.4c-0.4-0.4-0.8-0.8-1-1.3
					s-0.1-1.1-0.1-1.5c0-1,0-1.9,0-3c0-2,0-4,0-6c0-1.1,0-2,0-3.1c0.1-1.1,1.1-2.1,2.4-2.1c32.5,0.2,61.9,0.4,83.2,0.4
					c5.4,0,10.1,0.1,14.4,0.1c0.5,0,1.1-0.1,1.6,0.1c0.5,0.2,1,0.5,1.2,1c0.3,0.4,0.4,1,0.4,1.5c0,0.4,0,1,0,1.4c0,1.8,0,3.4,0,4.9
					s0,2.8,0,4c0,0.6,0,1.1,0,1.6c0,0.4,0,1-0.2,1.3c-0.4,0.7-1,1.1-1.3,1.1C332.6,231.4,332.4,231.3,332.4,231.3z"/>
			</g>
		</g>
	</g>
	<g>
		<g>
			
				<rect x="242.1" y="236.7" transform="matrix(4.596210e-03 -1 1 4.596210e-03 -6.218 492.8981)" class="st3" width="4.7" height="25.7"/>
		</g>
	</g>
	<g>
		<g>
			<g>
				<path class="st3" d="M332.2,276.2c0,0,0.2,0,0.6-0.1c0.4-0.1,1-0.4,1.2-1.1c0.2-0.4,0.2-0.8,0.2-1.2c0-0.5,0-1.1,0-1.6
					c0-1.1,0-2.5,0-4s0-3.2,0-4.9c0-0.4,0-0.9,0-1.4c0-0.4,0-0.9-0.3-1.3c-0.3-0.4-0.6-0.7-1.1-0.9c-0.4-0.2-1-0.1-1.5-0.1
					c-4.2,0-9,0-14.4,0c-21.3-0.1-50.8-0.2-83.2-0.4c-0.9,0-1.8,0.7-1.8,1.6c0,1,0,2,0,3c0,2,0,4,0,6c0,1,0,1.9,0,3
					c0,0.5-0.1,1,0.1,1.4c0.1,0.4,0.4,0.8,0.7,1.1s0.8,0.4,1.2,0.4h1.5c1,0,1.9,0,2.9,0c7.6,0,15,0.1,22.1,0.1
					c14.1,0.1,26.8,0.2,37.4,0.3c10.6,0.1,19.2,0.2,25.2,0.2c3,0,5.3,0.1,6.9,0.1c0.8,0,1.4,0,1.8,0
					C332,276.2,332.2,276.2,332.2,276.2s-0.2,0-0.6,0s-1.1,0-1.8,0c-1.6,0-3.9,0-6.9,0c-6,0-14.6,0-25.2,0s-23.4-0.1-37.4-0.1
					c-7,0-14.4-0.1-22.1-0.1c-1,0-1.9,0-2.9,0h-1.5c-0.5,0-1.1-0.1-1.5-0.4c-0.4-0.4-0.8-0.8-1-1.3c-0.2-0.5-0.1-1.1-0.1-1.5
					c0-1,0-1.9,0-3c0-2,0-4,0-6c0-1.1,0-2,0-3.1c0.1-1.1,1.1-2.1,2.4-2.1c32.5,0.2,61.9,0.4,83.2,0.4c5.4,0,10.1,0.1,14.4,0.1
					c0.5,0,1.1-0.1,1.6,0.1c0.5,0.2,1,0.5,1.2,1c0.3,0.4,0.4,1,0.4,1.5c0,0.4,0,1,0,1.4c0,1.8,0,3.4,0,4.9c0,1.5,0,2.8,0,4
					c0,0.6,0,1.1,0,1.6s0,1-0.2,1.3c-0.4,0.7-1,1.1-1.3,1.1C332.4,276.2,332.2,276.2,332.2,276.2z"/>
			</g>
		</g>
	</g>
	<g>
		<g>
			
				<rect x="260.1" y="199.2" transform="matrix(4.619041e-03 -1 1 4.619041e-03 38.3655 483.9245)" class="st3" width="4.4" height="47"/>
		</g>
	</g>
	<g>
		<g>
			<g>
				
					<ellipse transform="matrix(4.740613e-03 -1 1 4.740613e-03 -28.1789 507.7431)" class="st3" cx="241" cy="268" rx="2.2" ry="2"/>
			</g>
		</g>
		<g>
			<g>
				
					<ellipse transform="matrix(4.740613e-03 -1 1 4.740613e-03 -21.8541 514.0582)" class="st3" cx="247.3" cy="268" rx="2.2" ry="2"/>
			</g>
		</g>
		<g>
			<g>
				
					<ellipse transform="matrix(4.740613e-03 -1 1 4.740613e-03 -15.5304 520.5474)" class="st3" cx="253.7" cy="268.1" rx="2.2" ry="2"/>
			</g>
		</g>
		<g>
			<g>
				
					<ellipse transform="matrix(4.741189e-03 -1 1 4.741189e-03 -9.2057 526.8619)" class="st3" cx="260.1" cy="268.1" rx="2.2" ry="2"/>
			</g>
		</g>
		<g>
			<g>
				
					<ellipse transform="matrix(4.497515e-03 -1 1 4.497515e-03 -2.9057 533.3294)" class="st3" cx="266.4" cy="268.1" rx="2.2" ry="2"/>
			</g>
		</g>
		<g>
			<g>
				
					<ellipse transform="matrix(4.497515e-03 -1 1 4.497515e-03 3.4196 539.8187)" class="st3" cx="272.8" cy="268.2" rx="2.2" ry="2"/>
			</g>
		</g>
		<g>
			<g>
				
					<ellipse transform="matrix(4.497515e-03 -1 1 4.497515e-03 9.745 546.1338)" class="st3" cx="279.2" cy="268.2" rx="2.2" ry="2"/>
			</g>
		</g>
		<g>
			<g>
				
					<ellipse transform="matrix(4.498608e-03 -1 1 4.498608e-03 15.9828 552.535)" class="st3" cx="285.5" cy="268.2" rx="2.2" ry="2"/>
			</g>
		</g>
		<g>
			<g>
				
					<ellipse transform="matrix(4.740601e-03 -1 1 4.740601e-03 22.326 558.8725)" class="st3" cx="291.9" cy="268.2" rx="2.2" ry="2"/>
			</g>
		</g>
	</g>
	<g>
		<g>
			<path class="st3" d="M284.9,124.1c1.3-0.5,2.3-1.9,2.3-3.6c0-2.1-1.6-3.9-3.6-3.9c-2,0-3.6,1.8-3.7,3.9c0,1.7,1,3.1,2.3,3.6
				c-5.6,0.9-5.4,6.9-5.4,6.9l13.2,0.1C290.2,131.1,290.4,124.9,284.9,124.1z"/>
		</g>
	</g>
	<g>
		<g>
			
				<rect x="280" y="114.2" transform="matrix(4.615052e-03 -1 1 4.615052e-03 143.7351 419.879)" class="st3" width="5.6" height="47.1"/>
		</g>
	</g>
</g>
<g>
	<path class="st0" d="M98.1,34c2.6,1.9,4.9,4.2,6.9,6.8l8.8-1.6l5.8,13.6l-7.3,5.3c0.4,3.2,0.5,6.4,0.1,9.7l7.4,5.1l-5.5,13.7
		l-8.9-1.4c-1.9,2.6-4.2,4.9-6.8,6.9l1.6,8.8l-13.6,5.8l-5.3-7.3c-3.2,0.4-6.4,0.5-9.7,0.1l-5.1,7.4l-13.7-5.5l1.4-8.9
		c-2.6-1.9-4.9-4.2-6.9-6.8l-8.8,1.6l-5.6-13.4l7.3-5.3c-0.4-3.2-0.5-6.4-0.1-9.7l-7.4-5.1L38.2,40l8.9,1.4c1.9-2.6,4.2-4.9,6.8-6.9
		l-1.6-8.8l13.6-5.8l5.3,7.3c3.2-0.4,6.4-0.5,9.7-0.1l5.1-7.4l13.7,5.5L98.1,34L98.1,34z M82.8,48.7c-8.2-3.3-17.4,0.7-20.6,8.8
		c-3.3,8.2,0.7,17.4,8.8,20.6c8.2,3.3,17.4-0.7,20.6-8.8C95,61.2,91,52,82.8,48.7z"/>
</g>
<g>
	<g>
		<g>
			<rect x="22.1" y="249.3" class="st3" width="100.7" height="6.8"/>
		</g>
	</g>
	<g>
		<g>
			<g>
				<path class="st3" d="M119.2,275.8c0,0.3-21.5,0.4-48,0.4c-26.5,0-48-0.2-48-0.4c0-0.3,21.5-0.4,48-0.4
					C97.8,275.4,119.2,275.6,119.2,275.8z"/>
			</g>
		</g>
	</g>
	<g>
		<g>
			<g>
				<path class="st3" d="M119.2,116.1c0,0.3-21.5,0.4-48,0.4c-26.5,0-48-0.2-48-0.4s21.5-0.4,48-0.4
					C97.8,115.7,119.2,115.9,119.2,116.1z"/>
			</g>
		</g>
	</g>
	<g>
		<g>
			<g>
				<path class="st3" d="M119.2,288.1c0,0.3-21.5,0.4-48,0.4c-26.5,0-48-0.2-48-0.4s21.5-0.4,48-0.4
					C97.8,287.7,119.2,287.9,119.2,288.1z"/>
			</g>
		</g>
	</g>
	<g>
		<g>
			<g>
				<path class="st3" d="M119.2,300.3c0,0.3-21.5,0.4-48,0.4c-26.5,0-48-0.2-48-0.4s21.5-0.4,48-0.4
					C97.8,299.9,119.2,300.1,119.2,300.3z"/>
			</g>
		</g>
	</g>
	<g>
		<g>
			<g>
				<path class="st3" d="M119.2,312.6c0,0.3-21.5,0.4-48,0.4c-26.5,0-48-0.2-48-0.4c0-0.3,21.5-0.4,48-0.4
					C97.8,312.2,119.2,312.4,119.2,312.6z"/>
			</g>
		</g>
	</g>
	<g>
		<g>
			<g>
				<path class="st3" d="M119.2,324.9c0,0.3-21.5,0.4-48,0.4c-26.5,0-48-0.2-48-0.4s21.5-0.4,48-0.4
					C97.8,324.4,119.2,324.7,119.2,324.9z"/>
			</g>
		</g>
	</g>
	<g>
		<g>
			<g>
				<path class="st3" d="M120.6,338.8c0,0.3-21.5,0.4-48,0.4c-26.5,0-48-0.2-48-0.4c0-0.3,21.5-0.4,48-0.4S120.6,338.6,120.6,338.8z
					"/>
			</g>
		</g>
	</g>
	<g>
		<g>
			<g>
				<g>
					<g>
						<rect x="23.3" y="130.1" class="st4" width="100.9" height="97.6"/>
					</g>
				</g>
			</g>
		</g>
		<g>
			<g>
				<g>
					<g>
						<polygon class="st3" points="31.1,219.3 59,169.1 81.9,201.3 95.7,184.2 116.4,219.3 						"/>
					</g>
				</g>
			</g>
		</g>
		<g>
			<g>
				<g>
					<g>
						<circle class="st3" cx="84.3" cy="159.3" r="7.3"/>
					</g>
				</g>
			</g>
		</g>
		<g>
			<g>
				<g>
					<g>
						<g>
							<path class="st3" d="M116.4,219.7c0,0,0-0.2,0-0.4s0-0.7,0-1.1c0-1.1,0-2.5-0.1-4.4c0-3.9-0.1-9.5-0.1-16.6
								c-0.1-14.2-0.1-34.6-0.2-58.9l0.4,0.4c-24.7,0-53.9,0-85.3,0.1c-0.1,0.1,0.9-0.9,0.4-0.4l0,0l0,0v0.1v0.2v0.4v0.7v1.4v2.8
								c0,1.8,0,3.7,0,5.5c0,3.7,0,7.3,0,10.9c0,7.2,0,14.2,0,21.1c0,13.7,0,26.6-0.1,38.5l-0.4-0.4c25.5,0.1,46.7,0.2,61.7,0.2
								c7.5,0.1,13.4,0.1,17.4,0.1c2,0,3.5,0,4.7,0.1c0.5,0,0.9,0,1.2,0C116.2,219.6,116.4,219.6,116.4,219.7c0,0-0.1,0-0.4,0
								c-0.3,0-0.7,0-1.1,0c-1.1,0-2.5,0-4.6,0.1c-4,0-9.9,0.1-17.3,0.1c-15,0.1-36.4,0.1-61.9,0.2h-0.4v-0.4
								c0-11.9,0-24.9-0.1-38.5c0-6.9,0-13.9,0-21.1c0-3.6,0-7.2,0-10.9c0-1.8,0-3.7,0-5.5v-2.8v-1.4v-0.7v-0.4v-0.2v-0.1l0,0l0,0
								c-0.4,0.4,0.6-0.6,0.5-0.5c31.3,0,60.5,0.1,85.3,0.1h0.4v0.4c-0.1,24.5-0.2,44.9-0.2,59.2c-0.1,7-0.1,12.7-0.1,16.5
								c0,1.8,0,3.3-0.1,4.3c0,0.4,0,0.8,0,1.1C116.4,219.5,116.4,219.7,116.4,219.7z"/>
						</g>
					</g>
				</g>
			</g>
		</g>
	</g>
</g>
<g>
	<g>
		<path class="st0" d="M342.8,33.6H232.7c-2.2,0-4-1.8-4-4V6.8c0-2.2,1.8-4,4-4h110.2c2.2,0,4,1.8,4,4v22.9
			C346.7,31.9,345,33.6,342.8,33.6z"/>
	</g>
	<g>
		<g>
			<path class="st5" d="M247.5,19.1c1.3-0.5,2.3-1.9,2.3-3.6c0-2.1-1.6-3.9-3.6-3.9c-2,0-3.6,1.8-3.7,3.9c0,1.7,1,3.1,2.3,3.6
				c-3.1,0.4-4.4,2.5-4.9,4.2c1.2,1.4,3.1,2.5,5,2.7h2.2c2-0.3,3.9-1.2,5.1-2.7C251.9,21.6,250.5,19.6,247.5,19.1z"/>
		</g>
		<g>
			<g>
				<rect x="262.1" y="10.9" class="st5" width="29.1" height="2.2"/>
			</g>
			<g>
				<rect x="262.1" y="23.2" class="st5" width="50.9" height="2.2"/>
			</g>
			<g>
				<rect x="262.1" y="16.9" class="st5" width="73.7" height="2.2"/>
			</g>
		</g>
	</g>
</g>
<g>
	<g>
		<path class="st6" d="M160.2,17.2c1.5,1.1,2.8,2.5,4,3.9l5-0.9l3.3,7.7l-4.1,3c0.3,1.8,0.3,3.7,0.1,5.5l4.2,2.9l-3.2,7.8l-5-0.8
			c-1.1,1.5-2.5,2.8-3.9,4l0.9,5l-7.7,3.3l-3-4.1c-1.8,0.3-3.7,0.3-5.5,0.1l-2.9,4.2l-7.8-3.2l0.8-5c-1.5-1.1-2.8-2.5-4-3.9l-5,0.9
			l-3.3-7.7l4.1-3c-0.3-1.8-0.3-3.7-0.1-5.5l-4.2-2.9l3.2-7.8l5,0.8c1.1-1.5,2.5-2.8,3.9-4l-0.9-5l7.7-3.3l3,4.1
			c1.8-0.3,3.7-0.3,5.5-0.1l2.9-4.2l7.8,3.2L160.2,17.2L160.2,17.2z M151.4,25.6c-4.7-1.8-9.9,0.4-11.8,5c-1.8,4.7,0.4,9.9,5,11.8
			c4.7,1.8,9.9-0.4,11.8-5C158.4,32.8,156.1,27.5,151.4,25.6z"/>
	</g>
	<g>
		<g>
			<path class="st0" d="M151.4,25.6c0,0,0.8,0.2,2,1c1.1,0.8,2.8,2.4,3.5,4.9c0.4,1.2,0.5,2.7,0.2,4.2c-0.4,1.5-1,3.1-2.2,4.4
				c-0.5,0.7-1.2,1.2-2,1.8c-0.8,0.5-1.7,0.9-2.5,1.1c-1.8,0.5-3.9,0.4-5.8-0.4c-1.8-0.8-3.4-2.1-4.4-3.8c-0.5-0.8-0.9-1.7-1.1-2.5
				c-0.3-0.9-0.4-1.8-0.3-2.6c0-1.8,0.6-3.3,1.5-4.7c0.8-1.3,1.9-2.3,3.1-3c2.3-1.3,4.6-1.4,6-1.1C150.7,25.2,151.4,25.6,151.4,25.6
				c0,0.1-0.8-0.3-2.2-0.4s-3.6-0.1-5.7,1.2c-1.1,0.6-2.1,1.6-2.9,2.9c-0.8,1.2-1.3,2.8-1.3,4.5c0,0.8,0.1,1.7,0.3,2.5
				c0.2,0.9,0.5,1.7,1.1,2.5c1,1.6,2.5,2.8,4.2,3.5c1.8,0.7,3.7,0.8,5.4,0.4c0.9-0.2,1.7-0.5,2.5-1.1c0.7-0.4,1.4-1,1.9-1.6
				c1.1-1.2,1.8-2.7,2.1-4.1c0.4-1.4,0.2-2.9-0.1-4c-0.7-2.5-2.2-4-3.3-4.9C152.2,25.9,151.4,25.6,151.4,25.6z"/>
		</g>
	</g>
	<g>
		<g>
			<path class="st0" d="M160.2,17.2c0,0,0-0.1,0-0.4c0-0.3,0.1-0.5,0.2-1c0.1-0.9,0.4-2.1,0.5-3.8l0.1,0.1c-2-0.8-4.7-1.8-7.8-3.1
				l0.2-0.1c-0.9,1.3-1.8,2.7-2.9,4.2l-0.1,0.1h-0.1c-1.7-0.2-3.5-0.2-5.4,0.1h-0.1l-0.1-0.1c-1-1.3-1.9-2.7-3-4.1l0.3,0.1
				c-2.5,1.1-5,2.2-7.7,3.3l0.1-0.3c0.3,1.6,0.6,3.3,1,5v0.1l-0.1,0.1c-1.3,1.1-2.6,2.4-3.8,3.9l-0.1,0.1h-0.2
				c-1.6-0.3-3.3-0.5-5-0.8l0.3-0.2c-1,2.5-2,5.1-3.2,7.8l-0.1-0.3c1.3,0.9,2.7,1.9,4.2,2.9l0.1,0.1v0.2c-0.2,1.7-0.2,3.6,0.1,5.4
				v0.2l-0.1,0.1c-1.3,1-2.7,1.9-4.1,3l0.1-0.3c1.1,2.5,2.2,5.1,3.3,7.7l-0.3-0.2c1.6-0.3,3.3-0.6,5-0.9h0.2l0.1,0.1
				c1.1,1.4,2.4,2.7,3.9,3.8l0,0l0,0c0.1,0.1-0.1-0.3,0.1,0.3l0,0l0,0l0,0l0,0v0.1v0.2l-0.1,0.4l-0.1,0.6l-0.2,1.2
				c-0.2,0.9-0.3,1.7-0.4,2.5l-0.2-0.3c2.6,1.1,5.3,2.1,7.8,3.2l-0.4,0.1c1-1.4,1.9-2.8,2.9-4.2l0.1-0.1h0.2
				c1.8,0.3,3.7,0.2,5.4-0.1h0.2l0.1,0.1c1.1,1.4,2,2.8,3,4.1l-0.3-0.1c2.6-1.1,5.3-2.2,7.7-3.3l-0.2,0.3c-0.4-1.7-0.6-3.3-0.9-5V50
				l0.1-0.1c1.5-1.1,2.7-2.5,3.8-3.9l0.1-0.1h0.2c1.8,0.3,3.4,0.5,5,0.8l-0.3,0.2c1.1-2.7,2.2-5.4,3.2-7.8l0.1,0.3
				c-1.5-1.1-2.9-2-4.2-2.9l-0.1-0.1v-0.1c0.3-1.9,0.2-3.8-0.1-5.4v-0.1l0.1-0.1c1.5-1.1,2.9-2,4.1-3l-0.1,0.2
				c-1.2-3-2.4-5.6-3.3-7.8l0.1,0.1c-2,0.4-3.7,0.6-5,0.9h-0.1l0,0c-1.1-1.5-2.1-2.4-2.8-3c-0.4-0.3-0.6-0.5-0.8-0.7
				C160.3,17.3,160.2,17.2,160.2,17.2s0.1,0.1,0.3,0.2c0.2,0.2,0.4,0.4,0.8,0.6c0.7,0.6,1.8,1.5,2.9,3h-0.1c1.4-0.3,3-0.5,5-1h0.1
				v0.1c1,2.2,2,4.7,3.3,7.7l0.1,0.1l-0.1,0.1c-1.3,1-2.6,1.9-4.1,3l0.1-0.2c0.3,1.8,0.4,3.6,0.1,5.5l-0.1-0.2
				c1.3,0.9,2.7,1.8,4.2,2.9l0.1,0.1l-0.1,0.2c-1,2.5-2,5.1-3.2,7.8l-0.1,0.2h-0.2c-1.7-0.3-3.3-0.5-5-0.8l0.2-0.1
				c-1.1,1.5-2.4,2.8-3.9,4l0.1-0.3c0.3,1.7,0.6,3.3,1,5v0.2l-0.2,0.1c-2.5,1.1-5.1,2.2-7.7,3.3l-0.2,0.1l-0.1-0.2
				c-1-1.3-2-2.7-3-4.1l0.3,0.1c-1.8,0.3-3.7,0.3-5.5,0.1l0.3-0.1c-1,1.4-1.9,2.8-2.9,4.2l-0.1,0.2l-0.2-0.1
				c-2.5-1.1-5.2-2.1-7.8-3.2l-0.2-0.1v-0.2c0.2-0.8,0.3-1.7,0.4-2.5l0.2-1.2l0.1-0.6l0.1-0.4v-0.2v-0.1l0,0l0,0l0,0l0,0
				c0.2,0.5,0.1,0.2,0.1,0.3l0,0l0,0c-1.5-1.1-2.9-2.5-4-3.9l0.3,0.1c-1.8,0.4-3.4,0.6-5,0.9h-0.2l-0.1-0.2
				c-1.1-2.6-2.3-5.3-3.3-7.7l-0.1-0.2l0.2-0.1c1.4-1.1,2.8-2,4.1-3L127,37c-0.3-1.9-0.3-3.9-0.1-5.5l0.1,0.3c-1.5-1-2.9-2-4.2-2.9
				l-0.2-0.1l0.1-0.2c1.1-2.7,2.2-5.4,3.2-7.8l0.1-0.2h0.2c1.8,0.3,3.5,0.5,5,0.8l-0.2,0.1c1.1-1.6,2.5-2.9,3.9-4l-0.1,0.2
				c-0.4-1.8-0.6-3.4-0.9-5v-0.2l0.2-0.1c2.7-1.1,5.4-2.3,7.8-3.3l0-0.1L142,9c1.1,1.5,2,2.8,3,4.1l-0.2-0.1c1.9-0.3,3.9-0.3,5.5,0
				l-0.2,0.1c1.1-1.5,2-2.9,2.9-4.2l0.1-0.1h0.1c3.2,1.3,5.8,2.4,7.8,3.2h0.1v0.1c-0.3,1.6-0.5,2.9-0.6,3.7c-0.1,0.4-0.2,0.7-0.2,1
				C160.2,17.1,160.2,17.2,160.2,17.2z"/>
		</g>
	</g>
</g>
<g>
	<g>
		<path class="st5" d="M276.4,213.9c1.9,1.4,3.5,3.1,5,4.8l6.3-1.1l4.2,9.8l-5.3,3.8c0.4,2.3,0.4,4.7,0.1,6.9l5.3,3.7l-4,9.9
			l-6.4-1.1c-1.4,1.9-3.1,3.5-4.8,5l1.1,6.3l-9.8,4.2l-3.8-5.3c-2.3,0.4-4.7,0.4-6.9,0.1l-3.7,5.3l-9.9-4l1.1-6.4
			c-1.9-1.4-3.5-3.1-5-4.8l-6.3,1.1l-4.2-9.8l5.3-3.8c-0.4-2.3-0.4-4.7-0.1-6.9l-5.3-3.7l4-9.9l6.4,1.1c1.4-1.9,3.1-3.6,4.8-5
			l-1.1-6.3l9.8-4.2l3.8,5.3c2.3-0.4,4.7-0.4,6.9-0.1l3.7-5.3l9.9,4L276.4,213.9L276.4,213.9z M265.4,224.5
			c-5.9-2.4-12.6,0.5-14.9,6.3c-2.4,5.9,0.5,12.6,6.3,14.9c5.9,2.4,12.6-0.5,14.9-6.3C274.2,233.6,271.3,226.9,265.4,224.5z"/>
	</g>
	<g>
		<g>
			<path class="st6" d="M276.4,213.9c1.9,1.4,3.5,3.1,5,4.8l6.3-1.1l4.2,9.8l-5.3,3.8c0.4,2.3,0.4,4.7,0.1,6.9l5.3,3.7l-4,9.9
				l-6.4-1.1c-1.4,1.9-3.1,3.5-4.8,5l1.1,6.3l-9.8,4.2l-3.8-5.3c-2.3,0.4-4.7,0.4-6.9,0.1l-3.7,5.3l-9.9-4l1.1-6.4
				c-1.9-1.4-3.5-3.1-5-4.8l-6.3,1.1l-4.2-9.8l5.3-3.8c-0.4-2.3-0.4-4.7-0.1-6.9l-5.3-3.7l4-9.9l6.4,1.1c1.4-1.9,3.1-3.6,4.8-5
				l-1.1-6.3l9.8-4.2l3.8,5.3c2.3-0.4,4.7-0.4,6.9-0.1l3.7-5.3l9.9,4L276.4,213.9L276.4,213.9z M265.4,224.5
				c-5.9-2.4-12.6,0.5-14.9,6.3c-2.4,5.9,0.5,12.6,6.3,14.9c5.9,2.4,12.6-0.5,14.9-6.3C274.2,233.6,271.3,226.9,265.4,224.5z"/>
		</g>
		<g>
			<g>
				<path class="st7" d="M265.4,224.5c0,0,1,0.3,2.5,1.3c1.5,1.1,3.5,3.1,4.4,6.2c0.4,1.6,0.6,3.4,0.3,5.4c-0.4,1.9-1.2,3.9-2.7,5.5
					c-0.7,0.8-1.6,1.6-2.5,2.2c-1,0.6-2.1,1.1-3.3,1.4c-2.3,0.6-4.9,0.4-7.3-0.4c-2.4-1-4.3-2.6-5.5-4.7c-0.6-1.1-1.1-2.1-1.4-3.3
					c-0.3-1.1-0.4-2.3-0.4-3.3c0.1-2.2,0.8-4.2,1.8-5.9c1.1-1.7,2.5-2.9,3.9-3.7c2.9-1.7,5.7-1.8,7.6-1.5
					C264.5,224,265.4,224.5,265.4,224.5c0,0.1-1-0.4-2.7-0.6c-1.8-0.3-4.6-0.1-7.3,1.6c-1.3,0.8-2.7,2-3.7,3.6
					c-1,1.6-1.7,3.5-1.8,5.6c-0.1,1.1,0.1,2.1,0.4,3.2s0.7,2.1,1.3,3.1c1.2,1.9,3.1,3.6,5.4,4.5c2.3,0.9,4.7,1.1,6.9,0.4
					c1.1-0.3,2.2-0.7,3.1-1.3c1-0.6,1.8-1.2,2.5-2c1.4-1.6,2.3-3.4,2.6-5.3c0.4-1.8,0.3-3.6-0.2-5.2c-0.9-3.2-2.7-5.1-4.2-6.1
					C266.3,225,265.4,224.6,265.4,224.5z"/>
			</g>
		</g>
		<g>
			<g>
				<path class="st7" d="M276.4,213.9c0,0,0-0.2,0.1-0.4c0-0.3,0.1-0.7,0.2-1.2c0.2-1.1,0.4-2.7,0.7-4.7l0.1,0.1
					c-2.5-1-5.9-2.4-9.9-4l0.2-0.1c-1.1,1.6-2.4,3.4-3.7,5.4L264,209h-0.1c-2.2-0.3-4.5-0.3-6.9,0.1h-0.1l-0.1-0.1
					c-1.1-1.7-2.5-3.4-3.8-5.2l0.3,0.1c-3.1,1.3-6.4,2.7-9.8,4.2l0.1-0.3c0.4,1.9,0.8,4.1,1.1,6.3v0.1l-0.1,0.1
					c-1.7,1.3-3.4,3-4.8,4.9l-0.1,0.1h-0.2c-1.9-0.4-4.1-0.7-6.4-1.1l0.3-0.2c-1.2,3.1-2.6,6.5-4,9.9l-0.1-0.3
					c1.7,1.1,3.5,2.4,5.3,3.7l0.1,0.1v0.2c-0.3,2.1-0.3,4.6,0.1,6.9v0.2l-0.1,0.1c-1.7,1.2-3.4,2.5-5.3,3.8l0.1-0.3
					c1.3,3.1,2.7,6.4,4.2,9.8l-0.3-0.2c2-0.4,4.1-0.8,6.3-1.1h0.2l0.1,0.1c1.3,1.8,3,3.4,4.9,4.8l0,0l0.1,0.1v0.2
					c-0.4,2.1-0.7,4.3-1.1,6.4l-0.2-0.3c3.3,1.3,6.7,2.6,9.9,4l-0.4,0.1c1.2-1.8,2.5-3.5,3.7-5.3l0.1-0.1h0.2
					c2.3,0.3,4.7,0.3,6.9-0.1h0.2l0.1,0.1c1.3,1.8,2.5,3.5,3.8,5.3l-0.3-0.1c3.3-1.4,6.7-2.8,9.8-4.2l-0.2,0.3
					c-0.4-2.2-0.8-4.3-1.1-6.3v-0.2l0.1-0.1c1.8-1.4,3.5-3.2,4.8-4.9l0.1-0.1h0.2c2.2,0.4,4.3,0.7,6.4,1.1l-0.3,0.2
					c1.4-3.5,2.7-6.8,4-9.9l0.1,0.3c-1.8-1.3-3.6-2.5-5.3-3.7l-0.1-0.1v-0.1c0.3-2.5,0.3-4.7-0.1-6.9v-0.1l0.1-0.1
					c1.9-1.4,3.6-2.6,5.3-3.8l-0.1,0.2c-1.6-3.8-3-7-4.1-9.8l0.1,0.1c-2.5,0.4-4.7,0.8-6.3,1.1h-0.1l0,0c-1.4-1.8-2.7-3.1-3.6-3.8
					c-0.4-0.4-0.8-0.6-1-0.9C276.5,214,276.4,213.9,276.4,213.9s0.1,0.1,0.4,0.3c0.3,0.2,0.6,0.4,1.1,0.8c0.9,0.7,2.2,1.9,3.7,3.8
					h-0.1c1.8-0.4,3.8-0.7,6.3-1.2h0.1v0.1c1.2,2.8,2.5,6,4.2,9.8l0.1,0.1l-0.1,0.1c-1.6,1.1-3.3,2.5-5.2,3.8l0.1-0.2
					c0.4,2.2,0.4,4.6,0.1,7l-0.1-0.2c1.7,1.1,3.4,2.4,5.4,3.7l0.1,0.1l-0.1,0.2c-1.2,3.2-2.5,6.4-4,9.9l-0.1,0.2h-0.2
					c-2.1-0.4-4.2-0.7-6.4-1.1l0.2-0.1c-1.4,1.8-3,3.5-4.9,5l0.1-0.3c0.4,2.1,0.8,4.2,1.1,6.3v0.2l-0.2,0.1
					c-3.2,1.4-6.5,2.7-9.8,4.2l-0.2,0.1l-0.1-0.2c-1.2-1.8-2.5-3.4-3.8-5.3l0.3,0.1c-2.3,0.4-4.7,0.4-7,0.1l0.3-0.1
					c-1.2,1.8-2.5,3.5-3.7,5.3l-0.1,0.2l-0.2-0.1c-3.3-1.3-6.6-2.6-9.9-4l-0.2-0.1v-0.2c0.4-2.1,0.7-4.2,1.1-6.4l0.1,0.3l0,0
					c-1.9-1.4-3.7-3.2-5-4.9l0.3,0.1c-2.2,0.4-4.3,0.8-6.3,1.1h-0.2l-0.1-0.2c-1.4-3.3-2.9-6.7-4.2-9.8l-0.1-0.2l0.2-0.1
					c1.8-1.3,3.6-2.6,5.3-3.8l-0.1,0.3c-0.4-2.4-0.4-4.8-0.1-7l0.1,0.3c-1.8-1.2-3.7-2.5-5.3-3.7l-0.2-0.1l0.1-0.2
					c1.4-3.4,2.7-6.8,4-9.9l0.1-0.2h0.2c2.2,0.4,4.4,0.7,6.4,1.1l-0.2,0.1c1.5-1.9,3.2-3.7,4.9-5l-0.1,0.2c-0.4-2.2-0.8-4.4-1.1-6.3
					v-0.2l0.2-0.1c3.4-1.5,6.8-2.9,9.8-4.2l0.2-0.1l0.1,0.1c1.3,1.8,2.6,3.6,3.8,5.3l-0.2-0.1c2.5-0.4,4.8-0.4,7-0.1l-0.2,0.1
					c1.3-1.9,2.5-3.7,3.7-5.3l0.1-0.1h0.1c4,1.7,7.4,3,9.9,4h0.1v0.1c-0.4,2-0.6,3.6-0.8,4.7c-0.1,0.5-0.2,1-0.2,1.2
					C276.4,213.7,276.4,213.9,276.4,213.9z"/>
			</g>
		</g>
	</g>
</g>
<g>
	<g>
		<g>
			<path class="st7" d="M315.4,252.8c-7.9-8-13.7,2.2-12.9,12.4c0.8,9.7,9.1,43,7.6,57h3.2C321.1,304.2,325.5,263.1,315.4,252.8z"/>
			<path class="st1" d="M312,322.2c7.6-28.3-2-67.4-2-67.6c-0.1-0.3-0.3-0.4-0.5-0.4c-0.3,0.1-0.4,0.3-0.4,0.5
				c0,0.2,9.7,39.3,2,67.3L312,322.2L312,322.2z"/>
		</g>
		<g>
			<path class="st8" d="M296,270.5c-8.3-4.4-10.4,5.2-7.1,13.2c2.7,6.6,14.5,26,19,38.6h4.2C312.4,304.9,305.7,275.7,296,270.5z"/>
			<path class="st1" d="M310.4,322.2c-2.7-23.4-18.3-48.8-18.4-48.8c-0.1-0.2-0.4-0.3-0.5-0.1c-0.2,0.1-0.3,0.4-0.1,0.5
				c0.1,0.1,15.5,25.3,18.3,48.5L310.4,322.2L310.4,322.2z"/>
		</g>
		<g>
			<path class="st9" d="M331,281.6c8.1-3.5,9.3,5.5,5.7,12.7c-2.5,4.8-11.2,17.3-17,27.8H313C315.4,306.2,322.7,285.2,331,281.6z"/>
			<path class="st10" d="M315.5,322.2c5.7-19.4,18.9-37.6,18.9-37.7c0.1-0.2,0.4-0.2,0.5-0.1c0.2,0.1,0.2,0.4,0.1,0.5
				c-0.1,0.1-13.1,18.1-18.8,37.3L315.5,322.2L315.5,322.2z"/>
		</g>
	</g>
	<g>
		<g>
			<path class="st2" d="M303,319.7c0,0-0.8,1.2,1.1,2.2c1.8,1,1.8,2.1-0.2,3.5c-1.9,1.5-7.4,3.6-5.7,12c1.6,8.4,4.6,28,4.6,28
				s1.1,4.2,4.7,4.2c3.7,0,6.3,0,6.3,0s2.6,0,6.3,0s4.7-4.2,4.7-4.2s3-19.6,4.6-28c1.6-8.4-3.8-10.5-5.7-12c-1.9-1.5-2-2.5-0.2-3.5
				c1.8-1,1.1-2.2,1.1-2.2h-10.8H303z"/>
			<path class="st11" d="M303,319.7c0,0-0.8,1.2,1.1,2.2c1.8,1,1.8,2.1-0.2,3.5c-1.9,1.5-7.4,3.6-5.7,12c1.6,8.4,4.6,28,4.6,28
				s1.1,4.2,4.7,4.2h0.1h0.1h0.1l0,0h0.1h0.1l0,0h0.1h0.1l0,0h0.1l0,0h0.1h0.1l0,0h0.1h0.1h0.1h0.1l0,0h0.1h0.1h0.1h0.1l0,0h0.1l0,0
				h0.1h0.1h0.1h0.1l0,0h0.1l0,0h0.1l0,0h0.2l0,0h0.1l0,0h0.1l0,0h0.1l0,0h0.1l0,0h0.1l0,0h0.2l0,0h0.1l0,0h0.1l0,0h0.1h0.1h0.1h0.1
				l0,0h0.1l0,0h0.1h0.1h0.1h0.1l0,0h0.1h0.1h0.1h0.1l0,0h0.1h0.1l0,0h0.1l0,0h0.1h0.1l0,0h0.1h0.1l0,0h0.1h0.1l0,0
				c3.7,0,4.7-4.2,4.7-4.2s3-19.6,4.6-28c1.6-8.4-3.8-10.5-5.7-12c-1.9-1.5-2-2.5-0.2-3.5c1.8-1,1.1-2.2,1.1-2.2h-3.6H303z"/>
		</g>
		<path class="st2" d="M303.4,320.7h20.6c1,0,1.8-0.8,1.8-1.8l0,0c0-1-0.8-1.8-1.8-1.8h-20.6c-1,0-1.8,0.8-1.8,1.8l0,0
			C301.7,319.9,302.5,320.7,303.4,320.7z"/>
		<path class="st12" d="M303.3,319.5H319c0.4,0,0.8-0.4,0.8-0.8l0,0c0-0.4-0.4-0.8-0.8-0.8h-15.6c-0.4,0-0.8,0.4-0.8,0.8l0,0
			C302.5,319.1,302.9,319.5,303.3,319.5z"/>
	</g>
</g>
<g>
	<g>
		<g>
			<g>
				<g>
					<path class="st7" d="M228.5,370.4l-110.8-0.1c-13.4,0-24.2-10.8-24.2-24.2l0.1-277.7c0-13.4,10.8-24.2,24.2-24.2l110.8,0.1
						c13.4,0,24.2,10.8,24.1,24.2v277.7C252.6,359.6,241.8,370.4,228.5,370.4z"/>
				</g>
			</g>
			<g>
				<g>
					<path class="st1" d="M228.4,54.3H207c-2.9,0-5.2,2.5-5.2,5.4v3.9c0,3-2.4,5.4-5.2,5.4h-41.9c-2.9,0-5.2-2.5-5.2-5.4v-3.9
						c0-3-2.4-5.4-5.2-5.4h-7.6H118c-9.3,0-16.9,7.6-16.9,16.9l-0.1,271c0,9.3,7.6,16.9,16.9,16.9l110.5,0.1
						c9.3,0,16.9-7.6,16.9-16.9l0.1-271C245.4,61.8,237.8,54.3,228.4,54.3z"/>
				</g>
			</g>
		</g>
	</g>
	<g>
		<g>
			<g>
				<path class="st2" d="M140.2,120.3c0,0,0.3,0.2,0.7,0.5c0.4,0.4,1.1,0.9,1.9,1.5l0.1,0.1l-0.1,0.1c-1,1.1-2.3,2.7-3.9,4.6v-0.2
					c2.5,2.5,5.5,5.5,9,9h-0.4c1.2-1.3,2.5-2.7,3.9-4.2l0.1-0.2l0.2,0.1c1.2,0.6,2.5,1.3,3.5,2.3c1.1,1,2.1,2.1,2.5,3.6
					c0.1,0.4,0.2,0.8,0.1,1.1v0.6l-0.2,0.5c-0.1,0.4-0.3,0.7-0.5,1.1c-0.2,0.4-0.4,0.7-0.7,1c-1,1.2-2.5,2.1-4,2.5s-3.3,0.1-4.7-0.5
					c-0.7-0.4-1.4-0.7-2-1.2c-0.6-0.5-1.1-1.1-1.7-1.6c-2.1-2.1-4.1-4-6.1-6c-1.9-1.9-3.8-3.7-5.4-5.4c-0.4-0.4-0.9-0.9-1.2-1.2
					c-0.4-0.4-0.8-0.8-1.1-1.3c-0.7-1-1-2.1-0.7-3.2c0.4-2.1,1.8-3.6,3.3-4.4c1.5-0.8,3-0.8,4.1-0.6c1.1,0.2,1.9,0.6,2.5,1
					c0.3,0.2,0.4,0.4,0.5,0.4C140.1,120.3,140.2,120.3,140.2,120.3c0,0.1-1-1-3.3-1.3c-1.1-0.2-2.5-0.1-4,0.7
					c-1.4,0.7-2.7,2.2-3.1,4.1c-0.2,1,0.1,2,0.7,2.9c0.3,0.4,0.7,0.8,1.1,1.2c0.4,0.4,0.9,0.8,1.2,1.2c1.8,1.7,3.6,3.5,5.5,5.4
					c1.9,1.9,4,3.9,6.1,6c0.5,0.5,1.1,1.1,1.6,1.5s1.2,0.9,1.8,1.1c1.3,0.6,2.9,0.8,4.4,0.4c1.5-0.3,2.8-1.1,3.7-2.3
					c0.3-0.3,0.4-0.6,0.6-0.9c0.2-0.4,0.4-0.6,0.4-1l0.2-0.5v-0.5c0.1-0.4-0.1-0.7-0.1-1.1c-0.4-1.3-1.3-2.5-2.4-3.3
					s-2.2-1.7-3.4-2.3l0.3-0.1c-1.3,1.5-2.6,2.8-3.9,4.2l-0.2,0.2l-0.2-0.2c-3.4-3.5-6.5-6.6-9-9l-0.1-0.1l0.1-0.1
					c1.6-1.8,3-3.3,4-4.5v0.2c-0.8-0.6-1.4-1.1-1.8-1.6C140.4,120.5,140.1,120.3,140.2,120.3z"/>
			</g>
		</g>
		<g>
			<g>
				<path class="st2" d="M160.3,152.8c0,0,0.6,0,1.6-0.4c1-0.4,2.5-1.2,3.3-3.2c0.2-0.4,0.3-1,0.4-1.6c0-0.5,0-1.1,0-1.8
					c0-1.2,0-2.6-0.1-4.1c0-2.9-0.1-6.2-0.1-9.9s-0.1-7.7-0.1-12c0-1.1,0-2.2,0-3.3s0.1-2.3-0.4-3.3c-0.4-1.1-1.1-1.9-2.1-2.5
					c-1-0.6-2.1-0.9-3.3-0.8c-9.8,0.1-20.5,0.2-31.7,0.3c-1.3,0-2.6,0.5-3.6,1.5c-1,1-1.5,2.2-1.5,3.5c0,2.7,0,5.4,0.1,8.1
					c0,5.3,0.1,10.5,0.1,15.3c0,2.5,0,4.8,0.1,7.1c0,1.1-0.1,2.3,0.3,3.3c0.3,1.1,1,1.9,1.8,2.5c0.8,0.6,1.8,1.1,2.8,1.1
					c1.1,0,2.1,0,3.1,0c2,0,4,0,5.8,0c7.4,0,13.4-0.1,17.5-0.1c2,0,3.6,0,4.7,0c0.5,0,1,0,1.2,0
					C160.1,152.8,160.3,152.8,160.3,152.8s-0.2,0-0.4,0s-0.7,0-1.2,0c-1.1,0-2.7,0.1-4.7,0.1c-4.1,0.1-10.1,0.1-17.5,0.3
					c-1.8,0-3.8,0-5.8,0.1c-1.1,0-2,0.1-3.1,0c-1.1-0.1-2.2-0.5-3.1-1.1c-0.9-0.7-1.6-1.7-1.9-2.8c-0.2-0.5-0.3-1.1-0.3-1.8
					c0-0.5,0-1.1,0-1.8c0-2.3-0.1-4.7-0.1-7.1c-0.1-4.9-0.1-10-0.2-15.3c0-2.6,0-5.4-0.1-8.1c0-1.4,0.6-2.9,1.7-3.9
					c1.1-1.1,2.5-1.7,4-1.7c11.2-0.1,22-0.2,31.7-0.3c1.2-0.1,2.5,0.2,3.6,0.9c1.1,0.6,1.8,1.7,2.3,2.8c0.2,0.5,0.4,1.1,0.4,1.8
					c0,0.6,0,1.1,0,1.7c0,1.1,0,2.2,0,3.3c0,4.3,0.1,8.3,0.1,12s0,7,0.1,9.9c0,1.5,0,2.8,0,4.1c0,0.6,0,1.2,0,1.8
					c-0.1,0.6-0.2,1.1-0.4,1.6c-0.8,2-2.4,2.9-3.4,3.2C160.8,152.8,160.3,152.8,160.3,152.8z"/>
			</g>
		</g>
	</g>
	<g>
		<g>
			<path class="st7" d="M217.8,152.2l-32.3,0.3c-3,0-5.4-2.4-5.4-5.4l-0.3-32.3c0-3,2.4-5.4,5.4-5.4l32.3-0.3c3,0,5.4,2.4,5.4,5.4
				l0.3,32.3C223.1,149.8,220.8,152.2,217.8,152.2z"/>
		</g>
		<g>
			<g>
				<g>
					<path class="st1" d="M216.2,130.8c-0.1,0,0-1.3-0.6-3.5c-0.6-2.2-2-5.4-5.4-7.7c-1.6-1.2-3.7-2.2-6-2.5
						c-2.4-0.4-4.9-0.3-7.5,0.7c-1.2,0.4-2.5,1.1-3.6,1.9s-2.1,1.8-3,3.1c-1.8,2.4-2.6,5.4-2.7,8.3c0.1,3.1,1.1,6.1,2.8,8.3
						c0.9,1.1,1.8,2.2,3,3s2.4,1.5,3.6,1.9c2.5,1,5.1,1,7.5,0.6c2.4-0.4,4.4-1.5,6-2.7c3.3-2.5,4.7-5.7,5.2-7.8
						C216.2,132,216.1,130.8,216.2,130.8c0,0,0,0.1,0,0.3c0,0.2,0,0.4,0,0.7c0,0.3,0,0.7-0.1,1.1c-0.1,0.4-0.1,1-0.3,1.5
						c-0.3,1.1-0.7,2.5-1.5,3.9c-0.8,1.4-2,2.9-3.6,4.2c-1.7,1.2-3.7,2.4-6.1,2.8c-2.4,0.4-5.1,0.4-7.7-0.5
						c-1.3-0.4-2.5-1.1-3.7-1.9s-2.3-1.8-3.2-3.1c-1.8-2.4-2.9-5.4-2.9-8.6s1-6.2,2.8-8.7c0.9-1.2,1.9-2.3,3.1-3.2
						c1.1-0.9,2.4-1.6,3.7-2c2.5-1,5.3-1.1,7.6-0.7c2.4,0.4,4.5,1.5,6.1,2.7c1.7,1.2,2.9,2.7,3.7,4.1c0.8,1.4,1.3,2.7,1.6,3.9
						c0.2,0.5,0.3,1.1,0.3,1.5c0.1,0.4,0.1,0.8,0.1,1.1c0,0.3,0,0.5,0,0.7C216.2,130.7,216.2,130.8,216.2,130.8z"/>
				</g>
			</g>
			<g>
				<g>
					
						<ellipse transform="matrix(1 -8.262686e-03 8.262686e-03 1 -1.0666 1.6703)" class="st1" cx="201.6" cy="129.9" rx="14.7" ry="0.3"/>
				</g>
			</g>
			<g>
				<g>
					<path class="st1" d="M202.4,145.2c0,0,0.1-0.2,0.3-0.6c0.2-0.4,0.5-1,0.8-1.7c0.4-0.7,0.9-1.6,1.2-2.6c0.4-1.1,1-2.2,1.3-3.6
						c0.9-2.7,1.6-6.1,1.1-9.8c-0.3-1.8-0.8-3.8-1.8-5.5c-1-1.8-2.4-3.5-4.1-4.7h0.3c-0.3,0.2-0.4,0.4-0.7,0.6
						c-3.3,3.1-5.6,6.9-6.4,10.6c-0.9,3.8,0,7.4,1.3,9.9c0.3,0.7,0.7,1.2,1.1,1.8c0.4,0.5,0.7,1.1,1.1,1.5c0.4,0.4,0.7,0.9,1.1,1.2
						c0.4,0.4,0.6,0.7,1,1c0.5,0.6,1.1,1.1,1.3,1.3c0.3,0.4,0.4,0.4,0.4,0.5c0,0-0.2-0.1-0.5-0.4c-0.4-0.3-0.9-0.7-1.4-1.3
						c-0.3-0.3-0.6-0.6-1-1c-0.4-0.4-0.7-0.8-1.1-1.2c-0.4-0.4-0.7-1-1.1-1.5c-0.4-0.6-0.8-1.1-1.1-1.8c-1.4-2.6-2.4-6.3-1.5-10.2
						c0.8-3.9,3.3-7.7,6.5-10.9c0.3-0.3,0.5-0.4,0.7-0.6l0.2-0.1l0.2,0.1c1.8,1.3,3.3,3.1,4.3,4.9c1,1.8,1.5,3.9,1.8,5.7
						c0.4,3.9-0.3,7.3-1.2,10c-0.4,1.4-1,2.5-1.4,3.6c-0.4,1.1-1,1.9-1.3,2.6c-0.4,0.6-0.7,1.2-0.9,1.6
						C202.6,145,202.4,145.2,202.4,145.2z"/>
				</g>
			</g>
		</g>
	</g>
	<g>
		<g>
			<g>
				<path class="st2" d="M161.2,325.5c0,0,0.6,0,1.6-0.4c1-0.4,2.5-1.2,3.3-3.2c0.2-0.4,0.3-1,0.4-1.6c0-0.5,0-1.1,0-1.8
					c0-1.2,0-2.6-0.1-4.1c0-2.9-0.1-6.2-0.1-9.9c0-3.7-0.1-7.7-0.1-12c0-1.1,0-2.2,0-3.3s0.1-2.3-0.4-3.3c-0.4-1.1-1.1-1.9-2.1-2.5
					c-1-0.6-2.1-0.9-3.3-0.8c-9.8,0.1-20.5,0.2-31.7,0.3c-1.3,0-2.6,0.5-3.6,1.5c-1,1-1.5,2.2-1.5,3.5c0,2.7,0,5.4,0.1,8.1
					c0,5.3,0.1,10.5,0.1,15.3c0,2.5,0,4.8,0.1,7.1c0,1.1-0.1,2.3,0.3,3.3c0.3,1.1,1,1.9,1.8,2.5c0.8,0.6,1.8,1.1,2.8,1.1
					c1.1,0,2.1,0,3.1,0c2,0,4,0,5.8,0c7.4,0,13.4-0.1,17.5-0.1c2,0,3.6,0,4.7,0c0.5,0,1,0,1.2,0C161,325.5,161.2,325.5,161.2,325.5
					s-0.2,0-0.4,0s-0.7,0-1.2,0c-1.1,0-2.7,0.1-4.7,0.1c-4.1,0.1-10.1,0.1-17.5,0.3c-1.8,0-3.8,0-5.8,0.1c-1.1,0-2,0.1-3.1,0
					s-2.2-0.5-3.1-1.1c-0.9-0.7-1.6-1.7-1.9-2.8c-0.2-0.5-0.3-1.1-0.3-1.8c0-0.5,0-1.1,0-1.8c0-2.3-0.1-4.7-0.1-7.1
					c-0.1-4.9-0.1-10-0.2-15.3c0-2.6,0-5.4-0.1-8.1c0-1.4,0.6-2.9,1.7-3.9c1.1-1.1,2.5-1.7,4-1.7c11.2-0.1,22-0.2,31.7-0.3
					c1.2-0.1,2.5,0.2,3.6,0.9c1.1,0.6,1.8,1.7,2.3,2.8c0.2,0.5,0.4,1.1,0.4,1.8s0,1.1,0,1.7c0,1.1,0,2.2,0,3.3c0,4.3,0.1,8.3,0.1,12
					s0,7,0.1,9.9c0,1.5,0,2.8,0,4.1c0,0.6,0,1.2,0,1.8c-0.1,0.6-0.2,1.1-0.4,1.6c-0.8,2-2.4,2.9-3.4,3.2
					C161.7,325.6,161.2,325.5,161.2,325.5z"/>
			</g>
		</g>
		<g>
			<g>
				<g>
					<path class="st2" d="M131.1,294c0,0,0.2,0,0.4,0c0.4,0,0.8,0,1.4,0c1.3,0,3.2-0.1,5.4-0.1c4.7-0.1,11.4-0.2,19.3-0.3h0.3v0.3
						c0.1,5.7,0.1,12.2,0.2,19c0.1-0.1-0.5,0.5-0.3,0.3l0,0l0,0l0,0h-0.1h-0.1h-0.3H157h-1c-0.6,0-1.2,0-1.8,0c-1.2,0-2.5,0-3.6,0
						c-2.4,0-4.7,0-6.9,0.1c-4.5,0-8.6,0.1-12.4,0.1h-0.2v-0.2c0-5.8,0-10.5,0-13.9c0-1.6,0-2.9,0-3.8c0-0.4,0-0.7,0-1
						C131.1,294.1,131.1,294,131.1,294s0,0.1,0,0.4c0,0.3,0,0.6,0,1.1c0,1,0.1,2.2,0.1,3.9c0.1,3.3,0.1,8.1,0.3,13.8l-0.2-0.2
						c3.7,0,7.9-0.1,12.4-0.2c2.3,0,4.6-0.1,6.9-0.1c1.2,0,2.4,0,3.6,0c0.6,0,1.2,0,1.8,0h1h0.4h0.3h0.1h0.1l0,0l0,0l0,0
						c0.3-0.3-0.4,0.4-0.3,0.3c-0.1-6.8-0.1-13.3-0.2-19l0.3,0.3c-7.8,0-14.4,0-19.2,0c-2.3,0-4.2,0-5.5,0c-0.6,0-1.1,0-1.5,0
						C131.2,294,131.1,294,131.1,294z"/>
				</g>
			</g>
			<g>
				<g>
					<path class="st2" d="M144.5,306.1c0,0,0.1-0.1,0.3-0.3c0.2-0.2,0.4-0.4,0.7-0.7c0.7-0.6,1.6-1.5,2.7-2.5
						c2.4-2.2,5.6-5.3,9.4-8.9l0.2,0.4c-4,0-8.5,0.1-13.4,0.2c-4.7,0-9.3,0.1-13.4,0.1l0.2-0.4c3.9,3.5,7.2,6.6,9.6,8.7
						c1.1,1.1,2,1.9,2.7,2.5c0.3,0.3,0.5,0.5,0.7,0.7C144.4,306,144.5,306.1,144.5,306.1s-0.4-0.3-1-0.8c-0.7-0.6-1.6-1.4-2.8-2.4
						c-2.5-2.2-5.8-5.1-9.8-8.7l-0.4-0.4h0.6c4,0,8.5-0.1,13.4-0.2c4.7,0,9.3-0.1,13.4-0.1h0.6l-0.4,0.4c-4,3.6-7.3,6.6-9.7,8.8
						c-1.1,1.1-2,1.8-2.7,2.5C144.9,305.8,144.5,306.1,144.5,306.1z"/>
				</g>
			</g>
			<g>
				<g>
					
						<ellipse transform="matrix(0.679 -0.7342 0.7342 0.679 -182.3877 198.7022)" class="st2" cx="136" cy="307.9" rx="7" ry="0.3"/>
				</g>
			</g>
			<g>
				<g>
					
						<ellipse transform="matrix(0.7228 -0.691 0.691 0.7228 -170.2216 191.0109)" class="st2" cx="153" cy="307.7" rx="0.3" ry="7"/>
				</g>
			</g>
		</g>
	</g>
	<g>
		<g>
			<path class="st7" d="M161,268.3h-32.3c-3,0-5.4-2.4-5.4-5.4v-32.3c0-3,2.4-5.4,5.4-5.4H161c3,0,5.4,2.4,5.4,5.4v32.2
				C166.5,265.8,164,268.3,161,268.3z"/>
		</g>
		<g>
			<g>
				<g>
					<path class="st5" d="M157.5,256c0,0,0-0.2,0-0.4c0-0.3,0-0.6,0-1.1c0-1-0.1-2.3-0.1-4c-0.1-3.4-0.2-8.2-0.3-13.9l0.2,0.2
						c-7.1,0.1-15.7,0.2-24.9,0.3c-0.1,0.1,0.5-0.5,0.3-0.3l0,0l0,0l0,0l0,0v0.1v0.2v0.4v0.6v1.3c0,0.9,0,1.7,0,2.5
						c0,1.7,0,3.3,0,4.9c0,3.3,0,6.3,0.1,9.2l-0.3-0.3c7.4,0,13.5,0,17.9,0c2.2,0,3.9,0,5.1,0c0.5,0,1.1,0,1.4,0
						C157.3,256,157.4,256,157.5,256c0,0-0.2,0-0.4,0c-0.4,0-0.8,0-1.3,0c-1.2,0-2.9,0.1-5.1,0.1c-4.5,0.1-10.7,0.2-18.1,0.3h-0.3
						v-0.3c0-2.9-0.1-6-0.1-9.2c0-1.6,0-3.3-0.1-4.9c0-0.9,0-1.7,0-2.5v-1.3v-0.6v-0.4v-0.2v-0.1l0,0l0,0l0,0l0,0
						c-0.3,0.3,0.4-0.4,0.3-0.3c9.2-0.1,17.8-0.1,24.9-0.2h0.2v0.2c0,5.8,0,10.6,0,14.1c0,1.7,0,2.9,0,3.9c0,0.4,0,0.7,0,1
						C157.5,255.9,157.5,256,157.5,256z"/>
				</g>
			</g>
			<g>
				<g>
					<path class="st5" d="M140.7,233.1c0-0.1,0.8-0.1,2.2-0.2c1.4-0.1,3.3-0.1,5.7-0.2h0.1l0.1,0.1c0.7,1.1,1.4,2.4,2.2,3.7l0.3,0.4
						h-0.4c-0.8,0-1.6,0-2.4,0c-4,0-7.6,0-10.1,0H138l0.2-0.3C139.6,234.5,140.5,233.1,140.7,233.1c0,0-0.3,0.4-0.6,1
						c-0.4,0.8-1,1.7-1.6,2.8l-0.2-0.3c2.6-0.1,6.1-0.1,10.1-0.2c0.8,0,1.6,0,2.4,0l-0.2,0.4c-0.8-1.3-1.5-2.5-2.2-3.7l0.2,0.1
						c-2.4,0-4.3,0-5.7-0.1C141.5,233.2,140.7,233.2,140.7,233.1z"/>
				</g>
			</g>
			<g>
				<g>
					<path class="st5" d="M150,248.2c-0.1,0,0.1-0.5,0.2-1.4c0.1-0.9-0.1-2.2-1-3.5s-2.6-2.5-4.7-2.4c-2,0-4.3,1.4-5.1,3.7
						c-0.8,2.3,0.1,4.7,1.8,6.1c1.6,1.3,3.7,1.5,5.2,1c1.5-0.5,2.5-1.5,3-2.2C149.9,248.6,150,248.2,150,248.2s0,0.1-0.1,0.4
						c-0.1,0.3-0.2,0.5-0.4,1c-0.4,0.8-1.4,1.8-3,2.5c-1.6,0.6-3.9,0.4-5.6-1c-0.9-0.7-1.6-1.7-1.9-2.9c-0.4-1.1-0.4-2.5,0-3.7
						c0.4-1.2,1.2-2.3,2.3-3c1-0.7,2.2-1.1,3.3-1.1c2.3,0,4.1,1.2,5,2.6c0.9,1.4,1.1,2.9,0.9,3.8c-0.1,0.4-0.2,0.8-0.3,1.1
						C150.1,248.1,150,248.2,150,248.2z"/>
				</g>
			</g>
		</g>
	</g>
	<g>
		<g>
			<path class="st2" d="M218.4,210.5l-32.3,0.3c-3,0-5.4-2.4-5.4-5.4l-0.3-32.3c0-3,2.4-5.4,5.4-5.4l32.3-0.3c3,0,5.4,2.4,5.4,5.4
				l0.3,32.3C223.8,208,221.4,210.5,218.4,210.5z"/>
		</g>
		<g>
			<g>
				<g>
					<path class="st1" d="M215.8,188.3c-0.1,0,0-1.3-0.6-3.4c-0.5-2.1-2-5.3-5.3-7.7c-1.6-1.1-3.6-2.2-6-2.5
						c-2.3-0.4-4.9-0.3-7.4,0.7c-1.2,0.4-2.5,1.1-3.5,1.9c-1.1,0.8-2.1,1.8-3,3c-1.7,2.3-2.6,5.3-2.6,8.3c0.1,3.1,1.1,6,2.8,8.3
						c0.9,1.1,1.8,2.2,3,3c1.1,0.8,2.3,1.5,3.6,1.9c2.5,1,5.1,1,7.4,0.5c2.3-0.4,4.3-1.5,5.9-2.6c3.3-2.5,4.7-5.6,5.2-7.8
						C215.8,189.6,215.7,188.3,215.8,188.3c0,0,0,0.1,0,0.3s0,0.4,0,0.7s0,0.7-0.1,1.1s-0.1,1-0.3,1.5c-0.3,1.1-0.7,2.5-1.5,3.9
						c-0.8,1.4-2,2.9-3.6,4.1c-1.6,1.2-3.7,2.4-6.1,2.8c-2.4,0.4-5.1,0.4-7.6-0.5c-1.3-0.4-2.5-1.1-3.7-1.9
						c-1.1-0.8-2.2-1.8-3.1-3.1c-1.8-2.4-2.9-5.4-2.9-8.6s1-6.2,2.8-8.6c0.9-1.2,1.9-2.3,3.1-3.1c1.1-0.9,2.4-1.6,3.7-2
						c2.5-1,5.3-1.1,7.6-0.7c2.4,0.4,4.5,1.5,6.1,2.7c1.7,1.2,2.8,2.7,3.7,4.1c0.8,1.4,1.3,2.7,1.6,3.9c0.2,0.5,0.2,1.1,0.3,1.5
						c0.1,0.4,0.1,0.8,0.1,1.1c0,0.3,0,0.5,0,0.7C215.8,188.3,215.8,188.3,215.8,188.3z"/>
				</g>
			</g>
			<g>
				<g>
					<path class="st1" d="M198,181.6c0,0,0.3,0.1,0.8,0.4c0.6,0.4,1.4,0.8,2.4,1.2c2,1.1,5,2.6,8.4,4.6l0.4,0.2l-0.4,0.2
						c-1.8,1.1-3.7,2.1-5.6,3.3c-2,1.1-4,2.3-5.8,3.3l-0.4,0.2v-0.4c0-3.9,0-7.2,0.1-9.5c0-1.1,0-1.9,0-2.6
						C198,181.8,198,181.6,198,181.6s0,0.4,0.1,1.1c0,0.7,0.1,1.7,0.1,2.7c0.1,2.3,0.2,5.5,0.2,9.3l-0.4-0.2
						c1.8-1.1,3.7-2.2,5.7-3.3c2-1.1,3.9-2.3,5.6-3.3v0.4c-3.3-1.8-6.1-3.5-8.1-4.7c-1-0.5-1.8-1.1-2.4-1.4
						C198.4,181.8,198.1,181.6,198,181.6z"/>
				</g>
			</g>
		</g>
	</g>
	<g>
		<g>
			<g>
				<g>
					
						<ellipse transform="matrix(1 -8.265538e-03 8.265538e-03 1 -1.7343 1.3229)" class="st13" cx="159.2" cy="210.5" rx="1.5" ry="0.3"/>
				</g>
			</g>
			<g>
				<g>
					
						<ellipse transform="matrix(1 -8.265246e-03 8.265246e-03 1 -1.7352 1.2727)" class="st13" cx="153.1" cy="210.6" rx="1.5" ry="0.3"/>
				</g>
			</g>
			<g>
				<g>
					
						<ellipse transform="matrix(1 -8.265538e-03 8.265538e-03 1 -1.7355 1.2227)" class="st13" cx="147.1" cy="210.6" rx="1.5" ry="0.3"/>
				</g>
			</g>
			<g>
				<g>
					
						<ellipse transform="matrix(1 -8.265538e-03 8.265538e-03 1 -1.7364 1.1726)" class="st13" cx="141" cy="210.7" rx="1.5" ry="0.3"/>
				</g>
			</g>
			<g>
				<g>
					
						<ellipse transform="matrix(1 -8.265538e-03 8.265538e-03 1 -1.7366 1.1225)" class="st13" cx="134.9" cy="210.7" rx="1.5" ry="0.3"/>
				</g>
			</g>
			<g>
				<g>
					<path class="st13" d="M127.5,210.7c0-0.2,0.7-0.2,1.5-0.2s1.5,0.1,1.5,0.3c0,0.2-0.7,0.3-1.5,0.3
						C128.1,211,127.4,210.8,127.5,210.7z"/>
				</g>
			</g>
			<g>
				<g>
					<path class="st13" d="M123.2,206.9c0.2,0,0.4,0.5,0.9,1.2c0.4,0.7,0.9,1.1,0.8,1.3c-0.1,0.1-0.7-0.3-1.2-1
						C123.1,207.7,123,206.9,123.2,206.9z"/>
				</g>
			</g>
			<g>
				<g>
					
						<ellipse transform="matrix(1 -8.265537e-03 8.265537e-03 1 -1.6688 1.0227)" class="st13" cx="122.9" cy="202.4" rx="0.3" ry="1.5"/>
				</g>
			</g>
			<g>
				<g>
					
						<ellipse transform="matrix(1 -8.265537e-03 8.265537e-03 1 -1.6187 1.0218)" class="st13" cx="122.8" cy="196.3" rx="0.3" ry="1.5"/>
				</g>
			</g>
			<g>
				<g>
					
						<ellipse transform="matrix(1 -8.265265e-03 8.265265e-03 1 -1.5685 1.0215)" class="st13" cx="122.8" cy="190.3" rx="0.3" ry="1.5"/>
				</g>
			</g>
			<g>
				<g>
					
						<ellipse transform="matrix(1 -8.265265e-03 8.265265e-03 1 -1.5184 1.0206)" class="st13" cx="122.7" cy="184.2" rx="0.3" ry="1.5"/>
				</g>
			</g>
			<g>
				<g>
					
						<ellipse transform="matrix(1 -8.298595e-03 8.298595e-03 1 -1.4749 1.0238)" class="st13" cx="122.6" cy="178.2" rx="0.3" ry="1.5"/>
				</g>
			</g>
			<g>
				<g>
					<path class="st13" d="M123.2,170.8c0.1,0.1-0.1,0.7-0.2,1.5c-0.1,0.8-0.2,1.5-0.4,1.5c-0.1,0-0.4-0.7-0.2-1.6
						C122.5,171.3,123,170.7,123.2,170.8z"/>
				</g>
			</g>
			<g>
				<g>
					<path class="st13" d="M128,167.6c0,0.2-0.6,0.3-1.4,0.4c-0.8,0.3-1.3,0.5-1.4,0.4c-0.1-0.1,0.4-0.6,1.3-0.9
						C127.3,167.3,128,167.5,128,167.6z"/>
				</g>
			</g>
			<g>
				<g>
					
						<ellipse transform="matrix(1 -8.265538e-03 8.265538e-03 1 -1.3809 1.1007)" class="st13" cx="132.5" cy="167.6" rx="1.5" ry="0.3"/>
				</g>
			</g>
			<g>
				<g>
					
						<ellipse transform="matrix(1 -8.232480e-03 8.232480e-03 1 -1.3745 1.1461)" class="st13" cx="138.5" cy="167.5" rx="1.5" ry="0.3"/>
				</g>
			</g>
			<g>
				<g>
					
						<ellipse transform="matrix(1 -8.265538e-03 8.265538e-03 1 -1.3797 1.2009)" class="st13" cx="144.6" cy="167.5" rx="1.5" ry="0.3"/>
				</g>
			</g>
			<g>
				<g>
					
						<ellipse transform="matrix(1 -8.265265e-03 8.265265e-03 1 -1.3788 1.2509)" class="st13" cx="150.7" cy="167.4" rx="1.5" ry="0.3"/>
				</g>
			</g>
			<g>
				<g>
					
						<ellipse transform="matrix(1 -8.265558e-03 8.265558e-03 1 -1.3786 1.3004)" class="st13" cx="156.6" cy="167.4" rx="1.5" ry="0.3"/>
				</g>
			</g>
			<g>
				<g>
					<path class="st13" d="M163.9,168.7c-0.1,0.1-0.6-0.3-1.4-0.6c-0.7-0.4-1.3-0.5-1.3-0.7c0-0.2,0.8-0.2,1.6,0.2
						C163.6,168,164,168.6,163.9,168.7z"/>
				</g>
			</g>
			<g>
				<g>
					<path class="st13" d="M165.8,174.2c-0.2,0-0.3-0.7-0.3-1.5s-0.1-1.4,0-1.5s0.4,0.6,0.5,1.5C166,173.6,165.8,174.2,165.8,174.2z
						"/>
				</g>
			</g>
			<g>
				<g>
					
						<ellipse transform="matrix(1 -8.265265e-03 8.265265e-03 1 -1.4719 1.3762)" class="st13" cx="165.8" cy="178.8" rx="0.3" ry="1.5"/>
				</g>
			</g>
			<g>
				<g>
					
						<ellipse transform="matrix(1 -8.265537e-03 8.265537e-03 1 -1.5221 1.3772)" class="st13" cx="165.9" cy="184.8" rx="0.3" ry="1.5"/>
				</g>
			</g>
			<g>
				<g>
					
						<ellipse transform="matrix(1 -8.265537e-03 8.265537e-03 1 -1.5715 1.3774)" class="st13" cx="165.9" cy="190.8" rx="0.3" ry="1.5"/>
				</g>
			</g>
			<g>
				<g>
					
						<ellipse transform="matrix(1 -8.265537e-03 8.265537e-03 1 -1.6215 1.3783)" class="st13" cx="165.9" cy="196.9" rx="0.3" ry="1.5"/>
				</g>
			</g>
			<g>
				<g>
					
						<ellipse transform="matrix(1 -8.265537e-03 8.265537e-03 1 -1.6717 1.3785)" class="st13" cx="165.9" cy="202.9" rx="0.3" ry="1.5"/>
				</g>
			</g>
			<g>
				<g>
					<path class="st13" d="M163.5,209.6c-0.1-0.1,0.4-0.5,1-1.1c0.5-0.6,0.9-1.1,1.1-1.1c0.1,0.1,0,0.8-0.6,1.4
						C164.3,209.5,163.6,209.8,163.5,209.6z"/>
				</g>
			</g>
		</g>
	</g>
	<g>
		<g>
			<g>
				<g>
					
						<ellipse transform="matrix(1 -8.265265e-03 8.265265e-03 1 -2.6661 1.7965)" class="st13" cx="216" cy="323.5" rx="1.5" ry="0.3"/>
				</g>
			</g>
			<g>
				<g>
					
						<ellipse transform="matrix(1 -8.265265e-03 8.265265e-03 1 -2.6671 1.7471)" class="st13" cx="210" cy="323.6" rx="1.5" ry="0.3"/>
				</g>
			</g>
			<g>
				<g>
					
						<ellipse transform="matrix(1 -8.265538e-03 8.265538e-03 1 -2.6673 1.6971)" class="st13" cx="204" cy="323.6" rx="1.5" ry="0.3"/>
				</g>
			</g>
			<g>
				<g>
					
						<ellipse transform="matrix(1 -8.265560e-03 8.265560e-03 1 -2.6683 1.647)" class="st13" cx="197.9" cy="323.6" rx="1.5" ry="0.3"/>
				</g>
			</g>
			<g>
				<g>
					
						<ellipse transform="matrix(1 -8.265538e-03 8.265538e-03 1 -2.6685 1.5969)" class="st13" cx="191.9" cy="323.6" rx="1.5" ry="0.3"/>
				</g>
			</g>
			<g>
				<g>
					<path class="st13" d="M184.3,323.6c0-0.2,0.7-0.2,1.5-0.2s1.5,0.1,1.5,0.3c0,0.2-0.7,0.3-1.5,0.3
						C185,324,184.3,323.8,184.3,323.6z"/>
				</g>
			</g>
			<g>
				<g>
					<path class="st13" d="M180,319.8c0.2,0,0.4,0.5,0.9,1.2s0.9,1.1,0.8,1.3c-0.1,0.1-0.7-0.3-1.2-1
						C179.9,320.6,179.9,319.8,180,319.8z"/>
				</g>
			</g>
			<g>
				<g>
					
						<ellipse transform="matrix(1 -8.265538e-03 8.265538e-03 1 -2.6006 1.4964)" class="st13" cx="179.7" cy="315.4" rx="0.3" ry="1.5"/>
				</g>
			</g>
			<g>
				<g>
					
						<ellipse transform="matrix(1 -8.265538e-03 8.265538e-03 1 -2.5505 1.4962)" class="st13" cx="179.7" cy="309.3" rx="0.3" ry="1.5"/>
				</g>
			</g>
			<g>
				<g>
					
						<ellipse transform="matrix(1 -8.235020e-03 8.235020e-03 1 -2.4912 1.4897)" class="st13" cx="179.6" cy="303.3" rx="0.3" ry="1.5"/>
				</g>
			</g>
			<g>
				<g>
					
						<ellipse transform="matrix(1 -8.265265e-03 8.265265e-03 1 -2.4503 1.495)" class="st13" cx="179.6" cy="297.2" rx="0.3" ry="1.5"/>
				</g>
			</g>
			<g>
				<g>
					
						<ellipse transform="matrix(1 -8.265265e-03 8.265265e-03 1 -2.4009 1.4941)" class="st13" cx="179.6" cy="291.2" rx="0.3" ry="1.5"/>
				</g>
			</g>
			<g>
				<g>
					<path class="st13" d="M180.1,283.7c0.1,0.1-0.1,0.7-0.2,1.5c-0.1,0.8-0.2,1.5-0.4,1.5c-0.1,0-0.4-0.7-0.2-1.6
						C179.5,284.2,179.9,283.7,180.1,283.7z"/>
				</g>
			</g>
			<g>
				<g>
					<path class="st13" d="M184.9,280.6c0,0.2-0.6,0.3-1.4,0.4c-0.8,0.3-1.3,0.5-1.4,0.4c-0.1-0.1,0.4-0.6,1.3-0.9
						C184.1,280.3,184.9,280.5,184.9,280.6z"/>
				</g>
			</g>
			<g>
				<g>
					
						<ellipse transform="matrix(1 -8.265538e-03 8.265538e-03 1 -2.3128 1.5751)" class="st13" cx="189.4" cy="280.6" rx="1.5" ry="0.3"/>
				</g>
			</g>
			<g>
				<g>
					
						<ellipse transform="matrix(1 -8.265516e-03 8.265516e-03 1 -2.3118 1.6252)" class="st13" cx="195.5" cy="280.5" rx="1.5" ry="0.3"/>
				</g>
			</g>
			<g>
				<g>
					
						<ellipse transform="matrix(1 -8.265538e-03 8.265538e-03 1 -2.3116 1.6753)" class="st13" cx="201.5" cy="280.5" rx="1.5" ry="0.3"/>
				</g>
			</g>
			<g>
				<g>
					
						<ellipse transform="matrix(1 -8.232480e-03 8.232480e-03 1 -2.3015 1.7177)" class="st13" cx="207.5" cy="280.4" rx="1.5" ry="0.3"/>
				</g>
			</g>
			<g>
				<g>
					
						<ellipse transform="matrix(1 -8.265265e-03 8.265265e-03 1 -2.3104 1.7747)" class="st13" cx="213.6" cy="280.4" rx="1.5" ry="0.3"/>
				</g>
			</g>
			<g>
				<g>
					<path class="st13" d="M220.8,281.6c-0.1,0.1-0.6-0.3-1.4-0.6c-0.7-0.4-1.3-0.5-1.3-0.7c0-0.2,0.8-0.2,1.6,0.2
						C220.4,281,220.9,281.5,220.8,281.6z"/>
				</g>
			</g>
			<g>
				<g>
					<path class="st13" d="M222.6,287.2c-0.2,0-0.3-0.7-0.3-1.5s-0.1-1.4,0-1.5c0.1-0.1,0.4,0.6,0.5,1.5
						C222.9,286.6,222.8,287.2,222.6,287.2z"/>
				</g>
			</g>
			<g>
				<g>
					
						<ellipse transform="matrix(1 -8.265265e-03 8.265265e-03 1 -2.4038 1.8506)" class="st13" cx="222.7" cy="291.7" rx="0.3" ry="1.5"/>
				</g>
			</g>
			<g>
				<g>
					
						<ellipse transform="matrix(1 -8.265265e-03 8.265265e-03 1 -2.4539 1.8508)" class="st13" cx="222.7" cy="297.8" rx="0.3" ry="1.5"/>
				</g>
			</g>
			<g>
				<g>
					
						<ellipse transform="matrix(1 -8.265537e-03 8.265537e-03 1 -2.5033 1.8518)" class="st13" cx="222.8" cy="303.8" rx="0.3" ry="1.5"/>
				</g>
			</g>
			<g>
				<g>
					
						<ellipse transform="matrix(1 -8.265537e-03 8.265537e-03 1 -2.5534 1.8527)" class="st13" cx="222.9" cy="309.8" rx="0.3" ry="1.5"/>
				</g>
			</g>
			<g>
				<g>
					
						<ellipse transform="matrix(1 -8.265265e-03 8.265265e-03 1 -2.6034 1.8529)" class="st13" cx="222.9" cy="315.9" rx="0.3" ry="1.5"/>
				</g>
			</g>
			<g>
				<g>
					<path class="st13" d="M220.4,322.6c-0.1-0.1,0.4-0.5,1-1.1s0.9-1.1,1.1-1.1c0.1,0.1,0,0.8-0.6,1.4
						C221.2,322.4,220.5,322.7,220.4,322.6z"/>
				</g>
			</g>
		</g>
	</g>
	<g>
		<g>
			<g>
				<g>
					
						<ellipse transform="matrix(1 -8.265265e-03 8.265265e-03 1 -2.2094 1.7946)" class="st13" cx="216" cy="268.2" rx="1.5" ry="0.3"/>
				</g>
			</g>
			<g>
				<g>
					
						<ellipse transform="matrix(1 -8.265265e-03 8.265265e-03 1 -2.2103 1.7452)" class="st13" cx="210" cy="268.3" rx="1.5" ry="0.3"/>
				</g>
			</g>
			<g>
				<g>
					
						<ellipse transform="matrix(1 -8.265538e-03 8.265538e-03 1 -2.2106 1.6952)" class="st13" cx="204" cy="268.3" rx="1.5" ry="0.3"/>
				</g>
			</g>
			<g>
				<g>
					
						<ellipse transform="matrix(1 -8.265560e-03 8.265560e-03 1 -2.2115 1.6451)" class="st13" cx="197.9" cy="268.4" rx="1.5" ry="0.3"/>
				</g>
			</g>
			<g>
				<g>
					
						<ellipse transform="matrix(1 -8.265538e-03 8.265538e-03 1 -2.2117 1.595)" class="st13" cx="191.9" cy="268.4" rx="1.5" ry="0.3"/>
				</g>
			</g>
			<g>
				<g>
					<path class="st13" d="M184.3,268.4c0-0.2,0.7-0.2,1.5-0.2s1.5,0.1,1.5,0.3c0,0.2-0.7,0.3-1.5,0.3
						C185,268.7,184.3,268.5,184.3,268.4z"/>
				</g>
			</g>
			<g>
				<g>
					<path class="st13" d="M180,264.6c0.2,0,0.4,0.5,0.9,1.2s0.9,1.1,0.8,1.3c-0.1,0.1-0.7-0.3-1.2-1
						C179.9,265.4,179.9,264.6,180,264.6z"/>
				</g>
			</g>
			<g>
				<g>
					
						<ellipse transform="matrix(1 -8.265538e-03 8.265538e-03 1 -2.1439 1.4945)" class="st13" cx="179.7" cy="260.1" rx="0.3" ry="1.5"/>
				</g>
			</g>
			<g>
				<g>
					
						<ellipse transform="matrix(1 -8.265265e-03 8.265265e-03 1 -2.0937 1.4942)" class="st13" cx="179.7" cy="254.1" rx="0.3" ry="1.5"/>
				</g>
			</g>
			<g>
				<g>
					
						<ellipse transform="matrix(1 -8.235020e-03 8.235020e-03 1 -2.0362 1.4878)" class="st13" cx="179.6" cy="248" rx="0.3" ry="1.5"/>
				</g>
			</g>
			<g>
				<g>
					
						<ellipse transform="matrix(1 -8.265537e-03 8.265537e-03 1 -1.9936 1.4931)" class="st13" cx="179.6" cy="241.9" rx="0.3" ry="1.5"/>
				</g>
			</g>
			<g>
				<g>
					
						<ellipse transform="matrix(1 -8.265538e-03 8.265538e-03 1 -1.9442 1.4922)" class="st13" cx="179.6" cy="236" rx="0.3" ry="1.5"/>
				</g>
			</g>
			<g>
				<g>
					<path class="st13" d="M180.1,228.5c0.1,0.1-0.1,0.7-0.2,1.5c-0.1,0.8-0.2,1.5-0.4,1.5c-0.1,0-0.4-0.7-0.2-1.6
						C179.5,229,179.9,228.4,180.1,228.5z"/>
				</g>
			</g>
			<g>
				<g>
					<path class="st13" d="M184.9,225.3c0,0.2-0.6,0.3-1.4,0.4c-0.8,0.3-1.3,0.5-1.4,0.4c-0.1-0.1,0.4-0.6,1.3-0.9
						C184.1,225.1,184.9,225.2,184.9,225.3z"/>
				</g>
			</g>
			<g>
				<g>
					
						<ellipse transform="matrix(1 -8.265538e-03 8.265538e-03 1 -1.856 1.5732)" class="st13" cx="189.4" cy="225.3" rx="1.5" ry="0.3"/>
				</g>
			</g>
			<g>
				<g>
					
						<ellipse transform="matrix(1 -8.265516e-03 8.265516e-03 1 -1.8551 1.6233)" class="st13" cx="195.5" cy="225.2" rx="1.5" ry="0.3"/>
				</g>
			</g>
			<g>
				<g>
					
						<ellipse transform="matrix(1 -8.265538e-03 8.265538e-03 1 -1.8549 1.6734)" class="st13" cx="201.5" cy="225.2" rx="1.5" ry="0.3"/>
				</g>
			</g>
			<g>
				<g>
					
						<ellipse transform="matrix(1 -8.265538e-03 8.265538e-03 1 -1.854 1.7228)" class="st13" cx="207.5" cy="225.2" rx="1.5" ry="0.3"/>
				</g>
			</g>
			<g>
				<g>
					
						<ellipse transform="matrix(1 -8.265265e-03 8.265265e-03 1 -1.8537 1.7728)" class="st13" cx="213.6" cy="225.2" rx="1.5" ry="0.3"/>
				</g>
			</g>
			<g>
				<g>
					<path class="st13" d="M220.8,226.5c-0.1,0.1-0.6-0.3-1.4-0.6c-0.7-0.4-1.3-0.5-1.3-0.7c0-0.2,0.8-0.2,1.6,0.2
						C220.4,225.8,220.9,226.3,220.8,226.5z"/>
				</g>
			</g>
			<g>
				<g>
					<path class="st13" d="M222.6,231.9c-0.2,0-0.3-0.7-0.3-1.5c0-0.8-0.1-1.4,0-1.5c0.1-0.1,0.4,0.6,0.5,1.5
						C222.9,231.3,222.8,231.9,222.6,231.9z"/>
				</g>
			</g>
			<g>
				<g>
					
						<ellipse transform="matrix(1 -8.265537e-03 8.265537e-03 1 -1.9471 1.8488)" class="st13" cx="222.7" cy="236.5" rx="0.3" ry="1.5"/>
				</g>
			</g>
			<g>
				<g>
					
						<ellipse transform="matrix(1 -8.265265e-03 8.265265e-03 1 -1.9971 1.8489)" class="st13" cx="222.7" cy="242.6" rx="0.3" ry="1.5"/>
				</g>
			</g>
			<g>
				<g>
					
						<ellipse transform="matrix(1 -8.265265e-03 8.265265e-03 1 -2.0465 1.8498)" class="st13" cx="222.8" cy="248.5" rx="0.3" ry="1.5"/>
				</g>
			</g>
			<g>
				<g>
					
						<ellipse transform="matrix(1 -8.265265e-03 8.265265e-03 1 -2.0966 1.8508)" class="st13" cx="222.9" cy="254.6" rx="0.3" ry="1.5"/>
				</g>
			</g>
			<g>
				<g>
					
						<ellipse transform="matrix(1 -8.265537e-03 8.265537e-03 1 -2.1468 1.851)" class="st13" cx="222.9" cy="260.6" rx="0.3" ry="1.5"/>
				</g>
			</g>
			<g>
				<g>
					<path class="st13" d="M220.4,267.3c-0.1-0.1,0.4-0.5,1-1.1c0.5-0.6,0.9-1.1,1.1-1.1c0.1,0.1,0,0.8-0.6,1.4
						C221.2,267.2,220.5,267.5,220.4,267.3z"/>
				</g>
			</g>
		</g>
	</g>
	<g>
		<g>
			
				<ellipse transform="matrix(1 -8.264693e-03 8.264693e-03 1 -0.9063 1.3513)" class="st14" cx="163" cy="110.3" rx="8.3" ry="8.3"/>
		</g>
		<g>
			<path class="st1" d="M166.1,111.6c0,1.2-0.9,2.2-2.6,2.2c-1.1,0-2.1-0.4-2.6-0.9l0.4-0.6c0.4,0.5,1.3,0.8,2.3,0.8
				c1.2,0,1.8-0.6,1.8-1.5c0-0.9-0.6-1.4-2-1.4h-0.5v-0.5l2-2.5H161v-0.7h4.7v0.5l-2,2.6C165.3,109.6,166.1,110.4,166.1,111.6z"/>
		</g>
	</g>
	<g>
		<g>
			
				<ellipse transform="matrix(1 -8.280811e-03 8.280811e-03 1 -2.7967 1.3428)" class="st2" cx="160.8" cy="338.4" rx="2.1" ry="2.1"/>
		</g>
		<g>
			
				<ellipse transform="matrix(1 -8.257110e-03 8.257110e-03 1 -2.7876 1.4369)" class="st2" cx="172.6" cy="338.3" rx="2.1" ry="2.1"/>
		</g>
		<g>
			
				<ellipse transform="matrix(1 -8.257095e-03 8.257095e-03 1 -2.7864 1.5355)" class="st2" cx="184.6" cy="338.2" rx="2.1" ry="2.1"/>
		</g>
	</g>
	<g>
		<g>
			<g>
				
					<ellipse transform="matrix(1 -8.258999e-03 8.258999e-03 1 -0.6671 1.8435)" class="st7" cx="222.9" cy="81.7" rx="6.2" ry="0.2"/>
			</g>
		</g>
		<g>
			<g>
				
					<ellipse transform="matrix(1 -8.267007e-03 8.267007e-03 1 -0.6939 1.8454)" class="st7" cx="222.9" cy="84.9" rx="6.2" ry="0.2"/>
			</g>
		</g>
		<g>
			<g>
				
					<ellipse transform="matrix(1 -8.267007e-03 8.267007e-03 1 -0.7208 1.8455)" class="st7" cx="222.9" cy="88.1" rx="6.2" ry="0.2"/>
			</g>
		</g>
	</g>
	<g>
		<g>
			<path class="st7" d="M115.6,91.7c0,0,0.1,0,0.3,0c0.2,0,0.4,0,0.7,0c0.7,0,1.6,0,2.6-0.1l-0.1,0.1c0-0.6,0-1.2,0-1.9
				c0-0.4,0-0.7,0-1.1c0.1-0.4,0.4-0.8,0.9-0.9c0.4,0,0.8,0,1.3,0c0.5,0.1,0.9,0.5,0.9,1.1c0,0.9,0,1.8,0,2.8l-0.2-0.2
				c1.1,0,2.2,0,3.3,0l-0.2,0.2c0-1.3,0-2.7,0-4.2c0-0.4,0-0.7,0-1.1s-0.2-0.5-0.4-0.8c-0.5-0.5-1-1-1.5-1.4c-0.4-0.4-1-1-1.4-1.4
				c-0.3-0.3-0.4-0.4-0.7-0.7s-0.4-0.4-0.7-0.5c-0.3-0.1-0.5,0-0.8,0.2c-0.2,0.2-0.4,0.4-0.6,0.6c-0.4,0.4-0.8,0.8-1.2,1.2
				c-0.8,0.8-1.6,1.5-2.1,2.2c-0.3,0.4-0.2,0.8-0.2,1.2s0,0.8,0,1.1c0,0.7,0,1.3,0,1.9c0,0.4,0,0.9,0,1.2
				C115.6,91.5,115.6,91.7,115.6,91.7s0-0.1,0-0.4c0-0.4,0-0.7,0-1.2c0-0.5,0-1.2-0.1-1.9c0-0.4,0-0.8,0-1.2c0-0.4-0.1-0.9,0.2-1.4
				c0.6-0.8,1.4-1.4,2.1-2.3c0.4-0.4,0.8-0.8,1.2-1.2c0.2-0.2,0.4-0.4,0.6-0.6s0.6-0.3,1-0.2c0.4,0.1,0.6,0.4,0.8,0.6
				c0.3,0.3,0.4,0.4,0.7,0.7c0.4,0.4,1,0.9,1.4,1.4c0.4,0.4,1,1,1.5,1.4c0.3,0.2,0.6,0.5,0.5,1c0,0.4,0,0.7,0,1.1c0,1.4,0,2.8,0,4.2
				v0.2h-0.2c-1.1,0-2.3,0-3.3,0h-0.2v-0.2c0-1,0-1.9,0-2.8c0-0.4-0.3-0.7-0.7-0.8c-0.4,0-0.9,0-1.2,0c-0.4,0-0.6,0.4-0.7,0.6
				c0,0.4,0,0.7,0,1.1c0,0.7,0,1.3,0,1.9v0.1h-0.1c-1.1,0-2,0-2.7,0C116.1,91.6,115.9,91.6,115.6,91.7
				C115.7,91.7,115.6,91.7,115.6,91.7z"/>
		</g>
	</g>
	<g>
		<g>
			<path class="st2" d="M266,326.7l-32.3,0.3c-3,0-5.4-2.4-5.4-5.4l-0.3-32.3c0-3,2.4-5.4,5.4-5.4l32.3-0.3c3,0,5.4,2.4,5.4,5.4
				l0.3,32.3C271.4,324.2,269,326.6,266,326.7z"/>
		</g>
		<g>
			<g>
				<path class="st5" d="M239.2,303.4c0,0,0.2,0.1,0.4,0.4c0.4,0.3,0.7,0.6,1.2,1c1.1,0.9,2.5,2.1,4.4,3.6l0.1,0.1v0.1
					c-0.2,2.2-0.4,4.8-0.8,7.8l-0.4-0.2c2-1.2,4.3-2.6,6.7-4.1l0.1-0.1l0.1,0.1c2.3,1,4.7,2,7.2,3.2l-0.4,0.3
					c-0.6-2.5-1.2-5-1.8-7.6c0-0.1-0.1,0.3,0.1-0.3l0,0l0,0l0,0l0,0l0,0v-0.1l0.1-0.1l0.2-0.2l0.4-0.4l0.7-0.7
					c0.4-0.5,0.9-1,1.3-1.5c0.9-1,1.8-1.9,2.5-2.9l0.2,0.4c-2.7-0.2-5.4-0.4-7.8-0.6h-0.1l-0.1-0.1c-1.4-2.5-2.7-4.7-4-6.8h0.4
					c-1.1,2.7-2.2,5.2-3.1,7.2v0.1h-0.1c-2.4,0.4-4.3,0.9-5.6,1.1c-0.6,0.1-1.1,0.2-1.5,0.3C239.4,303.3,239.2,303.4,239.2,303.4
					s0.2-0.1,0.4-0.1c0.4-0.1,0.9-0.2,1.5-0.4c1.4-0.4,3.3-0.8,5.7-1.3l-0.1,0.1c0.8-2,1.8-4.5,2.9-7.3l0.2-0.4l0.2,0.4
					c1.2,2.1,2.5,4.3,4,6.8l-0.2-0.1c2.5,0.2,5.1,0.4,7.8,0.6h0.5l-0.4,0.4c-0.9,1-1.7,1.9-2.5,2.9c-0.4,0.5-0.9,1-1.3,1.5l-0.7,0.7
					l-0.4,0.4l-0.2,0.2l-0.1,0.1v0.1l0,0l0,0l0,0l0,0l0,0c0.1-0.4,0-0.1,0.1-0.3c0.6,2.6,1.2,5.2,1.8,7.6l0.1,0.5l-0.4-0.2
					c-2.5-1.1-4.9-2.2-7.2-3.2h0.3c-2.4,1.5-4.7,2.8-6.7,4.1l-0.4,0.3l0.1-0.4c0.4-3,0.6-5.6,0.9-7.8l0.1,0.2
					c-1.8-1.7-3.3-2.9-4.4-3.9c-0.4-0.4-0.9-0.8-1.1-1C239.3,303.5,239.1,303.4,239.2,303.4z"/>
			</g>
		</g>
	</g>
</g>
<g>
	<ellipse class="st15" cx="50.2" cy="361.7" rx="44.3" ry="5.5"/>
	<g>
		<g>
			<g>
				<g>
					<g>
						<path class="st16" d="M9.7,232.9c0,0-2.5-0.4-2.9,1s-0.2,11.6-0.1,12.7c0.1,1.1,2.4,2.7,5.3,3.5
							C11.5,243.4,9.7,232.9,9.7,232.9z"/>
					</g>
				</g>
				<g>
					<g>
						<path class="st7" d="M14.4,223.9c0,0-3.9,0.2-4.8,2.3c-0.9,2.2-0.8,20.4-0.1,22.3c0.7,1.9,4.1,1.9,10.8,3.7
							c-3.9-6.5-4.2-9.2-4.2-10.4C16.2,240.9,14.4,223.9,14.4,223.9z"/>
					</g>
				</g>
				<g>
					<g>
						<path class="st7" d="M19,196.3c0,0-3.3,3.6-5,9.6c-1.7,6-2.3,12.7-2.1,13.1c0.1,0.4,3.4,0.9,3.7,0.9
							C15.7,219.8,19,196.3,19,196.3z"/>
					</g>
				</g>
				<path class="st17" d="M62.2,190.4c-1.4-3-9.5-5.1-16.3-4.7c-5.4,0.4-10.8,1.7-16,3.3c-2.5,0.8-5,1.4-7.4,2.6
					c-2.8,1.4-4,3.6-4.9,6.6c-2.5,8.7-3.3,17.6-3.7,26.6c-0.3,7.2-0.5,14.6,0.1,21.8c0.2,1.6,0.1,6.7,2,7.5c3.9,1.6,10.2,2.4,13.1,2
					c1.7-0.2,1.7-8.5,1.8-9.6c0.4-6.3,0.4-12.7,0.5-19c0.1-7.8-0.1-15.6,0.5-23.5c0.3-3.2,2.3-2.5,4.7-2.9c2.1-0.3,4.1-0.6,6.1-1
					C46.1,199.8,65.2,196.8,62.2,190.4z"/>
				<g>
					<g>
						<path class="st7" d="M28.1,227l-0.5,24.3c0,1.8-1.4,3.3-3,3.1c-1.8-0.1-4-0.4-5.9-0.9c-1.2-0.3-2.2-1.3-2.5-2.7
							c-0.9-4.9-1.6-12.3-1-24.2c0.1-1.6,1.6-2.5,2.9-1.8C22.7,227.1,28.1,227,28.1,227z"/>
					</g>
				</g>
				<g>
					<g>
						<path class="st7" d="M36.1,189c0,0-0.1,1.5,0.8,2.3c0.4,0.5,1.5-0.1,1.5-0.1s6.6-2.5,8-2c1-0.6,1.3-2.3,1-2.8
							C46.9,185.9,40.3,185,36.1,189z"/>
					</g>
				</g>
				<g>
					<g>
						<path class="st7" d="M38,186.8c-2.9,1.1-5.6,2.5-8.2,4c-2.6,1.6-4.8,3.3-6.1,6.2c-1.1,2.7-1.3,5.8-1.5,8.7
							c-0.2,2.7-0.6,5.6-0.4,8.3c0,0.3,0.4,0.4,0.4,0.1c1-5.2,0-10.5,1.6-15.6c1.9-6.3,8.9-8.6,14.2-11.5
							C38.3,186.9,38.2,186.8,38,186.8L38,186.8z"/>
					</g>
				</g>
				<g>
					<g>
						<path class="st7" d="M21.9,213.2c0,0.5,0,1.1,0,1.7c0,0.3,0,0.4-0.1,0.7c0,0.4-0.1,0.9-0.4,0.4c-0.4-1,0.4-1.9,0.8-2.7
							c0.1-0.2-0.2-0.4-0.4-0.3c-0.6,0.4-0.9,1.3-1,2c-0.1,0.5-0.2,1.6,0.4,1.9c1.4,0.9,1.1-3.3,1-3.7
							C22.2,212.9,21.9,213,21.9,213.2L21.9,213.2z"/>
					</g>
				</g>
			</g>
			<g>
				<path class="st18" d="M73.6,205.5c1.8,0.6,3.3,2,4,3.7c0.1,0.3,0.2,0.5,0.2,0.8c0,0.3-0.1,0.5-0.2,0.7c-0.2,0.5-0.4,1.1-0.5,1.5
					c-0.2,0.5-0.4,1.1-0.7,1.5c-0.4,0.4-1,0.6-1.4,0.2c-0.4-0.5-0.9-1.1-1.1-1.8c-0.6-1.3-1-2.8-0.9-4.3c0-0.6,0.2-1.3,0.4-1.9"/>
			</g>
			<g>
				<path class="st19" d="M87.6,204.1c-7.3-4.9-19.2-9.2-23.4-11.2l-4.6,12.2c6.9,3.2,22.6,9.8,28.7,9.8l0,0
					C83.3,213.5,87.6,204.1,87.6,204.1z"/>
			</g>
			<path class="st19" d="M98.4,201.4c4.3-10.4,7.3-22.1,7.3-22.1l-2.7-1.8c0,0-7.7,10.9-13.5,22c0,0-6.6,10.5-3.2,14.5l0,0
				c0.8,0.6,1.6,0.9,2.1,0.8C92.5,214.2,96.4,205.8,98.4,201.4z"/>
			<g>
				<path class="st19" d="M53.1,182c-0.4,2,0,4.2,0.5,6.1c0.6,2.3,1.5,2.1,3.8,2.3c1.5,0.1,4.1,0,4.1,0s1.1,2.4,1.1,2.5
					c0.1,0.2,0,0.4,0,0.5c-0.4,2.4-1.8,4.4-3.4,6.1c-1,1-1.9,1.8-3.2,2.4c-1.9,0.9-4.2,0.8-6.3,0.4c-1.8-0.3-3.4-0.8-5.1-1.4
					c-0.8-0.3-1.5-0.6-2.1-1.1c-1.3-1.1-1.8-3.1-2.1-4.8c-0.1-0.7-0.3-1.4,0.1-2c0.3-0.4,1-0.6,1.3-0.8c1.3-0.6,2.5-0.6,3.9-1.1
					c3.9-1.7,3.5-6.2,2.3-9.6"/>
			</g>
			<g>
				<path class="st20" d="M57.9,190.4c2.7-0.1,5.2,0.4,7.4,1.4c6.2,2.7,12.2,6.8,12.2,6.8s-3.7,0.1-3.5,12.7c0,1.1,0.4,2,1.3,2.9
					c-4-1.6-11.2-5.8-11.2-5.8"/>
			</g>
			<g>
				<path class="st19" d="M41.3,175.9l6.5-12.8c7.8-0.4,12.7,9.8,14.6,13.4c0.7,1.4,1.3,3.1,0.6,4.5c-0.6,1.1-1.8,1.7-3,2.1
					C56.6,184.3,43.5,187.5,41.3,175.9z"/>
			</g>
			<g>
				<path class="st19" d="M57.4,170.2c1.5,0.9,4.9,1.8,5.3,2.6c0.3,0.8-2.7,1.9-4.2,2.5"/>
			</g>
			<g>
				<g>
					<path class="st20" d="M41.3,181.2c-3,4-9.3,5.8-13.1,4.3c-1.9-0.7-1.8-3.1-1.3-4c1.9-3.5,4.3-5.7,7.6-8.3"/>
				</g>
				<g>
					<path class="st21" d="M41.8,165.3l6.9-6c1.5-1,3.2-1.8,4.9-1.8c1.8-0.1,3.7,0.6,4.6,2.1c0.4,0.7,0.6,1.5,0.4,2.2
						c-0.2,0.5-0.4,0.9-0.9,1.2c0.4,0.2,0.6,0.4,0.9,0.8c0.4,0.4,0.6,1.1,0.5,1.7c-0.2,1.1-1.3,1.8-2.4,2.1c-1.5,0.4-3.7,0.5-5.4,0
						c0.5,1.5,0.5,3.9-4.5,4.7c0.7,0.4,1.2,1.1,1.1,1.9c-0.1,0.8-0.8,1.4-1.6,1.5c0.4,1.4,0.8,2.7,1.1,4.1c0.2,0.7,0.4,1.5,0.2,2.2
						c-0.3,1-1.2,1.6-2.1,1.8c-1.4,0.4-5-1.5-5.5-4L41.8,165.3z"/>
				</g>
				<g>
					<path class="st22" d="M51.3,157c-3.6-1-13.5-3.2-17.3,8.2c-1.3,4-1.3,11.5,4.7,14.6l5.1-5.2l7.6-15.5"/>
				</g>
				<g>
					<path class="st20" d="M50.9,156.6l2.5,0.6c-2.8,8.7-6.2,17.9-12.7,24.4L38,180C43.7,174.5,48,164.4,50.9,156.6z"/>
				</g>
			</g>
			<g>
				<path class="st19" d="M47.5,176.5c-0.4-0.4-1.1-0.4-1.5-0.1c-0.4,0.3-0.8,0.8-0.8,1.3c-0.1,0.5,0.1,1.1,0.4,1.6
					c0.5,0.9,1.6,1.5,2.6,1.5c1.1,0,2.1-0.8,2.4-1.8"/>
			</g>
			<g>
				<g>
					<g>
						<path class="st23" d="M62.4,332.3c0,0-0.6,11.7-1.4,18.3c0,0,4.6,4.4,6.8,5.5c0,0-13.5,1-12.6-2.7c1-3.7,1-13.4,0-21.3"/>
					</g>
					<path class="st11" d="M71.8,359.2c2,0.6-0.4,3.3-1.5,3.5c-1.1,0.2-2.1-0.2-3.2-0.4c-4-1.1-8-1.8-12.1-2c-0.3,0-0.5-0.1-0.7-0.2
						c-0.7-0.5-0.8-1.3-0.6-1.8c0.2-0.4,0.4-0.8,0.4-1.2"/>
					<g>
						<path class="st2" d="M53.8,356.7c0.4-1.4,0.1-6.4,2-5.8c1.2,1.8,3.3,2.1,5,0.8c0.3-0.2,1.1-2.2,2.1-0.8
							c1.1,1.5,2.6,2.5,4.8,4.1c1,0.8,5,2.6,5,4c-0.1,1.6-0.7,2.5-2.2,2.5c-1.6,0.1-3.8-0.6-5.3-1.1c-3.1-1.1-6.6-1.3-9.8-1.6
							c-0.5,0-1.1-0.1-1.5-0.5C53.6,358,53.7,357.4,53.8,356.7z"/>
					</g>
					<g>
						<path class="st11" d="M62,350.6c-1,2.3-6.5,3.3-6.9,0.1c0-0.3,0.3-0.4,0.4-0.3c1.1,1.1,2.3,1.6,3.8,1.2c1-0.3,1.6-1.1,2.5-1.4
							C62,350.2,62.1,350.5,62,350.6L62,350.6z"/>
					</g>
					<g>
						<path class="st11" d="M67.2,354.1c-0.4,0.4-0.9,0.8-1.2,1.2c-0.4,0.4-0.6,1-1.1,1.2c-0.2,0.1-0.4,0-0.4-0.3
							c0-1.3,1.5-2.3,2.5-2.7C67.2,353.6,67.5,353.9,67.2,354.1L67.2,354.1z"/>
					</g>
					<g>
						<path class="st11" d="M65.8,353.2c-0.5,0.2-1,0.6-1.3,1c-0.4,0.4-0.7,0.8-1.1,1.1c-0.2,0.2-0.4,0.1-0.4-0.2
							c0-0.6,0.4-1.2,0.9-1.6c0.5-0.4,1.1-0.6,1.8-0.8C66,352.5,66.1,353.1,65.8,353.2L65.8,353.2z"/>
					</g>
					<g>
						<path class="st11" d="M64.7,352.3c-0.6,0.3-1.1,0.7-1.5,1.1c-0.4,0.4-0.7,1-1.2,1.3c-0.3,0.2-0.5-0.1-0.5-0.3
							c0-1.5,1.8-2.5,3-3C64.8,351.2,65.2,352,64.7,352.3L64.7,352.3z"/>
					</g>
				</g>
				<g>
					<path class="st24" d="M47.2,235.7c-5.4,8.6,1,48.4,6.7,66.6c-3.3,11.8,1.9,39.5,1.9,39.5s2.9,0.8,6.3,0.2
						c0.2-0.8,5.7-40,5.1-47.4c-0.8-9.8,5.4-41.3-2.5-51.2"/>
				</g>
			</g>
			<g>
				<g>
					<g>
						<path class="st23" d="M39.1,334.5c0,0-1.8,11.5-3.4,18.1c0,0,4,4.8,6.1,6.2c0,0-13.5-0.4-12.2-4c1.4-3.6,2.4-13.2,2.3-21.2"/>
					</g>
					<path class="st11" d="M46.7,360.6c2,0.5-0.3,3.3-1.3,3.5c-1.1,0.2-2.1-0.1-3.2-0.4c-4-1-8.1-1.4-12.2-1.5c-0.3,0-0.5,0-0.7-0.2
						c-0.7-0.5-0.9-1.3-0.7-1.7c0.2-0.4,0.4-0.8,0.4-1.2"/>
					<g>
						<path class="st2" d="M28.6,358.9c0.3-1.5-0.2-6.4,1.8-5.9c1.2,1.7,3.4,2,5.1,0.6c0.3-0.2,1-2.2,2.1-0.9c1.2,1.4,2.7,2.4,5,4
							c1.1,0.7,5.1,2.5,5.2,3.7c0,1.6-0.6,2.5-2.1,2.6c-1.6,0.2-3.9-0.5-5.4-1c-3.2-1-6.6-1.1-9.9-1.2c-0.5,0-1.1-0.1-1.5-0.4
							C28.5,360.1,28.5,359.5,28.6,358.9z"/>
					</g>
					<g>
						<path class="st11" d="M36.6,352.4c-0.9,2.4-6.4,3.5-6.9,0.4c0-0.2,0.3-0.4,0.4-0.3c1,0.9,1.9,1.4,3.3,1.1
							c1.2-0.2,1.8-1.1,2.9-1.6C36.5,352.1,36.7,352.3,36.6,352.4L36.6,352.4z"/>
					</g>
					<g>
						<path class="st11" d="M41.9,355.8c-0.4,0.4-0.9,0.8-1.2,1.3c-0.4,0.4-0.6,0.9-1.1,1.2c-0.2,0.1-0.4,0.1-0.4-0.2
							c0-1.3,1.3-2.4,2.4-2.8C42,355.2,42.2,355.5,41.9,355.8L41.9,355.8z"/>
					</g>
					<g>
						<path class="st11" d="M40.6,354.8c-1.1,0.4-1.6,1.5-2.4,2.2c-0.2,0.2-0.4,0-0.4-0.3c0-0.6,0.4-1.2,0.8-1.6
							c0.5-0.4,1.1-0.6,1.8-0.9C40.7,354.2,40.8,354.7,40.6,354.8L40.6,354.8z"/>
					</g>
					<g>
						<path class="st11" d="M39.3,353.9c-0.5,0.4-1.1,0.7-1.5,1.2c-0.4,0.4-0.7,1-1.1,1.3c-0.3,0.2-0.5,0-0.5-0.4
							c0-1.5,1.6-2.5,2.8-3.1C39.5,353,39.9,353.7,39.3,353.9L39.3,353.9z"/>
					</g>
				</g>
				<g>
					<path class="st24" d="M34.3,236.8c-6.3,8-6,31.5-0.5,66.9c-4.7,11.3-1.9,36.9-1.9,36.9s2.9,1.6,6.3,1.3
						c0.3-0.7,9.5-37.1,9.7-44.5c0.3-9.8,9.8-40.4,3-51.2"/>
				</g>
				<path class="st25" d="M67.5,253.4c-1.3,1.3-2.6,2.7-4.3,3.7c-2.1,1.2-4.6,1.8-6.9,1.9c-2.5,0.3-4.8,0.3-7.3,0.5
					c-1.8,0.3-3.7,0.7-5.5,0.8c-1.8,0.1-3.6-0.1-5.4-0.2c-1.6,0-3.3,0-4.6-0.7c-0.5-0.3-1-0.6-1.2-1.1c-0.5-1.1,0-2.4,0.6-3.3
					c1.3-2,3.3-3.5,5.4-4.7c2.1-1.1,4.4-1.8,6.8-2.4"/>
			</g>
			<g>
				<path class="st22" d="M43.7,191.6c-0.1,0,0.4,1.1,0.4,1.2c0.2,0.4,0.4,0.8,0.8,1.1c1.2,1.6,3.2,2.6,5.1,3.1
					c2.1,0.4,4.2-0.2,5.9-1.5c0.8-0.6,1.4-1.4,1.8-2.3c0.1-0.3,0.6-2.9,0.2-2.9h3.7l7.1,17.8c-0.5,25.3,0,44.5,0,44.5
					c-4.4,3.5-7.5,3.7-20.5,4.9c-12.9,1.2-16,1.9-20.1-2.1c1.3-5.3-0.6-28.6,9.8-52.9c1.2-2.7-1.1-6.1,0.4-9
					C38.9,192.8,41.5,192.3,43.7,191.6z"/>
			</g>
			<g>
				<g>
					<defs>
						<path id="SVGID_1_" d="M43.7,191.6c-0.4,0.4,2.9,4,3.3,4.1c2.8,1.9,6.3,1.9,9-0.2c0.8-0.6,1.4-1.4,1.8-2.3
							c0.1-0.3,0.6-2.9,0.2-2.9h3.7l7.1,17.8c-0.5,25.3,0,44.5,0,44.5c-4.4,3.5-7.5,3.7-20.5,4.9c-12.9,1.2-16,1.9-20.1-2.1
							C29.7,249.5,26.9,219.3,43.7,191.6z"/>
					</defs>
					<clipPath id="SVGID_2_">
						<use xlink:href="#SVGID_1_"  style="overflow:visible;"/>
					</clipPath>
					<g class="st26">
						<g>
							<g>
								<path class="st27" d="M29.4,228.4c1.1-8,6.4-14.6,11.7-20.6c-7.2,3.7-12.6,11-13.8,19.1"/>
							</g>
							<g>
								<path class="st27" d="M39.5,209.3c0.3-0.2,0.1-0.5,0.3-0.9c0.7-1.9,1.8-4.2,1.1-6.1c-0.3-0.7-0.7-1.2-1.1-1.8
									c-0.4-0.4-0.8-0.9-1.3-1.2c-1.1-0.6-2.5-0.4-3.5,0.1c-1.1,0.5-2,1.4-2.9,2.3c1.9-0.5,4-0.6,6-0.3c-1.1,0.2-2.3,0.7-3.2,1.5
									c1.5,0.4,3.2-0.7,4.5,0.1c-0.6,0.3-1.3,0.6-1.9,0.9c0.9,0,1.6,0.8,1.9,1.6c0.5,1,0,1.9,0.3,3.1"/>
							</g>
							<g>
								<path class="st27" d="M40.1,208.5c-0.6-2.3-2.8-3.9-5.1-4.1c-2.3-0.2-4.6,0.9-6.1,2.5c-1.6,1.7-2.5,4-2.8,6.2
									c0.5-0.2,1-0.7,1.3-1.1c1.6-2.1,3.8-4,6.3-4.5c-0.6,1.1-1.1,2.4-1.4,3.6c0.8-1.4,2-2.6,3.3-3.5c-0.4,1-0.9,1.8-1.3,2.8
									c1.5-1.6,3.2-1.5,5.4-1.5"/>
							</g>
						</g>
					</g>
				</g>
			</g>
			<g class="st28">
				<path class="st29" d="M33.2,225.9c-1.6,2.2-1.6,4.2-3.1,6.2c0.4-2.2,0.4-4.2,1-6.5c0,0,0.7-1.1,1.7-2.3c0.7,0.4,1.6,0.3,2.6,0.3
					c1.7-5.3,2.3-6,5.4-10.6c0.3-0.4,0.5-0.8,0.8-1.1c-2.5,5.5-3.9,10.3-5.2,15C35,226.4,34.5,226.4,33.2,225.9z"/>
			</g>
			<g>
				<path class="st19" d="M31.4,257.8c1.6,1.5,3.3,3.1,4.8,4.6c0.1,0.1,0.2,0.2,0.2,0.4c0,0.1-0.1,0.2-0.1,0.3
					c-1.1,1.8-2.3,3.5-3.6,5.3c-0.1,0.1-0.2,0.2-0.3,0.2c-0.2,0-0.3-0.1-0.4-0.2c-1-1.1-1.8-2.5-2.5-3.9c-0.2-0.3-0.4-0.6-0.4-0.9
					c-0.2-0.4-0.2-1-0.2-1.4c0-1.6,0-3.1,0.2-4.6"/>
			</g>
			<g>
				<g>
					<path class="st30" d="M38.1,259.7c-2.4,3.5-4.6,7.1-6.8,10.8c-0.2,0.4,0.3,0.6,0.5,0.3c2.5-3.4,4.7-7.1,6.5-11
						C38.4,259.7,38.2,259.5,38.1,259.7L38.1,259.7z"/>
				</g>
			</g>
			<g>
				<path class="st25" d="M49.7,285.7c0-0.3,0-0.5,0-0.6c0-0.5,0.1-1.1,0.2-1.5c0.9-4.7,2.5-14.2,2.5-14.2s0.1,12.7-0.4,16.7
					c-0.3,2.2-0.4,5.5-0.4,8.6C51,291.7,50.3,288.8,49.7,285.7z"/>
			</g>
			<g>
				<path class="st31" d="M38.4,342.9c-2.5,0-4.9,0-7-1.4c-0.2-0.7-0.1-1.8,0-2.7c1,0.4,5.1,1.8,7.6,1.7
					C38.8,341.4,38.6,342.2,38.4,342.9z"/>
			</g>
			<g>
				<path class="st31" d="M62.4,343.3c-2.4,0.4-4.9,0.5-7.2-0.5c0-0.8,0-1.7,0-2.5c1,0.2,1.9,0.4,2.9,0.5c1.4,0.3,3,0.4,4.4,0.1
					C62.7,341.6,62.6,342.6,62.4,343.3z"/>
			</g>
			<g>
				<g>
					<path class="st32" d="M36.6,219.6c-3.3,5-6.9,9.9-10.6,14.7c-0.4,0.5-1.1,1-1.5,0.4c-0.1-0.2-0.1-0.4-0.1-0.5
						c0.1-1.4,0.5-2.7,1-4c2.3-6.1,4.8-12,7.8-17.8"/>
				</g>
				<g>
					<path class="st19" d="M32.1,259.8c-1.4-10.3-4.7-25.2-4.7-25.2s6.1-14.1,10.2-19.6L29,204.2c-4.5,7.6-12.3,25.9-12.3,29.1
						c0,3.1,6.9,19.6,12.6,28.2"/>
				</g>
				<g>
					<path class="st33" d="M34.3,220.3c-0.9,1.6-1.8,3.3-2.5,5c-1-0.3-1.8-0.9-2.5-1.5c-1.4-1.1-2.8-2.2-3.9-3.7
						c-1.1-1.4-1.7-3.3-1.3-5c3.7,0.8,7.2,2.4,10.4,4.5L34.3,220.3z"/>
				</g>
				<g>
					<path class="st20" d="M38.4,193.3c0,0-3.3,0.6-6.1,3.5c-2.5,2.6-6.9,13.6-9.2,18.4c1.1,2.6,1.7,3.1,3.3,4.7
						c2.3,2.1,5.7,3.6,8.9,3.8c1.4-4.3,6.1-11.9,6.1-11.9"/>
				</g>
				<g>
					<path class="st7" d="M33.5,193.2c0.5-0.6,1.7-1.7,2.5-1.5c1.1,0.2,2.2,0.7,3.1,1.4c3.9,2.9,4.5,8.3,4,12.7
						c-0.3,2.3-0.8,4.6-1.7,6.8c-0.4,0.9-0.7,1.8-1.2,2.6c-0.7,1.1-2.2,2.3-2.5,3.4c1.9-5.1,2.2-14.3,0.2-20.2
						C37,196,35,194.4,33.5,193.2z"/>
				</g>
			</g>
			<g>
				<path class="st7" d="M56.3,188.8c1.7,1.4,3.6,2.6,5,4.4c1.4,1.8,2.6,3.7,3.6,5.8c1.9,4,3.2,8.5,3.7,13c0.5-4.9,1.1-9.9-0.4-14.7
					c-0.7-2.4-2.1-4.7-4-6.3c-1.3-1.2-4.7-3.7-6.7-2.6"/>
			</g>
			<g>
				<g>
					<path class="st21" d="M53.7,168.8c-0.8,0.4-1.5,1-1.9,1.7c-0.4,0.6-0.8,1.6-0.5,2.3c0,0.1,0.2,0.1,0.3,0
						c0.3-0.7,0.3-1.4,0.7-2.1c0.4-0.7,1-1.2,1.8-1.7C53.9,169,53.8,168.7,53.7,168.8L53.7,168.8z"/>
				</g>
			</g>
			<g>
				<g>
					<path class="st21" d="M55.1,172c0.6,0.4,1.1,1.1,0.7,1.8c-0.1,0.3-0.5,0.4-0.7,0.3c-0.4-0.2-0.5-0.5-0.8-0.8
						C53.5,172.6,54.3,171.4,55.1,172L55.1,172z"/>
				</g>
				<g>
					<path class="st1" d="M55.2,172.4c0.2,0.1,0.3,0.3,0.2,0.4c0,0.1-0.1,0.1-0.2,0.1c-0.1,0-0.1-0.1-0.2-0.2
						C54.7,172.5,54.9,172.3,55.2,172.4L55.2,172.4z"/>
				</g>
			</g>
			<g>
				<g>
					<path class="st33" d="M46.5,177.7c0-0.1,0.7-0.2,0.8-0.1c0.1,0.1,0.1,0.2,0.1,0.4s0,0.4,0.1,0.6c0.2,0.4,0.4,0.6,0.8,0.8
						c0.3,0.2,0.6,0.3,0.9,0.1c0.3-0.1,0.4-0.4,0.4-0.7c-0.1-0.2-0.3-0.2-0.4,0c-0.2,0.5-1,0.1-1.1-0.2c-0.3-0.4-0.1-0.6-0.2-1
						c-0.1-0.3-0.3-0.4-0.4-0.4c-0.5-0.2-1.1-0.2-1.1,0.5C46.3,177.9,46.5,177.9,46.5,177.7L46.5,177.7z"/>
				</g>
			</g>
			<g>
				<path class="st33" d="M47.7,180.7c0.8,0.1,2.1,0.1,2.5-0.8c0,0.3,0,0.6-0.3,1.1c-0.2,0.2-0.5,0.4-0.7,0.4
					c-0.4,0.2-1,0.3-1.3,0.1"/>
			</g>
			<g>
				<path class="st33" d="M53,184.4c-0.8,0.1-3-0.3-3.1-0.2c0.3,0.4,0.6,0.5,1.1,0.7c0.6,0.3,1.4,0.4,2,0.6"/>
			</g>
			<g>
				<g>
					<path class="st34" d="M60.7,175.5c0.8,0.8,1.1,2.5,0.8,3.3c-0.4,0.8-1.2,1.3-2.3,1.3c-1.2,0-2.5-0.5-3.7-1.1
						C57.4,178.1,59.1,176.9,60.7,175.5z"/>
				</g>
				<g>
					<g>
						<defs>
							<path id="SVGID_3_" d="M60.7,175.5c0.8,0.8,1.1,2.5,0.8,3.3c-0.4,0.8-1.2,1.3-2.3,1.3c-1.2,0-2.5-0.5-3.7-1.1
								C57.4,178.1,59.1,176.9,60.7,175.5z"/>
						</defs>
						<clipPath id="SVGID_4_">
							<use xlink:href="#SVGID_3_"  style="overflow:visible;"/>
						</clipPath>
						<g class="st35">
							<path class="st36" d="M56.4,181c-0.1-0.7,0.3-1.2,0.8-1.7c0.5-0.4,1.1-0.6,1.8-0.8c0.4-0.1,0.8-0.2,1.3-0.2
								c0.4,0.1,1,0.3,1.3,0.6c0.2,0.3,0.4,0.5,0.4,0.8c0.3,1.1-0.2,2.2-1.1,2.7c-1,0.5-2.5,0.4-3.7-0.2"/>
						</g>
					</g>
				</g>
			</g>
			<path class="st19" d="M102.3,175.3"/>
			<path class="st19" d="M110,169.2c0.3-0.6,0.9-1.2,1.6-2.2c0.7-1,0.4-1.6,0.1-1.8c-0.4-0.2-1.9,1.5-3,2.3
				c-0.9,0.8-2.5,3.1-2.7,3.6c-0.7-0.4-1.7-0.7-2-0.6c-0.8,0.2-2.3,2.8-2.5,4.3c-0.2,1.1,0.4,4.3,0.4,4.3l-0.8,2.7
				c0,0,2.5,3.9,3.3,1.2c0.8-2.6,1.7-3.3,3-3.6c1.1-0.3,4.1-2.8,4.2-4.2c0-0.4-0.4-1-0.6-1.1l0,0c0-1-0.9-1.1-1.1-1.2
				c-0.1-1-1.1-1.1-1.1-1.1C108.7,171.3,109.7,169.8,110,169.2z"/>
			<g>
				<g>
					<path class="st37" d="M105.9,171.2c0.4,0.3,0.8,0.5,1.1,0.9c0.1,0.1,0.4,0.4,0.4,0.5c0,0.6-0.4,0.6-0.8,0.5
						c-0.4,0-1.1-0.4-1.6-0.2c0,0-0.1,0-0.1,0.1c0,0.6-0.3,1.1-0.6,1.6c0,0,0,0.1,0.1,0.1c0.3-0.3,0.5-0.5,0.6-1
						c0-0.1,0-0.6,0.1-0.7c0.1-0.2,1.5,0.3,1.8,0.2c0.4-0.1,0.6-0.4,0.5-0.8C107.3,171.9,106.4,171.4,105.9,171.2
						C105.8,171,105.8,171.1,105.9,171.2L105.9,171.2z"/>
				</g>
			</g>
			<g>
				<g>
					<path class="st37" d="M109.8,173.1c-0.3,0.6-0.8,1.5-1.4,1.8c-0.3,0.1-0.6,0.1-0.9,0.2c-0.4,0.1-1.1,0.3-1.5,0.2
						c-0.4-0.1-0.8-0.3-0.9-0.7s0.7-0.9,1.1-1c0.1,0,0-0.1,0-0.1c-0.6,0.1-1.3,0.6-1.1,1.3c0.1,0.6,0.7,0.6,1.1,0.5
						c0.7-0.1,1.5-0.1,2.2-0.4C109.1,174.7,109.6,173.8,109.8,173.1C109.9,173.1,109.8,173.1,109.8,173.1L109.8,173.1z"/>
				</g>
			</g>
			<g>
				<g>
					<path class="st37" d="M110.9,174.3c-0.3,0.8-0.9,1.6-1.8,1.8c-0.7,0.2-1.4,0.3-2.1,0.2c-0.1,0-0.1,0.1,0,0.1
						c0.7,0.2,1.8,0.1,2.4-0.2C110.2,176,110.8,175.1,110.9,174.3C111,174.2,110.9,174.2,110.9,174.3L110.9,174.3z"/>
				</g>
			</g>
			<g>
				<g>
					<path class="st37" d="M110.2,177.3c-0.6,0.2-1.1,0.1-1.8,0.1c0,0-0.1,0.1,0,0.1C108.9,177.7,109.6,177.5,110.2,177.3
						C110.2,177.3,110.2,177.2,110.2,177.3L110.2,177.3z"/>
				</g>
			</g>
		</g>
	</g>
</g>
</svg>
