<?xml version="1.0" encoding="utf-8"?>
<!-- Generator: Adobe Illustrator 21.0.0, SVG Export Plug-In . SVG Version: 6.00 Build 0)  -->
<svg version="1.1" id="Capa_1" xmlns="http://www.w3.org/2000/svg" xmlns:xlink="http://www.w3.org/1999/xlink" x="0px" y="0px"
	 viewBox="0 0 350 360.7" style="enable-background:new 0 0 350 360.7;" xml:space="preserve">
<style type="text/css">
	.st0{fill:#F3F7FF;}
	.st1{fill:#E3ECFF;}
	.st2{fill:#BED0FC;}
	.st3{fill:#FAFAFA;}
	.st4{fill:url(#SVGID_1_);}
	.st5{fill:url(#SVGID_2_);}
	.st6{fill:url(#SVGID_3_);}
	.st7{fill:url(#SVGID_4_);}
	.st8{fill:#D6D4FF;}
	.st9{opacity:0.25;}
	.st10{fill:none;stroke:#FFFFFF;stroke-width:0.7496;stroke-linecap:round;stroke-linejoin:round;stroke-miterlimit:10;}
	.st11{fill:#BFB8F4;}
	.st12{fill:#7324C8;}
	.st13{fill:#1C4ABA;}
	.st14{fill:#3461F3;}
	.st15{fill:#225099;}
	.st16{fill:#103B7A;}
	.st17{fill:#E1E1E1;}
	.st18{fill:#EA7764;}
	.st19{fill:#EE846A;}
	.st20{fill:#F4AD85;}
	.st21{fill:#F09373;}
	.st22{fill:#6354A1;}
	.st23{fill:#5B4B9B;}
	.st24{fill:#7A72B3;}
	.st25{fill:#7064AA;}
	.st26{fill:#527FEF;}
	.st27{fill:#FFFFFF;}
	.st28{fill:#282A3A;}
	.st29{fill:#EF92A3;}
	.st30{fill:#F2A07D;}
	.st31{fill:#F3C4D2;}
	.st32{fill:#E8685B;}
	.st33{fill:#383B4C;}
	.st34{fill:#484857;}
	.st35{fill:#E85D96;}
	.st36{fill:#DD4586;}
	.st37{fill:#F3B4C3;}
	.st38{opacity:0.7;}
	.st39{fill:#DDD6FF;}
	.st40{fill:#C9C2FF;}
	.st41{fill:#F2F0FF;}
	.st42{fill:#9999EF;}
	.st43{fill:none;stroke:#FFFFFF;stroke-width:1.6155;stroke-linecap:round;stroke-linejoin:round;stroke-miterlimit:10;}
	.st44{opacity:0.3;fill:#9999EF;enable-background:new    ;}
	.st45{opacity:0.2;fill:#9999EF;enable-background:new    ;}
</style>
<g>
	<g>
		<g>
			<rect x="4.7" y="214.6" class="st0" width="95.2" height="6.4"/>
		</g>
	</g>
	<g>
		<g>
			<g>
				<path class="st0" d="M96.5,239.7c0,0.2-20.3,0.4-45.4,0.4c-25.1,0-45.4-0.2-45.4-0.4c0-0.2,20.3-0.4,45.4-0.4
					S96.5,239.5,96.5,239.7z"/>
			</g>
		</g>
	</g>
	<g>
		<g>
			<g>
				<path class="st0" d="M96.5,88.6c0,0.2-20.3,0.4-45.4,0.4c-25.1,0-45.4-0.2-45.4-0.4c0-0.2,20.3-0.4,45.4-0.4
					S96.5,88.5,96.5,88.6z"/>
			</g>
		</g>
	</g>
	<g>
		<g>
			<g>
				<path class="st0" d="M96.5,251.3c0,0.2-20.3,0.4-45.4,0.4c-25.1,0-45.4-0.2-45.4-0.4c0-0.2,20.3-0.4,45.4-0.4
					S96.5,251,96.5,251.3z"/>
			</g>
		</g>
	</g>
	<g>
		<g>
			<g>
				<path class="st0" d="M96.5,262.9c0,0.2-20.3,0.4-45.4,0.4c-25.1,0-45.4-0.2-45.4-0.4s20.3-0.4,45.4-0.4S96.5,262.6,96.5,262.9z"
					/>
			</g>
		</g>
	</g>
	<g>
		<g>
			<g>
				<path class="st0" d="M96.5,274.4c0,0.2-20.3,0.4-45.4,0.4c-25.1,0-45.4-0.2-45.4-0.4s20.3-0.4,45.4-0.4S96.5,274.2,96.5,274.4z"
					/>
			</g>
		</g>
	</g>
	<g>
		<g>
			<g>
				<path class="st0" d="M96.5,286.1c0,0.2-20.3,0.4-45.4,0.4c-25.1,0-45.4-0.2-45.4-0.4c0-0.2,20.3-0.4,45.4-0.4
					S96.5,285.8,96.5,286.1z"/>
			</g>
		</g>
	</g>
	<g>
		<g>
			<g>
				<path class="st0" d="M97.8,299.2c0,0.2-20.3,0.4-45.4,0.4c-25.1,0-45.4-0.2-45.4-0.4c0-0.2,20.3-0.4,45.4-0.4
					C77.5,298.8,97.8,298.9,97.8,299.2z"/>
			</g>
		</g>
	</g>
	<g>
		<g>
			<g>
				<g>
					<g>
						<rect x="5.7" y="101.8" class="st1" width="95.4" height="92.3"/>
					</g>
				</g>
			</g>
		</g>
		<g>
			<g>
				<g>
					<g>
						<polygon class="st0" points="13.1,186.3 39.5,138.8 61.1,169.1 74.3,153 93.8,186.3 						"/>
					</g>
				</g>
			</g>
		</g>
		<g>
			<g>
				<g>
					<g>
						<circle class="st0" cx="63.5" cy="129.6" r="6.9"/>
					</g>
				</g>
			</g>
		</g>
		<g>
			<g>
				<g>
					<g>
						<g>
							<path class="st0" d="M93.8,186.6c0,0,0-0.2,0-0.4c0-0.2,0-0.7,0-1.1c0-1,0-2.4-0.1-4.2c0-3.7-0.1-9-0.1-15.7
								c-0.1-13.5-0.1-32.7-0.2-55.7l0.4,0.4c-23.3,0-51,0-80.7,0.1c-0.1,0.1,0.8-0.8,0.4-0.4l0,0l0,0v0.1v0.2v0.3v0.7v1.3v2.7
								c0,1.7,0,3.5,0,5.2c0,3.5,0,6.9,0,10.3c0,6.8,0,13.5,0,19.9c0,13,0,25.2-0.1,36.4l-0.4-0.4c24.1,0.1,44.2,0.2,58.3,0.2
								c7.1,0.1,12.6,0.1,16.4,0.1c1.9,0,3.3,0,4.4,0.1c0.5,0,0.8,0,1.2,0C93.6,186.6,93.8,186.6,93.8,186.6s-0.1,0-0.3,0
								s-0.7,0-1.1,0c-1,0-2.4,0-4.3,0.1c-3.8,0-9.4,0.1-16.4,0.1c-14.2,0.1-34.4,0.1-58.6,0.2h-0.4v-0.4c0-11.2,0-23.5-0.1-36.4
								c0-6.5,0-13.1,0-19.9c0-3.4,0-6.8,0-10.3c0-1.7,0-3.5,0-5.2V112v-1.3V110v-0.3v-0.2v-0.1l0,0l0,0c-0.4,0.4,0.6-0.6,0.5-0.5
								c29.6,0,57.2,0.1,80.7,0.1h0.4v0.4c-0.1,23.2-0.2,42.4-0.2,56c-0.1,6.6-0.1,12-0.1,15.6c0,1.7,0,3.1-0.1,4.1c0,0.4,0,0.7,0,1
								C93.8,186.5,93.8,186.6,93.8,186.6z"/>
						</g>
					</g>
				</g>
			</g>
		</g>
	</g>
</g>
<g>
	<g>
		<path class="st2" d="M329.6,53.4h-81.1c-1.6,0-2.9-1.3-2.9-2.9V33.6c0-1.6,1.3-2.9,2.9-2.9h81.1c1.6,0,2.9,1.3,2.9,2.9v16.9
			C332.4,52.1,331.2,53.4,329.6,53.4z"/>
	</g>
	<g>
		<g>
			<path class="st3" d="M259.5,42.7c1-0.4,1.7-1.4,1.7-2.7c0-1.6-1.2-2.8-2.7-2.8c-1.5,0-2.7,1.2-2.7,2.8c0,1.2,0.7,2.2,1.7,2.7
				c-2.2,0.3-3.2,1.8-3.7,3.1c0.9,1.1,2.2,1.8,3.7,2h1.7c1.5-0.2,2.8-0.9,3.7-2C262.6,44.5,261.6,43.1,259.5,42.7z"/>
		</g>
		<g>
			<g>
				<rect x="270.2" y="36.6" class="st3" width="21.3" height="1.6"/>
			</g>
			<g>
				<rect x="270.2" y="45.7" class="st3" width="37.5" height="1.6"/>
			</g>
			<g>
				<rect x="270.2" y="41" class="st3" width="54.2" height="1.6"/>
			</g>
		</g>
	</g>
</g>
<g>
	<g>
		<g>
			<g>
				<g>
					
						<linearGradient id="SVGID_1_" gradientUnits="userSpaceOnUse" x1="76.8761" y1="278.6149" x2="76.8761" y2="134.1675" gradientTransform="matrix(0.9244 -0.3814 -0.3814 -0.9244 140.1541 409.7643)">
						<stop  offset="0" style="stop-color:#8ED0FF"/>
						<stop  offset="0.1841" style="stop-color:#84CCF9"/>
						<stop  offset="0.4922" style="stop-color:#6BC2E9"/>
						<stop  offset="0.8843" style="stop-color:#41B2CF"/>
						<stop  offset="0.9922" style="stop-color:#34ADC7"/>
					</linearGradient>
					<path class="st4" d="M164.2,156.5l-5.6,2.3c-1.2,0.5-2.7,0.2-3.7-0.8c-0.6-0.6-1.2-1.2-1.7-1.7c-1-0.9-1.3-2.4-0.8-3.7l2.3-5.6
						c0.7-1.7-0.1-3.6-1.7-4.2l-12.7-5.3c-1.7-0.7-3.6,0.1-4.2,1.7l-2.3,5.6c-0.5,1.2-1.8,2.1-3.2,2c-0.8,0-1.7,0-2.5,0
						c-1.3,0.1-2.7-0.7-3.2-2l-2.3-5.6c-0.7-1.7-2.6-2.4-4.2-1.7l-12.7,5.2c-1.7,0.7-2.4,2.6-1.7,4.2l2.3,5.6
						c0.5,1.2,0.2,2.7-0.8,3.7c-0.6,0.6-1.2,1.2-1.7,1.7c-0.9,1-2.4,1.3-3.7,0.8l-5.6-2.3c-1.7-0.7-3.6,0.1-4.2,1.7l-5.3,12.7
						c-0.7,1.7,0.1,3.6,1.7,4.2l5.6,2.3c1.2,0.5,2.1,1.8,2,3.2c0,0.8,0,1.7,0,2.5c0.1,1.3-0.7,2.7-2,3.2l-5.6,2.3
						c-1.7,0.7-2.4,2.6-1.7,4.2l5.2,12.7c0.7,1.7,2.6,2.4,4.2,1.7l5.6-2.3c1.2-0.5,2.7-0.2,3.7,0.8c0.6,0.6,1.2,1.2,1.7,1.7
						c1,0.9,1.3,2.4,0.8,3.7l-2.3,5.6c-0.7,1.7,0.1,3.6,1.7,4.2l12.7,5.3c1.7,0.7,3.6-0.1,4.2-1.7l2.3-5.6c0.5-1.2,1.8-2.1,3.2-2
						c0.8,0,1.7,0,2.5,0c1.3-0.1,2.7,0.7,3.2,2l2.3,5.6c0.7,1.7,2.6,2.4,4.2,1.7l12.7-5.2c1.7-0.7,2.4-2.6,1.7-4.2l-2.3-5.6
						c-0.5-1.2-0.2-2.7,0.8-3.7c0.6-0.6,1.2-1.2,1.7-1.7c0.9-1,2.4-1.3,3.7-0.8l5.6,2.3c1.7,0.7,3.6-0.1,4.2-1.7l5.3-12.7
						c0.7-1.7-0.1-3.6-1.7-4.2l-5.6-2.3c-1.2-0.5-2.1-1.8-2-3.2c0-0.8,0-1.7,0-2.5c-0.1-1.3,0.7-2.7,2-3.2l5.6-2.3
						c1.7-0.7,2.4-2.6,1.7-4.2l-5.2-12.7C167.8,156.6,165.9,155.7,164.2,156.5z M134.6,194.8c-7.1,3-15.4-0.4-18.4-7.6
						c-3-7.1,0.4-15.4,7.6-18.4c7.2-3,15.4,0.4,18.4,7.6C145.3,183.6,141.9,191.8,134.6,194.8z"/>
					
						<linearGradient id="SVGID_2_" gradientUnits="userSpaceOnUse" x1="76.9304" y1="170.0676" x2="76.9304" y2="261.5492" gradientTransform="matrix(0.9244 -0.3814 -0.3814 -0.9244 140.1541 409.7643)">
						<stop  offset="0" style="stop-color:#8ED0FF"/>
						<stop  offset="0.1841" style="stop-color:#84CCF9"/>
						<stop  offset="0.4922" style="stop-color:#6BC2E9"/>
						<stop  offset="0.8843" style="stop-color:#41B2CF"/>
						<stop  offset="0.9922" style="stop-color:#34ADC7"/>
					</linearGradient>
					<path class="st5" d="M117,152c-16.4,6.8-24.3,25.7-17.5,42.1c6.8,16.4,25.7,24.3,42.1,17.5c16.4-6.8,24.3-25.7,17.5-42.1
						C152.3,153,133.5,145.2,117,152z M136.2,198.6c-9.3,3.8-19.9-0.6-23.8-9.9c-3.8-9.3,0.6-19.9,9.9-23.8
						c9.3-3.8,19.9,0.6,23.8,9.9C150,184.2,145.6,194.8,136.2,198.6z"/>
				</g>
				<g>
					
						<linearGradient id="SVGID_3_" gradientUnits="userSpaceOnUse" x1="139.7759" y1="398.4547" x2="139.7759" y2="294.1153" gradientTransform="matrix(0.9997 -2.590000e-02 -2.590000e-02 -0.9997 -22.2865 395.2086)">
						<stop  offset="0" style="stop-color:#FFFFFF"/>
						<stop  offset="0.235" style="stop-color:#F5F8FF"/>
						<stop  offset="0.627" style="stop-color:#DCE5FD"/>
						<stop  offset="0.9922" style="stop-color:#BED0FC"/>
					</linearGradient>
					<path class="st6" d="M139,53.5l-4.3,0.1c-1,0-1.9-0.6-2.2-1.5c-0.2-0.6-0.5-1.1-0.7-1.7c-0.4-0.9-0.3-1.9,0.4-2.7l3-3.2
						c0.9-0.9,0.8-2.4-0.1-3.3l-7.2-6.8c-0.9-0.9-2.4-0.8-3.3,0.1l-3,3.2c-0.7,0.7-1.7,0.9-2.7,0.5c-0.6-0.2-1.1-0.4-1.7-0.7
						c-0.9-0.3-1.6-1.2-1.6-2.2l-0.1-4.3c0-1.3-1.1-2.3-2.4-2.2l-10,0.2c-1.3,0-2.3,1.1-2.2,2.4l0.1,4.3c0,1-0.6,1.9-1.5,2.2
						c-0.6,0.2-1.1,0.5-1.7,0.7c-0.9,0.4-1.9,0.3-2.7-0.4l-3.2-3c-0.9-0.9-2.4-0.8-3.3,0.1l-6.8,7.2c-0.9,0.9-0.8,2.4,0.1,3.3l3.2,3
						c0.7,0.7,0.9,1.7,0.5,2.7c-0.2,0.6-0.4,1.1-0.7,1.7c-0.3,0.9-1.2,1.6-2.2,1.6L78.4,55c-1.3,0-2.3,1.1-2.2,2.4l0.2,10
						c0,1.3,1.1,2.3,2.4,2.2l4.3-0.1c1,0,1.9,0.6,2.2,1.5c0.2,0.6,0.5,1.1,0.7,1.7c0.4,0.9,0.3,1.9-0.4,2.7l-3,3.2
						c-0.9,0.9-0.8,2.4,0.1,3.3l7.2,6.8c0.9,0.9,2.4,0.8,3.3-0.1l3-3.2c0.7-0.7,1.7-0.9,2.7-0.5c0.6,0.2,1.1,0.4,1.7,0.7
						c0.9,0.3,1.6,1.2,1.6,2.2l0.1,4.3c0,1.3,1.1,2.3,2.4,2.2l10-0.2c1.3,0,2.3-1.1,2.2-2.4l-0.1-4.3c0-1,0.6-1.9,1.5-2.2
						c0.6-0.2,1.1-0.5,1.7-0.7c0.9-0.4,1.9-0.3,2.7,0.4l3.2,3c0.9,0.9,2.4,0.8,3.3-0.1l6.8-7.2c0.9-0.9,0.8-2.4-0.1-3.3l-3.2-3
						c-0.7-0.7-0.9-1.7-0.5-2.7c0.2-0.6,0.4-1.1,0.7-1.7c0.3-0.9,1.2-1.6,2.2-1.6l4.3-0.1c1.3,0,2.3-1.1,2.2-2.4l-0.2-10
						C141.4,54.5,140.3,53.5,139,53.5z M109.1,71.7c-5.6,0.2-10.3-4.3-10.4-9.9c-0.2-5.6,4.3-10.3,9.9-10.4
						c5.6-0.2,10.3,4.3,10.4,9.9C119.2,67,114.8,71.6,109.1,71.7z"/>
					
						<linearGradient id="SVGID_4_" gradientUnits="userSpaceOnUse" x1="139.8164" y1="274.9135" x2="139.8164" y2="375.7084" gradientTransform="matrix(0.9997 -2.590000e-02 -2.590000e-02 -0.9997 -22.2865 395.2086)">
						<stop  offset="0" style="stop-color:#FFFFFF"/>
						<stop  offset="0.2992" style="stop-color:#F5F7FB"/>
						<stop  offset="0.7985" style="stop-color:#DCE3EF"/>
						<stop  offset="0.9581" style="stop-color:#D2DBEA"/>
					</linearGradient>
					<path class="st7" d="M108.3,38.3c-12.9,0.3-23,11-22.7,23.9c0.3,12.9,11,23,23.9,22.7c12.9-0.3,23-11,22.7-23.9
						C131.8,48.1,121.2,38,108.3,38.3z M109.2,74.8c-7.3,0.2-13.3-5.6-13.5-12.8s5.6-13.3,12.8-13.5c7.3-0.2,13.3,5.6,13.5,12.8
						C122.3,68.5,116.5,74.6,109.2,74.8z"/>
				</g>
			</g>
			<g>
				<g>
					<g>
						<path class="st8" d="M109,306.8c-2.4-3.8-4.8-7.9-5.2-12.4c-0.3-4.2-1.1-8.8-0.4-12.9c0.7-4.2,0.3-8.4-0.6-12.5
							c-2.9-12.8-8.2-11.4-10.2-10.4c-1.9,1-2.8,3.1-2.9,6.5c-0.1,2.7,1.9,15.4-2.2,13.6c-4.8-2.2-4.7-15.4-5.5-19.9
							c-1.2-6.6-3.9-13.7-9.1-18.3c-2.5-2.2-6.2-3.9-9.2-2.4c-1.8,0.9-3,2.7-3.6,4.7c-1.9,5.8,0.1,11.7,2.4,17.1
							c1,2.2,8.7,12.5,2.3,11.5c-1.5-0.2-14.3-10.1-15.4,0.2c-0.4,3.7,3.7,7.3,10.1,11.9c4.1,2.9,18.9,10.3,18.2,14.4
							c-0.7,4-9-2.3-8,5.1c0.6,4.2,6.1,7.1,9.8,8.7c1.7,0.7,3.7,1.1,5.4,2c2.1,1,4.6,3.5,3,5.9c-0.7,1.1-2,1.6-2.6,2.7
							c-0.7,1.1-0.4,2.6,0.2,3.7c0.7,1.1,1.7,1.8,2.8,2.5c7,4.2,15.7,4.8,23.8,3.2c8-1.7,15.4-5.4,22.5-9.5"/>
					</g>
					<g class="st9">
						<path class="st10" d="M67.5,245.1c0,0,8.7,43.5,35.4,70.5"/>
						<path class="st10" d="M55.7,273.9c0,0,14.9,11.5,27.1,13"/>
						<path class="st10" d="M94.8,264.1c0.8,6.8,1.6,26-4.8,35.3"/>
						<path class="st10" d="M75.2,304.5c0,0,5.8,5,23.8,6.9"/>
						<path class="st10" d="M88.9,323.5c0,0,9.3,1.6,17.5-3.3"/>
					</g>
				</g>
				<g>
					<path class="st11" d="M131.2,302.8c-0.9-5.2-10.5-37.9-27.3-29.2c-10,5.1-8.2,24.2,7.4,38.5c-3.1-3-6.6-6.3-10.8-7.1
						c-2.2-0.4-5,0.6-6.7,2.2c-1.5,1.4-1.9,3.6-2,5.6c-0.2,7.5,3.7,14.9,9.9,18.9c-3.5-1.9-6.5-4.3-10.4-4.7
						c-1.2-0.1-3.5,0.6-4.1,1.7c-0.7,1.2-0.6,5.9,7,9.4c-31-5.9-32.8,7.3-21.7,7.3s91.3,0,91.3,0"/>
				</g>
				<g>
					<path class="st11" d="M246.9,312.1c0.9-5.2,10.5-37.9,27.3-29.2c10,5.1,8.2,24.2-7.4,38.5c3.1-3,6.6-6.3,10.8-7.1
						c2.2-0.4,5,0.6,6.7,2.2c1.5,1.4,1.9,3.6,2,5.6c0.2,7.5-3.7,14.9-9.9,18.9c3.5-1.9,6.5-4.3,10.4-4.7c1.2-0.1,3.5,0.6,4.1,1.7
						c0.7,1.2,0.6,5.9-7,9.4c31-5.9,32.8,7.3,21.7,7.3s-73.6,0-73.6,0"/>
				</g>
				<g>
					<g>
						<path class="st8" d="M254.8,291.1c1.9-4.1,3.9-8.3,3.8-12.9c-0.1-4.2,0.1-8.8-1-12.9c-1.1-4.1-1.2-8.3-0.8-12.5
							c1.4-13,6.9-12.2,9-11.5c2,0.7,3.2,2.7,3.7,6.1c0.4,2.7-0.2,15.5,3.7,13.3c4.6-2.7,3-15.9,3.2-20.3c0.4-6.7,2.4-14,6.9-19.2
							c2.2-2.5,5.7-4.6,8.9-3.4c1.9,0.7,3.2,2.4,4.1,4.2c2.6,5.6,1.2,11.7-0.5,17.3c-0.7,2.3-7.3,13.5-1.1,11.8
							c1.5-0.4,13-11.5,15.4-1.5c0.8,3.6-2.8,7.6-8.7,13c-3.7,3.3-17.7,12.4-16.5,16.3c1.2,3.9,8.6-3.3,8.5,4.2
							c-0.1,4.2-5.2,7.8-8.8,9.7c-1.7,0.9-3.6,1.5-5.1,2.6c-1.9,1.2-4.2,4-2.3,6.2c0.7,1,2.2,1.3,2.9,2.4c0.7,1,0.7,2.5,0.2,3.7
							c-0.6,1.2-1.5,2-2.6,2.8c-6.5,5-15,6.6-23.2,5.8c-8.1-0.7-15.9-3.7-23.4-6.9"/>
					</g>
					<g class="st9">
						<path class="st10" d="M289.1,225.1c0,0-3.8,44.3-27.2,74.1"/>
						<path class="st10" d="M304.1,252.4c0,0-13.5,13-25.4,15.9"/>
						<path class="st10" d="M264.1,247c-0.1,6.9,1.3,26,8.8,34.5"/>
						<path class="st10" d="M288.1,285c0,0-5.2,5.6-22.9,9.5"/>
						<path class="st10" d="M276.7,305.4c0,0-9.1,2.6-17.8-1.3"/>
					</g>
				</g>
			</g>
			<g>
				<g>
					<g>
						<g>
							<g>
								<g>
									<g>
										<g>
											<path class="st12" d="M253.8,357.7l-110.4-0.5c-13.3-0.1-24-10.9-23.9-24.2l1.2-276.7c0.1-13.3,10.9-24,24.2-23.9
												L255.2,33c13.3,0.1,24,10.9,23.9,24.2L278,333.8C277.8,347,267,357.7,253.8,357.7z"/>
										</g>
									</g>
									<g>
										<g>
											<path class="st3" d="M255,42.5l-21.3-0.1c-2.9,0-5.2,2.4-5.2,5.4v3.9c0,3-2.3,5.4-5.2,5.4L181.5,57
												c-2.9,0-5.1-2.5-5.1-5.5v-3.9c0-3-2.3-5.5-5.1-5.5h-7.6L144.9,42c-9.3-0.1-16.9,7.5-16.9,16.8l-1.2,270
												c0,9.3,7.5,16.9,16.8,16.9l110.1,0.5c9.3,0.1,16.9-7.5,16.9-16.8l1.2-270C271.8,50.1,264.3,42.5,255,42.5z"/>
										</g>
									</g>
								</g>
							</g>
						</g>
					</g>
					<g>
						<path class="st12" d="M222.9,174h-43.2c-4.5,0-8.1-3.7-8.1-8.1v-43.2c0-4.5,3.7-8.1,8.1-8.1h43.2c4.5,0,8.1,3.7,8.1,8.1v43.2
							C230.9,170.4,227.3,174,222.9,174z"/>
					</g>
					<g>
						<polygon class="st12" points="155.8,136.2 157.2,139.1 160.5,139.6 158.2,141.8 158.6,145 155.8,143.5 152.9,145 153.5,141.8 
							151.2,139.6 154.3,139.1 						"/>
					</g>
					<g>
						<polygon class="st12" points="248.4,107.4 249.5,109.6 252,110.1 250.2,111.8 250.6,114.2 248.4,113.1 246.2,114.2 
							246.6,111.8 244.8,110.1 247.3,109.6 						"/>
					</g>
					<g>
						<polygon class="st12" points="246.2,161.3 247.2,162.6 248.8,162.6 247.9,163.9 248.4,165.4 246.9,164.9 245.6,165.9 
							245.6,164.3 244.3,163.4 245.8,162.8 						"/>
					</g>
					<g>
						<path class="st12" d="M154.7,117c-0.8,0-1.5-0.7-1.5-1.5s0.7-1.5,1.5-1.5c0.8,0,1.5,0.7,1.5,1.5
							C156.2,116.2,155.5,117,154.7,117z M154.7,114.7c-0.4,0-0.7,0.3-0.7,0.7c0,0.4,0.3,0.7,0.7,0.7c0.4,0,0.7-0.3,0.7-0.7
							C155.4,115,155.1,114.7,154.7,114.7z"/>
					</g>
					<g>
						<path class="st12" d="M240.4,137.9c-0.8,0-1.5-0.7-1.5-1.5s0.7-1.5,1.5-1.5s1.5,0.7,1.5,1.5S241.2,137.9,240.4,137.9z
							 M240.4,135.6c-0.4,0-0.7,0.3-0.7,0.7c0,0.4,0.3,0.7,0.7,0.7c0.4,0,0.7-0.3,0.7-0.7S240.8,135.6,240.4,135.6z"/>
					</g>
					<g>
						<path class="st12" d="M220.6,105.9c-0.8,0-1.5-0.7-1.5-1.5c0-0.8,0.7-1.5,1.5-1.5s1.5,0.7,1.5,1.5
							C222.1,105.2,221.4,105.9,220.6,105.9z M220.6,103.7c-0.4,0-0.7,0.3-0.7,0.7c0,0.4,0.3,0.7,0.7,0.7c0.4,0,0.7-0.3,0.7-0.7
							C221.3,104,221,103.7,220.6,103.7z"/>
					</g>
					<g>
						<circle class="st12" cx="146.4" cy="164.7" r="1.1"/>
					</g>
					<g>
						<circle class="st12" cx="197.2" cy="180.4" r="1.1"/>
					</g>
					<g>
						<circle class="st12" cx="186.6" cy="93.2" r="1.1"/>
					</g>
					<g>
						<path class="st12" d="M175.1,264v-4.7h0.8v4.7c0,1.9,0.9,2.8,2.5,2.8s2.5-0.9,2.5-2.8v-4.7h0.8v4.7c0,2.3-1.2,3.6-3.3,3.6
							C176.3,267.5,175.1,266.3,175.1,264z"/>
						<path class="st12" d="M190.7,262.1c0,1.7-1.2,2.7-3.3,2.7h-2.2v2.6h-0.8v-8.1h3.1C189.5,259.3,190.7,260.3,190.7,262.1z
							 M189.9,262.1c0-1.3-0.8-2.1-2.5-2.1h-2.2v4.1h2.2C189,264.1,189.9,263.4,189.9,262.1z"/>
						<path class="st12" d="M192.6,259.3h3.3c2.6,0,4.4,1.7,4.4,4.1s-1.7,4.1-4.4,4.1h-3.3V259.3z M195.9,266.7
							c2.2,0,3.6-1.4,3.6-3.3c0-2-1.4-3.3-3.6-3.3h-2.4v6.6H195.9z"/>
						<path class="st12" d="M207.2,265.2h-4.6l-1,2.2h-0.9l3.7-8.1h0.8l3.7,8.1h-0.9L207.2,265.2z M206.9,264.6l-2-4.4l-2,4.4H206.9
							z"/>
						<path class="st12" d="M211.6,260h-2.8v-0.7h6.6v0.7h-2.8v7.4h-0.8L211.6,260L211.6,260z"/>
						<path class="st12" d="M222.4,266.7v0.7h-5.7v-8.1h5.6v0.7h-4.7v2.9h4.2v0.7h-4.2v3H222.4z"/>
					</g>
					<g>
						<g>
							<g>
								<g>
									<g>
										<g>
											<path class="st3" d="M209.2,133.9c0.9,0.7,1.7,1.5,2.4,2.3l3.1-0.6l2,4.7l-2.5,1.8c0.2,1.1,0.2,2.2,0,3.3l2.6,1.7
												l-1.9,4.7l-3.1-0.5c-0.7,0.9-1.5,1.7-2.3,2.4l0.6,3.1l-4.7,2l-1.8-2.5c-1.1,0.2-2.2,0.2-3.3,0l-1.7,2.6l-4.7-1.9l0.5-3.1
												c-0.9-0.7-1.7-1.5-2.4-2.3l-3.1,0.6l-2-4.7l2.5-1.8c-0.2-1.1-0.2-2.2,0-3.3l-2.6-1.7l1.9-4.7l3.1,0.5
												c0.7-0.9,1.5-1.7,2.3-2.4l-0.6-3.1l4.7-2l1.8,2.5c1.1-0.2,2.2-0.2,3.3,0l1.7-2.6l4.7,1.9L209.2,133.9L209.2,133.9z
												 M203.9,139c-2.8-1.2-6.1,0.2-7.1,3.1c-1.2,2.8,0.2,6.1,3.1,7.1c2.8,1.2,6.1-0.2,7.1-3.1
												C208.2,143.4,206.7,140.1,203.9,139z"/>
										</g>
									</g>
								</g>
							</g>
						</g>
						<g>
							<g>
								<g>
									<g>
										<g>
											<g>
												<path class="st3" d="M203.9,139c0,0,0.5,0.1,1.2,0.6s1.7,1.5,2.2,3c0.2,0.7,0.3,1.7,0.1,2.6c-0.2,0.9-0.6,1.9-1.3,2.7
													c-0.3,0.4-0.7,0.7-1.2,1.1c-0.5,0.3-1,0.5-1.6,0.7c-1.1,0.3-2.4,0.2-3.5-0.2c-1.2-0.5-2.1-1.2-2.7-2.2
													c-0.3-0.5-0.5-1-0.7-1.6c-0.2-0.5-0.2-1.1-0.2-1.6c0-1.1,0.4-2.1,0.9-2.8c0.5-0.8,1.2-1.4,1.9-1.8
													c1.4-0.8,2.7-0.8,3.7-0.7C203.5,138.7,203.9,139,203.9,139s-0.5-0.2-1.3-0.2c-0.8-0.1-2.2,0-3.5,0.7
													c-0.7,0.4-1.3,1-1.7,1.7c-0.5,0.7-0.8,1.7-0.8,2.7c0,0.5,0,1,0.2,1.5s0.3,1,0.7,1.5c0.6,0.9,1.5,1.7,2.6,2.2
													s2.2,0.5,3.3,0.2c0.5-0.2,1-0.3,1.5-0.7c0.4-0.2,0.8-0.6,1.2-1c0.7-0.7,1.1-1.7,1.2-2.5c0.2-0.9,0.1-1.7-0.1-2.5
													c-0.4-1.5-1.3-2.5-2-3C204.4,139.2,203.9,139.1,203.9,139z"/>
											</g>
										</g>
									</g>
								</g>
							</g>
						</g>
						<g>
							<g>
								<g>
									<g>
										<g>
											<g>
												<path class="st3" d="M209.2,133.9c0,0,0-0.1,0-0.2c0-0.2,0.1-0.3,0.1-0.6c0.1-0.5,0.2-1.3,0.3-2.3v0.1
													c-1.2-0.5-2.8-1.1-4.8-1.9h0.1c-0.5,0.7-1.2,1.7-1.7,2.6v0.1h-0.1c-1-0.1-2.2-0.2-3.3,0.1h-0.1v-0.1
													c-0.6-0.7-1.2-1.7-1.8-2.5h0.2c-1.5,0.7-3.1,1.3-4.7,2l0.1-0.2c0.2,0.9,0.3,2,0.6,3.1v0.1l-0.1,0.1
													c-0.8,0.7-1.7,1.4-2.3,2.4l-0.1,0.1h-0.1c-0.9-0.2-2-0.3-3.1-0.5l0.2-0.1c-0.6,1.5-1.2,3.2-1.9,4.7l-0.1-0.2
													c0.8,0.6,1.7,1.2,2.6,1.7l0.1,0.1v0.1c-0.2,1-0.2,2.2,0,3.3v0.1l-0.1,0.1c-0.7,0.6-1.7,1.2-2.5,1.8l0.1-0.2
													c0.7,1.5,1.3,3.1,2,4.7l-0.2-0.1c1-0.2,2-0.3,3.1-0.6h0.1l0.1,0.1c0.7,0.8,1.4,1.7,2.3,2.3l0,0l0,0
													c0,0.1-0.1-0.2,0.1,0.2l0,0l0,0l0,0l0,0v0.1v0.1v0.2l-0.1,0.4l-0.1,0.7c-0.1,0.5-0.2,1-0.2,1.5l-0.1-0.2
													c1.6,0.7,3.2,1.3,4.7,1.9l-0.2,0.1c0.6-0.8,1.2-1.7,1.7-2.6l0.1-0.1h0.1c1.1,0.2,2.2,0.1,3.3,0h0.1l0.1,0.1
													c0.6,0.8,1.2,1.7,1.8,2.5l-0.2-0.1c1.6-0.7,3.2-1.3,4.7-2l-0.1,0.2c-0.2-1-0.3-2.1-0.6-3.1v-0.1l0.1-0.1
													c0.9-0.7,1.7-1.5,2.3-2.3l0.1-0.1h0.1c1.1,0.2,2.1,0.3,3.1,0.5l-0.2,0.1c0.7-1.7,1.3-3.2,1.9-4.7l0.1,0.2
													c-0.9-0.7-1.7-1.2-2.6-1.7h-0.1v-0.1c0.2-1.2,0.1-2.3,0-3.3v-0.1h0.1c0.9-0.7,1.7-1.2,2.5-1.8v0.1
													c-0.7-1.8-1.4-3.4-2-4.7l0.1,0.1c-1.2,0.2-2.2,0.4-3.1,0.5l0,0l0,0c-0.7-0.9-1.3-1.5-1.7-1.8c-0.2-0.2-0.3-0.3-0.5-0.4
													C209.3,133.9,209.2,133.9,209.2,133.9s0.1,0,0.2,0.1c0.1,0.1,0.2,0.2,0.5,0.4c0.4,0.3,1.1,0.9,1.7,1.8h-0.1
													c0.8-0.2,1.8-0.3,3.1-0.6h0.1v0.1c0.6,1.3,1.2,2.9,2.1,4.7v0.1l-0.1,0.1c-0.7,0.6-1.6,1.2-2.5,1.8l0.1-0.1
													c0.2,1.1,0.2,2.2,0.1,3.4l-0.1-0.1c0.8,0.6,1.7,1.2,2.6,1.7l0.1,0.1v0.1c-0.6,1.5-1.2,3.1-1.9,4.7v0.1H215
													c-1-0.2-2-0.3-3.1-0.5l0.2-0.1c-0.7,0.9-1.5,1.7-2.4,2.4l0.1-0.2c0.2,1,0.3,2,0.6,3.1v0.1l-0.1,0.1
													c-1.5,0.7-3.1,1.3-4.7,2l-0.1,0.1l-0.1-0.1c-0.6-0.8-1.2-1.7-1.8-2.5l0.2,0.1c-1.1,0.2-2.2,0.2-3.4,0l0.2-0.1
													c-0.6,0.8-1.2,1.7-1.7,2.6l-0.1,0.1l-0.1-0.1c-1.6-0.7-3.2-1.2-4.7-1.9l-0.1-0.1v-0.2c0.1-0.5,0.2-1,0.2-1.5l0.1-0.7
													l0.1-0.4v-0.2v-0.1v-0.1l0,0l0,0l0,0l0,0c0.1,0.3,0,0.1,0.1,0.2l0,0l0,0c-0.9-0.7-1.7-1.5-2.4-2.4l0.2,0.1
													c-1.1,0.2-2.1,0.4-3.1,0.6h-0.1l-0.1-0.1c-0.7-1.7-1.4-3.2-2-4.7l-0.1-0.1l0.1-0.1c0.8-0.7,1.7-1.2,2.5-1.8l-0.1,0.2
													c-0.2-1.2-0.2-2.3,0-3.4l0.1,0.2c-0.9-0.6-1.7-1.2-2.6-1.7l-0.1-0.1l0.1-0.1c0.7-1.7,1.3-3.2,1.9-4.7l0.1-0.1h0.1
													c1.1,0.2,2.1,0.3,3.1,0.5l-0.2,0.1c0.7-0.9,1.6-1.7,2.4-2.4l-0.1,0.2c-0.2-1.1-0.4-2.1-0.6-3.1v-0.1h0.1
													c1.7-0.7,3.2-1.4,4.7-2h0.1l0.1,0.1c0.7,0.9,1.2,1.7,1.8,2.5l-0.1-0.1c1.2-0.2,2.3-0.2,3.4,0h-0.1
													c0.7-0.9,1.2-1.7,1.7-2.6v-0.1h0.1c1.9,0.8,3.6,1.4,4.7,1.9l0,0l0,0c-0.2,1-0.3,1.7-0.4,2.2c-0.1,0.2-0.1,0.4-0.1,0.6
													C209.2,133.8,209.2,133.9,209.2,133.9z"/>
											</g>
										</g>
									</g>
								</g>
							</g>
						</g>
					</g>
					<g>
						<g>
							<rect x="179.8" y="193.2" class="st13" width="60.7" height="43.9"/>
						</g>
						<g>
							<rect x="159.9" y="193.2" class="st14" width="52.9" height="43.9"/>
						</g>
						<g>
							<polygon class="st15" points="159.9,193.2 150.5,183.7 174.3,183.7 183.2,193.2 							"/>
						</g>
						<g>
							<polygon class="st15" points="212.8,193.2 223.6,183.7 253.3,183.7 240.5,193.2 							"/>
						</g>
						<g>
							<g>
								<ellipse class="st16" cx="186.4" cy="193.2" rx="26.5" ry="0.2"/>
							</g>
						</g>
					</g>
					<g>
						<g>
							<g>
								<path class="st17" d="M250.1,292.5h-97.8c-2.3,0-4.2-1.9-4.2-4.2v-0.2c0-2.3,1.9-4.2,4.2-4.2H250c2.3,0,4.2,1.9,4.2,4.2v0.2
									C254.3,290.6,252.4,292.5,250.1,292.5z"/>
							</g>
							<g>
								<path class="st12" d="M200.3,292.5h-47.8c-2.3,0-4.2-1.9-4.2-4.2v-0.2c0-2.3,1.9-4.2,4.2-4.2h47.8c2.3,0,4.2,1.9,4.2,4.2
									v0.2C204.4,290.6,202.6,292.5,200.3,292.5z"/>
							</g>
						</g>
					</g>
				</g>
				<g>
					<path class="st12" d="M194.2,313.6c0,1.7-1.2,3.2-3.7,3.2c-1.5,0-2.9-0.5-3.7-1.3l0.5-0.8c0.7,0.7,1.8,1.2,3.2,1.2
						c1.7,0,2.7-0.8,2.7-2.2c0-1.3-0.8-2.2-3.5-2.2h-2.2l0.5-5.2h5.7v0.9h-4.7l-0.3,3.3h1.3C193,310.6,194.2,311.8,194.2,313.6z"/>
					<path class="st12" d="M202.5,313.6c0,1.7-1.2,3.2-3.7,3.2c-1.5,0-2.9-0.5-3.7-1.3l0.5-0.8c0.7,0.7,1.8,1.2,3.2,1.2
						c1.7,0,2.7-0.8,2.7-2.2c0-1.3-0.8-2.2-3.5-2.2h-2.2l0.5-5.2h5.7v0.9h-4.7l-0.3,3.3h1.3C201.3,310.6,202.5,311.8,202.5,313.6z"
						/>
					<path class="st12" d="M203.6,309.1c0-1.7,0.9-2.8,2.3-2.8c1.4,0,2.3,1.1,2.3,2.8s-1,2.8-2.3,2.8
						C204.5,311.9,203.6,310.7,203.6,309.1z M207.6,309.1c0-1.3-0.7-2.2-1.6-2.2c-1,0-1.6,0.8-1.6,2.2s0.7,2.2,1.6,2.2
						C206.9,311.2,207.6,310.4,207.6,309.1z M212.2,306.3h0.9l-7.1,10.4h-0.9L212.2,306.3z M210,314c0-1.7,1-2.8,2.3-2.8
						c1.4,0,2.3,1.2,2.3,2.8s-0.9,2.8-2.3,2.8C210.9,316.8,210,315.6,210,314z M213.9,314c0-1.3-0.7-2.2-1.6-2.2
						c-1,0-1.6,0.8-1.6,2.2s0.7,2.2,1.6,2.2C213.3,316.1,213.9,315.3,213.9,314z"/>
				</g>
			</g>
		</g>
	</g>
</g>
<g>
	<path class="st18" d="M86,248c0,0,7.1,24.2,1.1,51c-5.9,26.8-8.3,33-7.7,34.4c0.6,1.3,5.6,3.2,7.6,3.2c2.2,0,3.1-1.2,3.2-2.1
		c0.2-0.8,1.2-9.1,7.1-23.3c5.7-14.2,10.8-36.7,10.5-42.6c-0.2-5.7-1.2-11.1-1-12.4c0.2-1.2,4.2-11.5,4.2-11.5L86,248z"/>
	<path class="st19" d="M89,322.6c0.8-2.2,11.1-32.6,9.5-34.2c-1.1-1.1-5.7-4.6-9.1-7.1c-0.2,5.6-0.8,11.7-2.3,17.9
		c-2.9,12.6-4.9,20.7-6.1,25.8C84.3,324.6,88.5,323.9,89,322.6z"/>
	<path class="st20" d="M67,241.7c-5.2,2.7-10.1,2.5-10.1,2.5c10.3,1.3,17.9,9.4,25.2,13.6c7.3,4.2,18.4,12,19.3,13.2
		c0.8,1.2,1.7,4.3-1,7.6c-2.6,3.3-5.8,0.8-5.8,0.8c-12-6.7-54.3-23.9-55.6-25.9c-1.2-2-4.4-9-3.6-12c0.8-3.2,5.1-9,5.1-9
		C47,229.2,72.4,239.1,67,241.7z"/>
	<path class="st21" d="M67.3,241.6c-5.2,2.7-10.1,2.5-10.1,2.5c10.3,1.3,17.9,9.4,25.2,13.6c7.3,4.2,18.4,12,19.3,13.2
		c0.8,1.2,1.7,4.3-1,7.6c-2.6,3.3-5.8,0.8-5.8,0.8c-1.2-0.6-2.7-1.3-4.3-2.2c3.8-6.1,1.7-8.8-1.2-11.2c-3.4-2.9-24.9-18.8-32.3-19.8
		c-7.5-1.2-13,0.2-10.3-1.4c2.7-1.7,4.2-2.3,3.9-3.1c-0.4-0.7-5.1-4.5-8-5.7c-1.4-0.6-2.9-0.6-4-0.4c1.2-1.7,2.1-3.1,2.1-3.1
		C47,229.2,72.4,239.1,67.3,241.6z"/>
	<path class="st22" d="M81.4,251.1c12.2,4.7,27.7,0.8,30.1,0c2.4-0.8,2.4-2.5,2.4-2.5c0.2-6.6,5.6-28.1,5.6-32.5
		c0-4.4,0-19.1,0-20.9c0-1.8-1-5-2-7.1c-1.1-2.2-5.6-11-5.6-11L81.4,251.1z"/>
	<path class="st23" d="M81.5,251c5.1,2,11,2.4,16.1,2.2c5.1-15.2,13.6-34.8,16.5-37.5c1.1-1,3.1-1.7,5.4-2.3v-18.2c0-1.8-1-5-2-7.1
		c-1.1-2.2-5.6-11-5.6-11L81.5,251z"/>
	<path class="st24" d="M93.4,175.8l-4.9,1.8c0,0,4,7.8-14.2,23.2C56,216,40,231.7,40,231.7s5.2,6.3,17.9,10.1
		c12.6,3.7,21.2,12.7,21.8,13c0.6,0.2,0.7-0.1,0.7-0.1c1-4.9,34.1-41.6,36.3-53.7c2.2-12-4.9-24-4.9-24L93.4,175.8z"/>
	<path class="st25" d="M111.8,177l-18.6-1.3l-4.9,1.8c0,0,0.7,1.5,0.1,4.6l0,0c8.2-1.7,25.4,3.2,23.2,15.2
		c-2.4,11.9-18.7,35.5-27.7,43.3c-6.3,5.5-11.7,6.4-14.4,6.5c6.1,3.7,9.8,7.6,10.1,7.7c0.6,0.2,0.7-0.1,0.7-0.1
		c1-4.9,34.1-41.6,36.3-53.7C118.9,189,111.8,177,111.8,177L111.8,177z M58,241.8c-2.7-0.7-5.1-1.7-7.1-2.6c0.1,0.1,8,1.7,14.3-5.2
		c6.4-7,10.2-11.5,11.3-12.7s-7.7,14.5-9.4,18.3c-0.7,1.8-1.1,3.9-1.2,5.6C63.4,243.8,60.7,242.7,58,241.8z"/>
	<path class="st26" d="M108.6,277.3c0.5,0.6,0.7,11.3,0.7,11.3l-1.2,1.2c0,0-1,0.2-1.7-0.1c-0.7-0.4-12.5-8.8-12.7-9.2
		c-0.2-0.4,0-1.8,0-1.8l1.2,0.7c0,0,1.7-3.2,2.2-3.4c0.4-0.2,1.7-0.5,1.7-0.5S108.2,276.9,108.6,277.3z"/>
	<path class="st14" d="M106.1,259.2l12.6,32.1v9.3l-0.4,0.7c-3,0.1-3.7-1-3.9-1.8c-0.2-0.8-0.6-2.5-1.7-3.7
		c-1.2-1.2-4.7-4.6-4.7-5.2s0.7-2.5,0.2-3.2c-0.5-0.7-3.2-2.9-6.7-5.6c-3.4-2.7-4.2-4.2-4-5.1c0.2-1,0.6-4.7,0.1-6.7
		c-0.5-2-3.2-3.7-3.3-4.2c-0.1-0.6,0.2-0.5,0.2-0.5s1.3,0.4,1.9-0.1c0.6-0.5,1.7-2.2,3.1-3.1c1.4-0.8,5.6-2.6,5.6-2.6L106.1,259.2z"
		/>
	<path class="st27" d="M106.3,257.7c0,0-1.1,0.2-1.3,0.6c-0.2,0.2-0.2,0.7-0.2,0.7s9.4,22.8,10.6,25.7c1.2,2.9,2.7,6.2,2.7,8.6
		s0,8.1,0,8.1c0,0.2,0.4,0.4,0.4,0.4s0.2,0,0.5,0c0.2,0,0.4-0.2,0.4-0.2s0-6.7,0-8.3c0-1.5-0.5-3.1-0.8-4.2
		c-0.2-1.1-11.4-30.9-11.4-30.9C107,257.5,106.3,257.7,106.3,257.7z"/>
	<path class="st26" d="M65.5,343.7l-0.2-4.2c0,0,11.1-9.6,12.1-9.6c0.8,0,3.1,1.2,3.2,1.5c0.1,0.2,0.1,1.9,0.1,1.9L65.5,343.7z"/>
	<path class="st14" d="M88.5,335.3c-0.8,0.4-2.4,0.1-5-1.3c-2.6-1.4-3.9-2.4-5.1-1.7c-1.2,0.7-10.2,8.4-11.3,8.1
		c-1.1-0.4-2.2-1.2-2.5-1c-0.2,0.1-1.2,1-2.1,1.4c-1,0.5-1.4,0.7-4.4,0.7s-4,2.7-4,3.7c0,1.1,0.5,1.4,0.5,1.4l0.2,1.2h34.8l2.9-2.7
		c0,0,0.7-0.8,0.5-2.6c-0.2-1.7-1.8-7.7-2.1-8.1c-0.2-0.4-0.7-0.7-0.7-0.7C89.7,333.9,89.5,335.2,88.5,335.3z"/>
	<path class="st27" d="M80.5,346.7c-3.7,0-25.7,0-25.7,0c-0.8,0-0.8,0.7-0.8,0.7s0,1.3,0,1.9s0.4,1,2,1c1.7,0,34.8,0,36.3,0
		c1.4,0,1.5-0.8,1.5-1.5s0-1.8,0-2.6s-1-1.1-1-1.1C86.1,345,84,346.8,80.5,346.7z"/>
	<path class="st28" d="M91.2,116.7c3.4,28.9,39,17,32.2,4.8c0,0,1.7,0.2,1.9-0.5c0.2-0.7-0.6-1.1-0.6-1.1c-10.1-3.1-8.8-19.4-8.1-36
		c0.8-16.8-15.5-14.5-18.4-12.2s-1.7,5.7-1.7,5.7S88.4,93.1,91.2,116.7z"/>
	<path class="st28" d="M95.8,79.1c0-0.1-2.3-7.5,5.8-7.5v-0.7c-9.1,0-6.5,8.3-6.5,8.3L95.8,79.1z"/>
	<path class="st29" d="M95.4,145c0.5,0.6,1.2,3,1.2,3.2c0,0.2-0.8,1.7-1.2,1.7c-0.4,0.1-2.2-0.2-3.1-1.3c-0.8-1-6.4-7.6-7.6-9.5
		c-1.2-1.9-1.1-3.2-1.1-3.2c0.7-0.6,1.7-0.6,1.7-0.6S94.9,144.7,95.4,145z"/>
	<path class="st30" d="M91.5,148.8c0,0-15.2,10.6-18.3,11.2c-3.1,0.7-5.2-0.4-8-3.6c-2.7-3.2-21.9-28.3-21.9-28.3
		c-0.8-1.2-3.3-1.2-6.1-1.7c-0.6-0.1,2.1-1.7,1.8-2c-1.4-1.3-4-3.2-4-3.2s0.5,0-2.9,0c-3.4,0-3.9-2.6-1.8-2.6s10.8,0,10.8,0
		c-3.6-3-1.9-5.7-1.3-5.6c0.6,0.2,0.7,0.8,1.9,2.2c1.9,2.4,4.2,1.4,5.8,5.5c0.7,2.1,1.4,3.7,1.4,3.7l0,0c2.2,2.4,8,9.4,14,16.8
		c6.9,8.4,8.2,5.7,10.5,5.1c2.2-0.7,18.3-15.3,18.3-15.3C96.1,134.5,91.5,148.8,91.5,148.8z"/>
	<path class="st19" d="M93.4,136.6c0,0.1,0,0.2,0,0.2c-0.1,1.4-1,5.8-1.7,10c-0.2,1.2-0.6,2-0.6,2S76,159.4,72.9,160
		c-3.1,0.7-5.2-0.4-8-3.6c-2.7-3.2-21.9-28.3-21.9-28.3c-0.6-0.7-2-0.8-3-1.1c-0.5-0.1-0.2-0.2-1.2-0.4c-2.7-0.4-4.2-5.2-4.2-5.2
		s0.5,0-2.9,0c-2.2,0-3.2-1.1-3.1-1.8c0,0.1,0.1,1,3.1,1c3.1,0,4.3,0,5.1,0s2.3,0.1,2.2,0.7c-0.1,0.6-1.4,4.3,1.9,4.3s3.2-1.2,3.8-1
		c0.6,0.2-0.4,1.4,0,2.4c0.5,1,18.6,23.3,21.9,26.6c3.3,3.2,6.6,3.9,10,1.9c3.1-1.8,5.1-10.1,4.2-15.1c3.2-2.7,6.4-5.6,8.6-7.5
		C91.4,133.7,93.5,135,93.4,136.6z"/>
	<path class="st31" d="M112.9,132c-1.4,3.4-7.1,6.8-11.8,12.7c-4.5,5.9-5.7,5.4-5.7,5.4c-0.2-1.7-4-8-7.3-11.3
		c-3.2-3.4-4.6-2.7-4.6-2.7c0.2-0.5,1-1,1-1c1.7-1,9-8.6,13.3-11c4.3-2.5,8.9-2.5,8.9-2.5C114.5,121.9,114.5,128.5,112.9,132z"/>
	<path class="st28" d="M108,71.4c0,0,7.6-1.7,7.1,5.9h0.7c0.4-8.6-8.1-6.7-8.1-6.7L108,71.4z"/>
	
		<ellipse transform="matrix(0.9958 -9.176154e-02 9.176154e-02 0.9958 -6.8761 9.7879)" class="st32" cx="103" cy="79.7" rx="6.3" ry="6.3"/>
	<path class="st32" d="M87.3,99.3l0.2,2.4c1.7-0.2,1.7-1.8,1.4-3.1c1,0.7,1.7,1.8,1.8,3.2c0.1,2.3-1.7,4.3-3.9,4.5
		c-2.3,0.1-4.3-1.7-4.5-3.9c-0.1-2,1.2-3.7,3-4.3l0,0l0,0c0.1,0,0.2-0.1,0.2-0.1C86.3,97.9,87.2,98.3,87.3,99.3z"/>
	<path class="st32" d="M113.3,97l0.2,2.4c-1.5,0-1.9-1.5-1.9-2.7c-0.8,0.8-1.4,2.1-1.2,3.4c0.2,2.3,2.3,4,4.6,3.7
		c2.3-0.2,4-2.3,3.7-4.6c-0.2-2-1.8-3.6-3.7-3.7l0,0l0,0c-0.1,0-0.2,0-0.2,0C114,95.5,113.2,96.1,113.3,97z"/>
	<path class="st32" d="M104.7,108.1c2.7,0.6,5.5,1.9,6.7,3c0.2,2.3,1,7.1,1.2,8.8c0.2,3.7-2,6.4-5.4,6.7c-0.2,0-0.2,0-0.5,0
		c-0.2,0.1-0.2,0.1-0.5,0.1c-3.4,0.2-6.2-2-6.5-5.6c-0.2-1.7-1-6.5-1.2-8.8C99.7,110.8,102.2,109,104.7,108.1z"/>
	<path class="st20" d="M113.3,89l1.2,13c0.7,7.8-5.1,14.9-13,15.6l0,0c-7.8,0.7-14.9-5.1-15.6-13l-1.2-13c-0.7-7.8,5.1-14.9,13-15.6
		l0,0C105.5,75.3,112.6,81.2,113.3,89z"/>
	<path class="st21" d="M109.6,94.5c-0.5-4.2-2.4-4.8-4.2-4.8c-1.7,0-10.5,0.7-14,1c-3.4,0.2-3.6,2.2-3.6,2.2l-0.6-5.1l16.3-3.2
		l-4.5-8.6c7.3,0,13.5,5.6,14.2,13l1.2,13c0.7,7.4-4.5,14-11.5,15.4C113,114.5,110.1,98.7,109.6,94.5z"/>
	<path class="st27" d="M95.4,107.5c0-0.4,0.2-0.7,0.6-0.6l5.9-0.2c0.4,0,0.7,0.2,0.7,0.6l0,0c0.1,1.9-1.4,3.7-3.4,3.7
		C97.3,111,95.6,109.5,95.4,107.5L95.4,107.5z"/>
	<path class="st27" d="M99.1,108.9c1,0,1.8,0.5,2.1,1.2c-0.6,0.4-1.2,0.7-1.9,0.7c-0.8,0.1-1.7-0.2-2.3-0.7
		C97.3,109.5,98.2,109,99.1,108.9z"/>
	<path class="st27" d="M102,107.6c-0.2,0.2-4.3,0.6-4.8,0.5c-0.4-0.1-0.7-0.7-0.7-1.3l5.6-0.2C102.2,106.9,102.2,107.5,102,107.6z"
		/>
	<path class="st28" d="M92.9,97.7c0.2,0.2,0.6,0.1,0.7-0.2c0.2-0.2,0.1-0.6-0.2-0.7c-1.3-0.7-3.1-0.4-4.3,0.4
		c-0.2,0.1-0.4,0.5-0.2,0.7c0.1,0.2,0.5,0.4,0.7,0.2C90.6,97.5,91.9,97.2,92.9,97.7z"/>
	<path class="st28" d="M107.7,101.3c0.2,0,0.5-0.2,0.5-0.5c0.1,0,0.2,0,0.5,0c0.1,0,0.1-0.1,0.1-0.2s-0.1-0.1-0.2-0.1
		c-0.2,0.1-0.4,0-0.5,0l0,0c0.1,0,0.2,0,0.5-0.1c0.1,0,0.1-0.1,0.1-0.2s-0.1-0.1-0.2-0.1c-0.2,0.1-0.4,0.1-0.5,0.1l0,0
		c0.1,0,0.2-0.1,0.4-0.2c0.1,0,0.1-0.1,0-0.2c0-0.1-0.1-0.1-0.2,0c-0.1,0.1-0.2,0.1-0.2,0.1c-0.1-0.2-0.2-0.5-0.6-0.7
		c-0.4-0.4-1.1-0.6-1.7-0.5c-0.6,0.1-1.2,0.4-1.5,0.8c-0.4,0.4-0.6,1.1-0.5,1.7c0,0.2,0.2,0.5,0.6,0.5c0.2,0,0.5-0.2,0.5-0.6
		c0-0.4,0.1-0.7,0.2-1c0.2-0.2,0.5-0.5,0.8-0.5c0.4,0,0.7,0.1,1,0.2c0.2,0.2,0.5,0.5,0.5,0.8C107.2,101.3,107.6,101.4,107.7,101.3z"
		/>
	<path class="st28" d="M107.9,96.3c0.1-0.2,0-0.6-0.2-0.7c-1.3-0.6-3.1-0.5-4.3,0.4c-0.2,0.1-0.2,0.5-0.1,0.7
		c0.1,0.2,0.5,0.2,0.7,0.1c1-0.7,2.3-0.7,3.3-0.2C107.6,96.5,107.8,96.4,107.9,96.3z"/>
	<path class="st28" d="M85,98.4c0,0,0-0.1-0.6-6.1c-1.9-20.3,27.7-23.2,29.6-2.7c0.6,5.9,0.6,6.1,0.6,6.1s-0.4,0.5-0.2,1.9l0.2,2
		c-0.7,0.1-1.7-0.8-1.7-1.7c-0.1-0.8-0.2-1.8-0.2-1.8s-1.8-2.4-2.1-5.1c-0.2-2.7-1-4.2-3.2-4c-2.2,0.2-4.5,1.5-8.2,1.9
		s-6.1-0.6-8.4-0.4c-2.3,0.2-2.7,1.8-2.5,4.5c0.2,2.7-1.2,5.4-1.2,5.4s0.1,1,0.2,1.8c0.1,0.8-0.7,1.9-1.3,2l-0.2-2
		C85.3,98.8,85,98.4,85,98.4z"/>
	<path class="st33" d="M87.8,90.5c-1.4-0.8-2.5-1.7-3.2-2.7c2.3-14,21.9-16.4,27.8-4c-0.7,3.1-3.2,3.7-3.2,3.7l0,0
		c-0.5-0.4-1.2-0.6-2-0.5c-2.3,0.2-4.5,1.5-8.2,1.9c-3.7,0.4-6.1-0.6-8.4-0.4c-1.5,0.1-2.2,0.8-2.5,2.1
		C87.9,90.5,87.7,90.5,87.8,90.5z"/>
	<path class="st34" d="M94.7,86.1c-3.7-0.2-6.8-1.1-9.4-2.1c0.7-1.5,1.7-3,2.7-4.2c1.5,2.4,4.5,4.5,10.5,4.2
		c6.8-0.4,9.5-2.7,10.5-4.8c0.2,0.2,0.6,0.6,0.8,0.8C108.5,83.7,103.2,86.5,94.7,86.1z"/>
	<path class="st28" d="M90,103.1c-0.2,0-0.5-0.1-0.6-0.4c-0.1,0.1-0.2,0.1-0.5,0.1c0,0-0.1-0.1-0.1-0.2c0,0,0.1-0.1,0.2-0.1
		c0.2,0,0.4,0,0.5-0.1l0,0c-0.1,0.1-0.2,0.1-0.5,0c-0.1,0-0.1-0.1-0.1-0.2c0-0.1,0.1-0.1,0.2-0.1c0.2,0.1,0.4,0,0.5,0l0,0
		c-0.1,0-0.2,0-0.4-0.1c0,0,0-0.1,0-0.2c0,0,0.1,0,0.2,0c0.1,0,0.2,0,0.2,0c0.1-0.2,0.2-0.5,0.5-0.7c0.4-0.5,1-0.7,1.5-0.8
		c0.5-0.1,1.2,0.1,1.7,0.5s0.7,1,0.8,1.5c0,0.2-0.2,0.6-0.5,0.6c-0.2,0-0.6-0.2-0.6-0.5c-0.1-0.4-0.2-0.7-0.5-0.8
		c-0.2-0.2-0.6-0.2-1-0.2c-0.4,0.1-0.7,0.2-0.8,0.5c-0.2,0.2-0.2,0.6-0.2,1C90.5,102.8,90.3,103.1,90,103.1z"/>
	<path class="st35" d="M100.5,120.1c-1.5,1.2-11.4,13.2-12.7,15s-6.1,10-5.2,13.6c0.7,3.7,6.1,24.4,6.1,24.4c11.3,1.9,22.4,0,22.4,0
		c-0.6-11.7,6.3-23.5,6.9-27.7c0.6-4.2,2.2-15.2,1.4-17.6c-0.7-2.4-4.7-8.4-7.5-9.6C109.1,117.2,104.1,117.3,100.5,120.1z"/>
	<path class="st36" d="M111.4,151.5c-1.1-1.7-1.2-3.2-0.8-6.9c0.2-3.7,2.6-17.4,2.6-17.4l-19.6,13.6c0,0-4.2,7.8-6.1,8.4
		c-2,0.6-4.8-0.5-4.8-0.5c0.7,3.7,6.1,24.4,6.1,24.4c11.3,1.9,22.4,0,22.4,0c-0.4-6.6,1.7-13.3,3.7-18.6
		C113.1,153.4,111.6,152.2,111.4,151.5z"/>
	<path class="st29" d="M105.2,145.9c0.7,0.1,2.7,1.8,2.7,2c0.2,0.2,0.2,1.8-0.1,2c-0.2,0.2-2.1,0.8-3.4,0.5
		c-1.2-0.4-9.8-2.9-11.9-3.7c-2.1-0.8-2.7-2-2.7-2c0.2-0.8,1.1-1.3,1.1-1.3S104.5,145.8,105.2,145.9z"/>
	<path class="st31" d="M88.5,173.2h22.3c0,0,0.5,0.1,0.6,0.2c0.1,0.1,0.7,2.4,0.7,2.7c0,0.2,0,0.7,0,0.7c-9.4,3-23.9,0.7-23.9,0.7
		s-0.5-0.4-0.5-1c0-0.6,0.1-2.5,0.2-3c0.2-0.5,0.6-0.6,0.6-0.6L88.5,173.2L88.5,173.2z"/>
	<path class="st20" d="M105.9,144.1l-0.2,4.4c0,0-8.6,23.4-12.5,29.7c-3.8,6.2-11.7,15.5-11.7,15.5l0,0c-2,2.1-4.4,4.5-7.5,7.1
		c-2.7,2.4-5.6,4.8-8.3,7.1l0,0c0,0,7.8-15.1,10.9-21.5s12-31.3,13-34.5c1-3.2,2.6-9.9,2.6-9.9L105.9,144.1z"/>
	<path class="st21" d="M99.1,152.1c0.8-4.9-1.7-8.1-3.2-9.4L106,144l-0.2,4.4c0,0-8.6,23.4-12.5,29.7c-3.8,6.2-11.7,15.5-11.7,15.5
		l0,0c-2,2.1-4.4,4.5-7.5,7.1c-2.7,2.4-5.6,4.8-8.3,7.1l0,0c0,0,2.7-5.4,5.6-11.1C91,186.4,97.9,158.5,99.1,152.1z"/>
	<path class="st31" d="M112.7,125.7c0.7,3.6-2.3,9.4-2.9,16.6s-1.9,7.5-1.9,7.5c-1.1-1.2-7.8-4.4-12.5-5.5c-4.7-1.1-5.5,0.2-5.5,0.2
		c-0.1-0.4,0.2-1.2,0.2-1.2c0.7-1.7,2.9-11.7,5.1-15.9c2.3-4.2,6.2-6.7,6.2-6.7C108.6,116.7,112.1,122.2,112.7,125.7z"/>
	<path class="st37" d="M102.9,142.5c2.7-5.8,5.5-11,6.4-16.8c0.7-5-1.2-6.1-1.7-6.2c3,0.8,4.6,3.9,5.1,6.2c0.7,3.6-2.3,9.4-2.9,16.6
		c-0.6,7.3-1.9,7.5-1.9,7.5c-0.8-1-5.6-3.3-9.9-4.7C100.4,144.9,102.3,144.1,102.9,142.5z"/>
	<path class="st19" d="M34.9,122.9c0.2,0.7,1.3,0.7,3.2,0.6c1.9-0.2,1.9-0.8,1.7-1.7c-0.2-0.8-1.2-0.7-4.6-0.4
		C34.7,121.3,34.7,122.2,34.9,122.9z"/>
	<path class="st30" d="M34.9,122.9L34.9,122.9c0.6,0.2,1.1,0.2,2.6,0c1.8-0.2,1.9-1.8,1.1-1.8c-0.7,0.1-1.7,0.2-3.2,0.2
		C34.7,121.3,34.7,122.2,34.9,122.9z"/>
	<path class="st19" d="M35.6,124.8c0.2,0.7,1.3,0.7,3.2,0.6c1.9-0.2,1.9-0.8,1.7-1.7c-0.2-0.8-1.2-0.7-4.6-0.4
		C35.5,123.3,35.4,124.1,35.6,124.8z"/>
	<path class="st19" d="M36.6,126.9c0.2,0.7,1.3,0.7,3.2,0.6s1.9-0.8,1.7-1.7c-0.2-0.8-1.2-0.7-4.6-0.4
		C36.6,125.3,36.5,126.1,36.6,126.9z"/>
	<path class="st30" d="M35.6,124.8L35.6,124.8c0.6,0.2,1.1,0.2,2.6,0c1.9-0.2,1.7-1.8,1.2-1.8c-0.7,0-1.8,0.2-3.4,0.2
		C35.5,123.3,35.4,124.1,35.6,124.8z"/>
	<path class="st30" d="M36.6,126.9L36.6,126.9c0.6,0.2,1.1,0.2,2.6,0c1.5-0.2,2-1.8,1-1.8c-0.7,0.1-1.7,0.2-3.2,0.2
		C36.6,125.3,36.5,126.1,36.6,126.9z"/>
</g>
<g>
	<g>
		<g class="st38">
			<g>
				<path class="st39" d="M52,40.9l-1.4,0.8l0,0c-0.2,0.2-0.7,0.1-0.8-0.2c-0.2-0.2-0.1-0.7,0.2-0.8l1.4-0.9
					c0.3-0.2,0.7-0.1,0.8,0.2C52.5,40.3,52.4,40.7,52,40.9L52,40.9L52,40.9z"/>
				<path class="st39" d="M48.7,43.2c-0.8,0.7-1.7,1.3-2.5,2.1c-0.2,0.2-0.7,0.2-0.8-0.1c-0.2-0.2-0.2-0.7,0-0.8
					c0.8-0.7,1.7-1.5,2.6-2.2c0.2-0.2,0.7-0.2,0.8,0.1C49.1,42.5,49,42.9,48.7,43.2L48.7,43.2z"/>
				<path class="st39" d="M44.4,46.9c-0.7,0.7-1.5,1.6-2.2,2.4c-0.2,0.2-0.6,0.2-0.8,0.1c-0.2-0.2-0.2-0.6-0.1-0.8
					c0.7-0.8,1.5-1.7,2.2-2.5c0.2-0.2,0.6-0.2,0.8,0C44.7,46.3,44.7,46.7,44.4,46.9L44.4,46.9z"/>
				<path class="st39" d="M40.7,51.2c-0.7,0.8-1.3,1.7-1.9,2.7c-0.2,0.2-0.5,0.3-0.7,0.2c-0.2-0.2-0.3-0.5-0.2-0.7
					c0.6-0.9,1.2-1.8,1.9-2.7c0.2-0.2,0.6-0.3,0.8-0.1C40.8,50.7,40.9,51,40.7,51.2L40.7,51.2z"/>
				<path class="st39" d="M37.5,56c-0.6,0.9-1.1,1.9-1.5,2.9c-0.2,0.2-0.5,0.4-0.7,0.2C35,59,34.8,58.7,35,58.4c0.5-1,1-2,1.5-3
					c0.2-0.2,0.5-0.3,0.7-0.2C37.6,55.3,37.7,55.7,37.5,56L37.5,56z"/>
				<path class="st39" d="M35.1,61.1c-0.4,1-0.7,2.1-1,3.1c-0.1,0.2-0.3,0.4-0.7,0.4C33.2,64.5,33,64.3,33,64c0.2-1.1,0.7-2.2,1-3.2
					c0.1-0.2,0.4-0.4,0.7-0.3C34.9,60.5,35.2,60.8,35.1,61.1L35.1,61.1z"/>
				<path class="st39" d="M33.5,66.5c-0.2,1.1-0.2,2.2-0.3,3.2c0,0.2-0.2,0.5-0.5,0.5c-0.2,0-0.5-0.2-0.5-0.5c0-1.2,0.1-2.2,0.3-3.3
					c0.1-0.2,0.3-0.5,0.6-0.4S33.6,66.3,33.5,66.5L33.5,66.5z"/>
				<path class="st39" d="M33.4,72.2c0.1,1.1,0.3,2.1,0.7,3.2c0.1,0.2-0.1,0.6-0.3,0.7c-0.2,0.1-0.6-0.1-0.7-0.3
					c-0.3-1.1-0.6-2.2-0.7-3.3c0-0.2,0.2-0.5,0.4-0.6C33,71.7,33.3,71.8,33.4,72.2L33.4,72.2z"/>
				<path class="st39" d="M34.8,77.5c0.5,1,1.1,1.8,1.7,2.7c0.2,0.2,0.2,0.5-0.1,0.7c-0.2,0.2-0.5,0.2-0.7-0.1
					C35.2,79.9,34.5,79,34,78c-0.1-0.2,0-0.6,0.2-0.7C34.5,77.2,34.8,77.2,34.8,77.5L34.8,77.5z"/>
				<path class="st39" d="M38.2,82c0.7,0.7,1.6,1.4,2.5,2c0.2,0.2,0.2,0.4,0.1,0.7c-0.2,0.2-0.4,0.2-0.7,0.1
					c-0.9-0.7-1.8-1.3-2.7-2.1c-0.2-0.2-0.2-0.5,0-0.7C37.7,81.8,38,81.8,38.2,82L38.2,82z"/>
				<path class="st39" d="M42.7,85.3c0.9,0.5,1.9,1,2.9,1.4c0.2,0.1,0.3,0.3,0.2,0.6c-0.1,0.2-0.3,0.3-0.6,0.2
					c-1.1-0.4-2.1-0.9-3.1-1.4c-0.2-0.1-0.3-0.4-0.2-0.7C42.2,85.3,42.6,85.2,42.7,85.3L42.7,85.3z"/>
				<path class="st39" d="M48,87.5c1.1,0.3,2.1,0.6,3.2,0.7c0.2,0,0.4,0.2,0.3,0.5c0,0.2-0.2,0.4-0.5,0.3c-1.1-0.2-2.2-0.4-3.2-0.7
					c-0.2-0.1-0.3-0.3-0.3-0.6C47.6,87.5,47.7,87.5,48,87.5L48,87.5z"/>
				<path class="st39" d="M53.6,88.5c1.1,0.1,2.2,0.1,3.2,0c0.2,0,0.4,0.2,0.4,0.4s-0.2,0.4-0.4,0.4c-1.1,0.1-2.2,0.1-3.3,0
					c-0.2,0-0.4-0.2-0.4-0.4C53.1,88.6,53.4,88.5,53.6,88.5L53.6,88.5z"/>
				<path class="st39" d="M59.3,88.2c1.1-0.2,2.2-0.4,3.2-0.7c0.2-0.1,0.4,0.1,0.5,0.2c0.1,0.2-0.1,0.4-0.2,0.5
					c-1.1,0.3-2.2,0.6-3.2,0.7c-0.2,0-0.4-0.1-0.5-0.3C58.9,88.5,59,88.3,59.3,88.2L59.3,88.2z"/>
				<path class="st39" d="M64.8,86.7c1-0.4,2-0.9,2.9-1.4c0.2-0.1,0.4-0.1,0.5,0.2c0.1,0.2,0.1,0.4-0.2,0.5c-1,0.6-2,1.1-3,1.5
					c-0.2,0.1-0.4,0-0.5-0.2C64.4,87,64.5,86.8,64.8,86.7L64.8,86.7z"/>
				<path class="st39" d="M69.6,83.9c0.8-0.7,1.6-1.5,2.1-2.4c0.1-0.2,0.3-0.2,0.5-0.1c0.2,0.1,0.2,0.3,0.1,0.5
					c-0.6,1-1.4,1.8-2.2,2.6c-0.2,0.2-0.4,0.1-0.5,0C69.4,84.2,69.4,84,69.6,83.9L69.6,83.9z"/>
				<path class="st39" d="M72.6,79.3c0.2-1,0.3-2.1,0.2-3.2c0-0.2,0.1-0.3,0.3-0.4c0.2,0,0.3,0.1,0.4,0.3c0.2,1.2,0.1,2.3-0.2,3.4
					c-0.1,0.2-0.2,0.3-0.4,0.2C72.7,79.7,72.6,79.5,72.6,79.3L72.6,79.3z"/>
				<path class="st39" d="M72.3,73.8c-0.3-1-0.9-1.9-1.6-2.7c-0.1-0.2-0.1-0.3,0-0.5c0.2-0.1,0.3-0.1,0.5,0c0.7,0.8,1.3,1.8,1.7,2.9
					l0,0c0.1,0.2,0,0.3-0.2,0.4C72.6,74.1,72.3,74,72.3,73.8L72.3,73.8z"/>
				<path class="st39" d="M68.8,69.7c-0.9-0.5-1.9-0.8-3-1.1c-0.2,0-0.2-0.2-0.2-0.3c0-0.2,0.2-0.2,0.3-0.2c1.1,0.2,2.2,0.6,3.2,1.1
					c0.2,0.1,0.2,0.2,0.2,0.4C69.2,69.7,69,69.8,68.8,69.7L68.8,69.7z"/>
				<path class="st39" d="M63.4,68.4c-1.1,0-2.2,0.1-3.2,0.3c-0.2,0-0.3-0.1-0.3-0.2s0.1-0.3,0.2-0.3c1.1-0.2,2.2-0.3,3.3-0.3
					c0.2,0,0.3,0.2,0.3,0.3C63.8,68.3,63.6,68.4,63.4,68.4L63.4,68.4z"/>
				<path class="st39" d="M57.9,69.4c-1.1,0.3-2.1,0.7-3.1,1.2c-0.2,0.1-0.3,0-0.3-0.2c-0.1-0.2,0-0.3,0.2-0.3
					c1-0.5,2.1-0.8,3.2-1.2c0.2-0.1,0.3,0,0.3,0.2C58,69.1,57.9,69.3,57.9,69.4L57.9,69.4z"/>
				<path class="st39" d="M52.5,71.6c-0.9,0.5-1.9,1.1-2.7,1.7c-0.1,0.1-0.2,0.1-0.3-0.1c-0.1-0.1-0.1-0.2,0.1-0.3
					c0.9-0.7,1.8-1.2,2.8-1.7c0.2-0.1,0.3,0,0.3,0.1C52.7,71.3,52.7,71.5,52.5,71.6L52.5,71.6z"/>
				<path class="st39" d="M47.8,74.8c-0.8,0.7-1.7,1.4-2.4,2.2c-0.1,0.1-0.2,0.1-0.3,0c-0.1-0.1-0.1-0.2,0-0.3
					c0.7-0.8,1.6-1.6,2.4-2.2c0.1-0.1,0.2-0.1,0.3,0C48,74.6,48,74.7,47.8,74.8L47.8,74.8z"/>
				<path class="st39" d="M43.8,78.8c-0.7,0.8-1.3,1.7-1.9,2.7c-0.1,0.1-0.2,0.2-0.3,0.1c-0.1-0.1-0.2-0.2-0.1-0.3
					c0.6-0.9,1.2-1.8,2-2.7c0.1-0.1,0.2-0.1,0.3,0C43.9,78.7,43.9,78.7,43.8,78.8L43.8,78.8z"/>
				<path class="st39" d="M40.6,83.6c-0.5,1-1,2-1.4,3c-0.1,0.1-0.2,0.2-0.2,0.1c-0.1-0.1-0.2-0.2-0.1-0.2c0.4-1,0.8-2.1,1.4-3
					c0.1-0.1,0.2-0.2,0.3-0.1C40.7,83.4,40.7,83.5,40.6,83.6L40.6,83.6z"/>
				<path class="st39" d="M38.4,88.9c-0.3,1.1-0.6,2.1-0.7,3.2c0,0.1-0.1,0.2-0.2,0.2c-0.1,0-0.2-0.1-0.2-0.2
					c0.2-1.1,0.4-2.2,0.7-3.2c0-0.1,0.2-0.2,0.2-0.2C38.3,88.6,38.4,88.8,38.4,88.9L38.4,88.9z"/>
				<path class="st39" d="M37.4,94.5c-0.1,1.1-0.1,2.2,0,3.2c0,0.1-0.1,0.2-0.2,0.2c-0.1,0-0.2-0.1-0.2-0.2c-0.1-1.1-0.1-2.2,0-3.3
					c0-0.1,0.1-0.2,0.2-0.2S37.4,94.4,37.4,94.5L37.4,94.5z"/>
				<path class="st39" d="M37.6,100.2c0.2,1.1,0.3,2.2,0.6,3.2c0,0.1,0,0.2-0.1,0.2s-0.2,0-0.2-0.1c-0.2-1.1-0.5-2.2-0.7-3.2
					c0-0.1,0.1-0.2,0.2-0.2C37.5,100.2,37.6,100.2,37.6,100.2L37.6,100.2z"/>
				<path class="st39" d="M38.9,105.8c0.3,1.1,0.7,2.1,1.2,3.1c0,0.1,0,0.2-0.1,0.2s-0.2,0-0.2-0.1c-0.5-1-0.9-2-1.2-3.1
					c0-0.1,0-0.2,0.1-0.2S38.8,105.7,38.9,105.8L38.9,105.8z"/>
				<path class="st39" d="M41.3,111c0.6,0.9,1.2,1.7,2,2.6c0.1,0.1,0.1,0.2,0,0.2c-0.1,0.1-0.2,0.1-0.2,0c-0.7-0.8-1.5-1.7-2.1-2.6
					c0-0.1,0-0.2,0-0.2S41.2,111,41.3,111L41.3,111z"/>
				<path class="st39" d="M45.1,115.3c0.8,0.7,1.7,1.3,2.7,1.9c0.1,0,0.1,0.1,0,0.2c0,0.1-0.1,0.1-0.2,0c-1-0.6-1.9-1.2-2.7-1.9
					c-0.1,0-0.1-0.1,0-0.2C45,115.3,45.1,115.3,45.1,115.3L45.1,115.3z"/>
				<path class="st39" d="M50,118.3c1,0.4,2,0.8,3.1,1.2c0.1,0,0.1,0.1,0.1,0.1c0,0.1-0.1,0.1-0.1,0.1c-1.1-0.3-2.1-0.7-3.1-1.2
					C49.9,118.4,49.9,118.4,50,118.3C49.9,118.2,50,118.3,50,118.3L50,118.3z"/>
				<path class="st39" d="M55.4,120.1c1.1,0.2,2.2,0.4,3.2,0.6c0,0,0.1,0,0.1,0.1c0,0,0,0.1-0.1,0.1c-1.1-0.2-2.2-0.3-3.2-0.6
					C55.4,120.3,55.4,120.2,55.4,120.1C55.4,120.1,55.4,120.1,55.4,120.1L55.4,120.1z"/>
				<path class="st39" d="M61.2,120.9c1.1,0.1,2.2,0.2,3.3,0.2c0,0,0.1,0,0.1,0.1c0,0,0,0.1-0.1,0.1c-1.1,0-2.2-0.1-3.3-0.1
					C61.1,121,61.1,121,61.2,120.9C61.1,120.9,61.1,120.9,61.2,120.9L61.2,120.9z"/>
				<path class="st39" d="M66.9,121l3.3-0.2l0,0l0,0L66.9,121C66.9,121.1,66.9,121.1,66.9,121L66.9,121L66.9,121z"/>
				<path class="st39" d="M72.7,120.6l3.2-0.5l0,0l0,0L72.7,120.6C72.7,120.6,72.6,120.6,72.7,120.6
					C72.6,120.6,72.7,120.6,72.7,120.6L72.7,120.6z"/>
				<polygon class="st39" points="78.4,119.6 80,119.3 78.4,119.6 78.4,119.6 				"/>
			</g>
		</g>
		<g>
			<path class="st39" d="M61.1,15.4c0.1-0.2-10.5,6.3-10.5,6.3l2.7,17.7l5.1-13.3l13.6-2.6L91.5,5.3L61.1,15.4z"/>
			<polygon class="st40" points="91.5,5.3 53.4,39.4 58.5,26.2 			"/>
			<polygon class="st41" points="91.5,5.3 41.1,16 50.6,21.7 91.5,5.3 58.5,26.2 74.8,36.2 			"/>
		</g>
	</g>
</g>
<g>
	<g>
		
			<ellipse transform="matrix(0.9192 -0.3939 0.3939 0.9192 -21.1534 122.716)" class="st42" cx="288.4" cy="112.9" rx="6.3" ry="6.3"/>
		<polyline class="st43" points="285.9,114.3 289.1,115.5 290.5,110.1 		"/>
	</g>
	<circle class="st42" cx="318.6" cy="123.4" r="1.5"/>
	<circle class="st42" cx="335.7" cy="181.9" r="2.4"/>
	<circle class="st44" cx="313.6" cy="156.7" r="3.7"/>
	<circle class="st44" cx="313.6" cy="89" r="3.7"/>
	<circle class="st45" cx="345.5" cy="237.1" r="2.4"/>
	<g>
		<g>
			<g>
				<path class="st42" d="M330.7,223.6c-0.2,0-0.5-0.2-0.5-0.5v-3.4c0-0.2,0.2-0.5,0.5-0.5c0.2,0,0.5,0.2,0.5,0.5v3.4
					C331.2,223.4,331,223.6,330.7,223.6z"/>
			</g>
			<g>
				<path class="st42" d="M332.5,221.9h-3.4c-0.2,0-0.5-0.2-0.5-0.5c0-0.2,0.2-0.5,0.5-0.5h3.4c0.2,0,0.5,0.2,0.5,0.5
					C333,221.7,332.7,221.9,332.5,221.9z"/>
			</g>
		</g>
	</g>
	<g>
		<g>
			<g>
				<path class="st42" d="M286.1,155.1c-0.2,0-0.5-0.2-0.5-0.5v-3.4c0-0.2,0.2-0.5,0.5-0.5c0.2,0,0.5,0.2,0.5,0.5v3.4
					C286.6,154.8,286.4,155.1,286.1,155.1z"/>
			</g>
			<g>
				<path class="st42" d="M287.9,153.3h-3.4c-0.2,0-0.5-0.2-0.5-0.5s0.2-0.5,0.5-0.5h3.4c0.2,0,0.5,0.2,0.5,0.5
					C288.3,153.2,288.1,153.3,287.9,153.3z"/>
			</g>
		</g>
	</g>
</g>
</svg>
