<?xml version="1.0" encoding="utf-8"?>
<!-- Generator: Adobe Illustrator 21.0.0, SVG Export Plug-In . SVG Version: 6.00 Build 0)  -->
<svg version="1.1" id="Capa_1" xmlns="http://www.w3.org/2000/svg" xmlns:xlink="http://www.w3.org/1999/xlink" x="0px" y="0px"
	 viewBox="0 0 350 355.5" style="enable-background:new 0 0 350 355.5;" xml:space="preserve">
<style type="text/css">
	.st0{opacity:0.5;}
	.st1{opacity:0.43;fill:#DDD6FF;enable-background:new    ;}
	.st2{fill:#DDD6FF;}
	.st3{fill:#D6D4FF;}
	.st4{opacity:0.25;}
	.st5{fill:none;stroke:#FFFFFF;stroke-width:0.7496;stroke-linecap:round;stroke-linejoin:round;stroke-miterlimit:10;}
	.st6{fill:#BFB8F4;}
	.st7{fill:#7A49C9;}
	.st8{fill:#7324C8;}
	.st9{fill:#581E96;}
	.st10{fill:#837FE5;}
	.st11{fill:#F8F8FF;}
	.st12{fill:#FFC359;}
	.st13{opacity:0.15;}
	.st14{fill:none;stroke:#0964AF;stroke-width:3.0528;stroke-linecap:round;stroke-linejoin:round;stroke-miterlimit:10;}
	.st15{fill:#9999EF;}
	.st16{opacity:0.5;fill:#FFFFFF;enable-background:new    ;}
	.st17{opacity:0.3;}
	.st18{fill:#8989E8;}
	.st19{fill:#FFFFFF;}
	.st20{opacity:0.3;fill:#FFC359;enable-background:new    ;}
	.st21{opacity:0.3;fill:#FFFFFF;enable-background:new    ;}
	.st22{fill:none;stroke:#FFFFFF;stroke-width:1.0564;stroke-linecap:round;stroke-linejoin:round;stroke-miterlimit:10;}
	.st23{opacity:0.3;fill:#9999EF;enable-background:new    ;}
	.st24{opacity:0.2;fill:#9999EF;enable-background:new    ;}
	.st25{fill:#6786F4;}
	.st26{opacity:0.7;}
	.st27{fill:#C9C2FF;}
	.st28{fill:#F2F0FF;}
	.st29{fill:#C7DAFF;}
	.st30{fill:#7A72B3;}
	.st31{fill:#6354A1;}
	.st32{fill:#B4A7D0;}
	.st33{fill:#DCD7EB;}
	.st34{fill:#F0EEF6;}
	.st35{fill:#3461F3;}
	.st36{fill:#527FEF;}
	.st37{fill:#7EA8FC;}
	.st38{fill:#EA7764;}
	.st39{fill:#EE846A;}
	.st40{fill:#F4AD85;}
	.st41{fill:#F09373;}
	.st42{fill:#5B4B9B;}
	.st43{fill:#7064AA;}
	.st44{fill:#282A3A;}
	.st45{fill:#EF92A3;}
	.st46{fill:#F2A07D;}
	.st47{fill:#F3C4D2;}
	.st48{fill:#E8685B;}
	.st49{fill:#383B4C;}
	.st50{fill:#484857;}
	.st51{fill:#E85D96;}
	.st52{fill:#DD4586;}
	.st53{fill:#F3B4C3;}
</style>
<g class="st0">
	<path class="st1" d="M114.6,261.7v-31.8L93,253.5v39.2H79v-56.2h-3.5l-10.1-9.4l-10.1,9.4h-3.5v75.9H24l0,0H0.7v41.3h147.6v-92
		H114.6z M75.5,282H55.4v-2.1h20.1V282z M75.5,277.8H55.4v-2.1h20.1V277.8z M75.5,273.7H55.4v-2h20.1V273.7z M75.5,269.6H55.4v-2
		h20.1V269.6z M75.5,265.5H55.4v-2.1h20.1V265.5z M75.5,261.4H55.4v-2.1h20.1V261.4z M75.5,257.3H55.4v-2h20.1V257.3z M75.5,253.2
		H55.4v-2h20.1V253.2z M75.5,249.1H55.4v-2h20.1V249.1z M75.5,245H55.4v-2.1h20.1V245z M75.5,240.9H55.4v-2h20.1V240.9z
		 M111.8,340.9h-2.1v-101l2.1-2.3V340.9z"/>
	<path class="st1" d="M267,261.7v-31.8l-21.6,23.6v39.2h-13.9v-56.2h-3.5l-10.1-9.4l-10.1,9.4h-3.5v75.9h-27.8l0,0h-23.4v41.3h147.6
		v-92H267z M228,282h-20.1v-2.1H228V282z M228,277.8h-20.1v-2.1H228V277.8z M228,273.7h-20.1v-2H228V273.7z M228,269.6h-20.1v-2H228
		V269.6z M228,265.5h-20.1v-2.1H228V265.5z M228,261.4h-20.1v-2.1H228V261.4z M228,257.3h-20.1v-2H228V257.3z M228,253.2h-20.1v-2
		H228V253.2z M228,249.1h-20.1v-2H228V249.1z M228,245h-20.1v-2.1H228V245z M228,240.9h-20.1v-2H228V240.9z M264.2,340.9h-2.1v-101
		l2.1-2.3V340.9z"/>
	<path class="st2" d="M211.9,315.2v-71.9h-3.2V236h-25v7.2h-3.2v90.5h-23.5v-40.9h-34.2v53.7H106v-96.3H72.2v73.9h-3.9v-44.1h-6.1
		l-17-8.9v9h-3.7v54.4h-8.3V261h-8.3v-25.9h-1.1V261h-8.4V354H233v-38.7L211.9,315.2L211.9,315.2z M31.1,308.2H17.4v-1.6h13.8
		C31.1,306.6,31.1,308.2,31.1,308.2z M31.1,304.5H17.4v-1.6h13.8C31.1,302.9,31.1,304.5,31.1,304.5z M31.1,300.8H17.4v-1.6h13.8
		C31.1,299.2,31.1,300.8,31.1,300.8z M31.1,297.1H17.4v-1.6h13.8C31.1,295.5,31.1,297.1,31.1,297.1z M31.1,293.4H17.4v-1.6h13.8
		C31.1,291.8,31.1,293.4,31.1,293.4z M31.1,289.7H17.4v-1.6h13.8C31.1,288.1,31.1,289.7,31.1,289.7z M31.1,286H17.4v-1.6h13.8
		C31.1,284.4,31.1,286,31.1,286z M31.1,282.3H17.4v-1.6h13.8C31.1,280.7,31.1,282.3,31.1,282.3z M31.1,278.6H17.4V277h13.8
		C31.1,277,31.1,278.6,31.1,278.6z M31.1,274.9H17.4v-1.6h13.8C31.1,273.3,31.1,274.9,31.1,274.9z M31.1,271.2H17.4v-1.6h13.8
		C31.1,269.6,31.1,271.2,31.1,271.2z M31.1,267.5H17.4v-1.6h13.8C31.1,265.8,31.1,267.5,31.1,267.5z M31.1,263.7H17.4v-1.6h13.8
		C31.1,262.1,31.1,263.7,31.1,263.7z M79.5,285.8h-4.1v-4.1h4.1V285.8z M79.5,279h-4.1v-4.1h4.1V279z M79.5,272.1h-4.1V268h4.1
		V272.1z M79.5,265.3h-4.1v-4.1h4.1V265.3z M79.5,258.4h-4.1v-4.1h4.1V258.4z M87.3,285.8h-4.1v-4.1h4.1V285.8z M87.3,279h-4.1v-4.1
		h4.1V279z M87.3,272.1h-4.1V268h4.1V272.1z M87.3,265.3h-4.1v-4.1h4.1V265.3z M87.3,258.4h-4.1v-4.1h4.1V258.4z M95.1,285.8H91
		v-4.1h4.1V285.8z M95.1,279H91v-4.1h4.1V279z M95.1,272.1H91V268h4.1V272.1z M95.1,265.3H91v-4.1h4.1V265.3z M95.1,258.4H91v-4.1
		h4.1V258.4z M102.9,285.8h-4.1v-4.1h4.1V285.8z M102.9,279h-4.1v-4.1h4.1V279z M102.9,272.1h-4.1V268h4.1V272.1z M102.9,265.3h-4.1
		v-4.1h4.1V265.3z M215.1,349.1h-4.3v-4.3h4.3V349.1z M215.1,340.5h-4.3v-4.3h4.3V340.5z M215.1,332h-4.3v-4.3h4.3V332z
		 M215.1,323.4h-4.3v-4.3h4.3V323.4z M223.1,349.1h-4.3v-4.3h4.3V349.1z M223.1,340.5h-4.3v-4.3h4.3V340.5z M223.1,332h-4.3v-4.3
		h4.3V332z M223.1,323.4h-4.3v-4.3h4.3V323.4z M231,349.1h-4.3v-4.3h4.3V349.1z M231,340.5h-4.3v-4.3h4.3V340.5z M231,332h-4.3v-4.3
		h4.3V332z M231,323.4h-4.3v-4.3h4.3V323.4z"/>
	<path class="st2" d="M312.1,307.6v-64.3h-3.2V236h-25v7.2h-3.2v90.5h-23.5v-40.9h-34.2v53.7h-16.6v-96.3h-33.7v73.9h-3.9v-44.1
		h-6.1l-17.2-8.9v9h-3.7v54.4h-8.3V261h-8.4v-25.9h-1.1V261h-8.4V354h217.7v-46.3L312.1,307.6L312.1,307.6z M131.3,308.2h-13.9v-1.6
		h13.8L131.3,308.2L131.3,308.2z M131.3,304.5h-13.9v-1.6h13.8L131.3,304.5L131.3,304.5z M131.3,300.8h-13.9v-1.6h13.8L131.3,300.8
		L131.3,300.8z M131.3,297.1h-13.9v-1.6h13.8L131.3,297.1L131.3,297.1z M131.3,293.4h-13.9v-1.6h13.8L131.3,293.4L131.3,293.4z
		 M131.3,289.7h-13.9v-1.6h13.8L131.3,289.7L131.3,289.7z M131.3,286h-13.9v-1.6h13.8L131.3,286L131.3,286z M131.3,282.3h-13.9v-1.6
		h13.8L131.3,282.3L131.3,282.3z M131.3,278.6h-13.9V277h13.8L131.3,278.6L131.3,278.6z M131.3,274.9h-13.9v-1.6h13.8L131.3,274.9
		L131.3,274.9z M131.3,271.2h-13.9v-1.6h13.8L131.3,271.2L131.3,271.2z M131.3,267.5h-13.9v-1.6h13.8L131.3,267.5L131.3,267.5z
		 M131.3,263.7h-13.9v-1.6h13.8L131.3,263.7L131.3,263.7z M179.6,285.8h-4.1v-4.1h4.1V285.8z M179.6,279h-4.1v-4.1h4.1V279z
		 M179.6,272.1h-4.1V268h4.1V272.1z M179.6,265.3h-4.1v-4.1h4.1V265.3z M179.6,258.4h-4.1v-4.1h4.1V258.4z M187.5,285.8h-4.1v-4.1
		h4.1V285.8z M187.5,279h-4.1v-4.1h4.1V279z M187.5,272.1h-4.1V268h4.1V272.1z M187.5,265.3h-4.1v-4.1h4.1V265.3z M187.5,258.4h-4.1
		v-4.1h4.1V258.4z M195.3,285.8h-4.1v-4.1h4.1V285.8z M195.3,279h-4.1v-4.1h4.1V279z M195.3,272.1h-4.1V268h4.1V272.1z M195.3,265.3
		h-4.1v-4.1h4.1V265.3z M195.3,258.4h-4.1v-4.1h4.1V258.4z M203.1,285.8H199v-4.1h4.1V285.8z M203.1,279H199v-4.1h4.1V279z
		 M203.1,272.1H199V268h4.1V272.1z M203.1,265.3H199v-4.1h4.1V265.3z M317.4,337.8h-3.7v-3.7h3.7V337.8z M317.4,330.4h-3.7v-3.7h3.7
		V330.4z M317.4,323h-3.7v-3.7h3.7V323z M317.4,315.6h-3.7v-3.7h3.7V315.6z M324.2,337.8h-3.7v-3.7h3.7V337.8z M324.2,330.4h-3.7
		v-3.7h3.7V330.4z M324.2,323h-3.7v-3.7h3.7V323z M324.2,315.6h-3.7v-3.7h3.7V315.6z M331.1,337.8h-3.7v-3.7h3.7V337.8z
		 M331.1,330.4h-3.7v-3.7h3.7V330.4z M331.1,323h-3.7v-3.7h3.7V323z M331.1,315.6h-3.7v-3.7h3.7V315.6z"/>
	<rect x="333.2" y="321.3" class="st1" width="14.7" height="32.5"/>
</g>
<g>
	<g>
		<g>
			<path class="st3" d="M77.2,324.4c-1.8-2.9-3.6-5.9-3.9-9.2c-0.2-3.1-0.8-6.5-0.3-9.7c0.5-3.1,0.2-6.3-0.4-9.3
				c-2.2-9.6-6.1-8.5-7.7-7.7c-1.4,0.7-2.1,2.3-2.2,4.8c-0.1,2,1.4,11.5-1.7,10.1c-3.6-1.6-3.5-11.5-4.1-14.8
				c-0.9-4.9-2.9-10.2-6.8-13.6c-1.9-1.7-4.6-2.9-6.8-1.8c-1.4,0.6-2.2,2.1-2.7,3.5c-1.4,4.3,0.1,8.8,1.8,12.7
				c0.7,1.7,6.5,9.3,1.8,8.6c-1.1-0.2-10.6-7.5-11.5,0.2c-0.3,2.7,2.7,5.5,7.6,8.9c3,2.2,14.1,7.7,13.6,10.7c-0.6,3-6.7-1.8-6,3.8
				c0.4,3.1,4.5,5.3,7.3,6.5c1.3,0.6,2.7,0.8,4,1.4c1.5,0.7,3.4,2.6,2.3,4.4c-0.5,0.8-1.4,1.2-1.9,2c-0.5,0.8-0.3,1.9,0.2,2.7
				c0.5,0.8,1.3,1.4,2.1,1.9c5.2,3.1,11.8,3.6,17.7,2.4s11.5-4,16.8-7.1"/>
		</g>
		<g class="st4">
			<path class="st5" d="M46.3,278.3c0,0,6.5,32.5,26.4,52.7"/>
			<path class="st5" d="M37.5,299.8c0,0,11.1,8.5,20.2,9.7"/>
			<path class="st5" d="M66.6,292.5c0.6,5.2,1.2,19.4-3.6,26.3"/>
			<path class="st5" d="M52,322.6c0,0,4.3,3.7,17.8,5.2"/>
			<path class="st5" d="M62.2,336.9c0,0,6.9,1.1,13-2.5"/>
		</g>
	</g>
	<g>
		<path class="st6" d="M93.8,321.3c-0.7-3.9-7.8-28.3-20.4-21.8c-7.5,3.9-6.1,18,5.6,28.8c-2.3-2.2-4.9-4.8-8.1-5.3
			c-1.7-0.3-3.8,0.4-5,1.6c-1.1,1-1.4,2.7-1.5,4.2c-0.2,5.6,2.7,11.1,7.3,14.2c-2.6-1.4-4.8-3.2-7.7-3.5c-1-0.1-2.6,0.5-3,1.3
			c-0.5,0.9-0.5,4.4,5.2,7c-23.1-4.3-24.5,5.5-16.2,5.5s68.1,0,68.1,0"/>
	</g>
	<g>
		<path class="st6" d="M216.6,321.3c0.7-3.9,7.8-28.3,20.4-21.8c7.5,3.9,6.1,18-5.6,28.8c2.3-2.2,4.9-4.8,8.1-5.3
			c1.7-0.3,3.8,0.4,5,1.6c1.1,1,1.4,2.7,1.5,4.2c0.2,5.6-2.7,11.1-7.3,14.2c2.6-1.4,4.8-3.2,7.7-3.5c1-0.1,2.6,0.5,3,1.3
			c0.5,0.9,0.5,4.4-5.2,7c23.1-4.3,24.5,5.5,16.2,5.5s-54.9,0-54.9,0"/>
	</g>
	<g>
		<g>
			<path class="st3" d="M211.1,304.3c1.4-3.1,2.9-6.2,2.8-9.6c-0.1-3.1,0.1-6.6-0.8-9.6c-0.8-3-1-6.2-0.6-9.3c1-9.7,5.2-9.1,6.7-8.5
				s2.3,2,2.7,4.5c0.3,2-0.1,11.6,2.8,9.9c3.4-2,2.3-11.8,2.4-15.2c0.3-5,1.8-10.5,5.2-14.3c1.7-1.9,4.3-3.4,6.6-2.6
				c1.4,0.5,2.4,1.8,3.1,3.1c1.9,4.1,0.9,8.7-0.3,12.9c-0.6,1.8-5.4,10-0.8,8.8c1.1-0.3,9.7-8.6,11.4-1.1c0.6,2.7-2.1,5.7-6.5,9.7
				c-2.7,2.5-13.2,9.3-12.3,12.2c0.9,2.9,6.4-2.5,6.4,3.1c-0.1,3.1-3.9,5.8-6.5,7.2c-1.3,0.7-2.7,1.1-3.9,1.9
				c-1.4,0.9-3.1,3-1.8,4.6c0.6,0.7,1.6,1,2.2,1.8c0.6,0.7,0.6,1.9,0.1,2.7c-0.4,0.9-1.1,1.5-1.9,2.1c-4.8,3.7-11.3,4.9-17.3,4.3
				s-11.8-2.7-17.5-5.2"/>
		</g>
		<g class="st4">
			<path class="st5" d="M236.6,255.1c0,0-2.8,33-20.4,55.3"/>
			<path class="st5" d="M247.8,275.5c0,0-10.1,9.7-19,11.9"/>
			<path class="st5" d="M218,271.5c0,5.2,1,19.4,6.5,25.8"/>
			<path class="st5" d="M235.9,299.8c0,0-3.9,4.2-17.1,7.1"/>
			<path class="st5" d="M227.3,315.1c0,0-6.8,1.9-13.3-1"/>
		</g>
	</g>
</g>
<g>
	<g>
		<g>
			<path class="st7" d="M226.7,96.5v237c0,10.9-8.8,19.7-19.7,19.7h-97.2c-10.9,0-19.7-8.8-19.7-19.7v-237
				c0-10.9,8.8-19.7,19.7-19.7H207C217.9,76.9,226.7,85.7,226.7,96.5z"/>
			<path class="st8" d="M226.7,96.5v3.3H90.2v-3.3c0-10.9,8.8-19.7,19.7-19.7H207C217.9,76.9,226.7,85.7,226.7,96.5z"/>
			<path class="st8" d="M226.7,330.2v3.3c0,10.9-8.8,19.7-19.7,19.7h-97.1c-10.9,0-19.7-8.8-19.7-19.7v-3.3H226.7z"/>
			<path class="st9" d="M228.3,185.2h-1.6v-52.1h1.6c1.1,0,2.1,1,2.1,2.1v48C230.4,184.3,229.5,185.2,228.3,185.2z"/>
			<path class="st9" d="M90.2,157.6h-1.5c-1,0-1.9-0.9-1.9-1.9v-21.5c0-1,0.9-1.9,1.9-1.9h1.5V157.6z"/>
			<path class="st9" d="M90.2,185.2h-1.4c-1,0-1.7-0.7-1.7-1.7v-12.2c0-1,0.7-1.7,1.7-1.7h1.4V185.2z"/>
			<circle class="st10" cx="134.9" cy="88.3" r="3.9"/>
			<circle class="st10" cx="145.4" cy="88.3" r="1.9"/>
			<path class="st10" d="M186.6,90.7h-33.3c-0.7,0-1.3-0.6-1.3-1.3v-2.1c0-0.7,0.6-1.3,1.3-1.3h33.3c0.7,0,1.3,0.6,1.3,1.3v2.1
				C187.9,90.1,187.3,90.7,186.6,90.7z"/>
			<circle class="st10" cx="158.4" cy="342.1" r="7.5"/>
			<rect x="93.1" y="99.8" class="st11" width="129.4" height="230.4"/>
		</g>
		<g>
			<g>
				<rect x="96.8" y="107.1" class="st1" width="122.5" height="67.9"/>
				<g>
					<polygon class="st12" points="140.1,112.5 141.1,114.6 143.6,114.9 141.9,116.6 142.2,118.9 140.1,117.8 138,118.9 
						138.4,116.6 136.7,114.9 139.1,114.6 					"/>
					<polygon class="st12" points="150.3,112.5 151.4,114.6 153.8,114.9 152.1,116.6 152.4,118.9 150.3,117.8 148.2,118.9 
						148.6,116.6 146.9,114.9 149.3,114.6 					"/>
					<polygon class="st12" points="160.6,112.5 161.7,114.6 164,114.9 162.3,116.6 162.7,118.9 160.6,117.8 158.5,118.9 
						158.9,116.6 157.2,114.9 159.5,114.6 					"/>
					<polygon class="st12" points="170.9,112.5 171.9,114.6 174.3,114.9 172.6,116.6 173,118.9 170.9,117.8 168.7,118.9 
						169.1,116.6 167.4,114.9 169.7,114.6 					"/>
					<polygon class="st12" points="181.1,112.5 182.1,114.6 184.5,114.9 182.8,116.6 183.2,118.9 181.1,117.8 179,118.9 
						179.3,116.6 177.6,114.9 180.1,114.6 					"/>
					<g class="st13">
						<line class="st14" x1="214.8" y1="150.7" x2="203.2" y2="150.7"/>
						<line class="st14" x1="154.4" y1="142" x2="137.8" y2="142"/>
						<line class="st14" x1="214.8" y1="142" x2="161.6" y2="142"/>
						<line class="st14" x1="214.8" y1="133.3" x2="137.8" y2="133.3"/>
						<line class="st14" x1="165.6" y1="124.5" x2="137.8" y2="124.5"/>
						<line class="st14" x1="214.8" y1="124.5" x2="172.5" y2="124.5"/>
						<line class="st14" x1="196.2" y1="150.7" x2="137.8" y2="150.7"/>
					</g>
				</g>
			</g>
			<g>
				<rect x="101.6" y="117.1" class="st15" width="29.4" height="53.2"/>
				<g>
					<rect x="111.6" y="157.6" class="st16" width="9.1" height="12.8"/>
					<rect x="105.7" y="112.7" class="st15" width="21" height="3.7"/>
					<g class="st17">
						<rect x="117.3" y="141.3" class="st11" width="4.6" height="4.6"/>
						<rect x="124.2" y="141.3" class="st11" width="4.6" height="4.6"/>
						<rect x="103.6" y="148.5" class="st11" width="4.6" height="4.6"/>
						<rect x="110.5" y="148.5" class="st11" width="4.6" height="4.6"/>
						<rect x="117.3" y="148.5" class="st11" width="4.6" height="4.6"/>
						<rect x="124.2" y="148.5" class="st11" width="4.6" height="4.6"/>
						<rect x="103.6" y="120" class="st11" width="4.6" height="4.6"/>
						<rect x="110.5" y="120" class="st11" width="4.6" height="4.6"/>
						<rect x="117.3" y="120" class="st11" width="4.6" height="4.6"/>
						<rect x="124.2" y="120" class="st11" width="4.6" height="4.6"/>
						<rect x="103.6" y="127.1" class="st11" width="4.6" height="4.6"/>
						<rect x="110.5" y="127.1" class="st11" width="4.6" height="4.6"/>
						<rect x="117.3" y="127.1" class="st11" width="4.6" height="4.6"/>
						<rect x="124.2" y="127.1" class="st11" width="4.6" height="4.6"/>
						<rect x="103.6" y="134.2" class="st11" width="4.6" height="4.6"/>
						<rect x="110.5" y="134.2" class="st11" width="4.6" height="4.6"/>
						<rect x="117.3" y="134.2" class="st11" width="4.6" height="4.6"/>
						<rect x="124.2" y="134.2" class="st11" width="4.6" height="4.6"/>
						<rect x="103.6" y="141.3" class="st11" width="4.6" height="4.6"/>
						<rect x="110.5" y="141.3" class="st11" width="4.6" height="4.6"/>
					</g>
					<rect x="100.5" y="168.3" class="st18" width="31.3" height="2"/>
				</g>
			</g>
			<path class="st10" d="M169.2,170.3h-26.5c-3.3,0-6-2.7-6-6l0,0c0-3.3,2.7-6,6-6h26.5c3.3,0,6,2.7,6,6l0,0
				C175.1,167.7,172.5,170.3,169.2,170.3z"/>
			<g>
				<g>
					<path class="st19" d="M147.8,166.6c-0.8,0-1.3-0.5-1.4-1h0.1c0.1,0.3,0.3,0.9,1.2,0.9c0.7,0,1.1-0.4,1.1-1
						c0-1.4-2.4-0.6-2.4-2.2c0-0.6,0.5-1,1.2-1c0.8,0,1.1,0.5,1.3,0.9h-0.1c-0.1-0.3-0.4-0.8-1.1-0.8c-0.6,0-1.1,0.3-1.1,1
						c0,1.5,2.4,0.6,2.4,2.2C149,166,148.6,166.6,147.8,166.6z"/>
					<path class="st19" d="M152.5,164.4h-2.6v2.1h-0.1v-4.2h0.1v2L152.5,164.4v-2.1h0.1v4.2h-0.1V164.4z"/>
					<path class="st19" d="M155.5,166.6c-1.1,0-2-0.9-2-2.1c0-1.2,0.8-2.1,2-2.1c1.1,0,2,0.9,2,2.1
						C157.5,165.7,156.6,166.6,155.5,166.6z M155.5,166.5c1,0,1.9-0.8,1.9-2c0-1.2-0.8-2-1.9-2c-1,0-1.9,0.8-1.9,2
						C153.6,165.6,154.4,166.5,155.5,166.5z"/>
					<path class="st19" d="M159.4,164.7h-1v1.9h-0.1v-4.2h1c1,0,1.4,0.5,1.4,1.1C160.7,164.3,160.2,164.7,159.4,164.7z M159.4,164.5
						c0.9,0,1.2-0.4,1.2-1c0-0.6-0.3-1-1.2-1h-1v2L159.4,164.5L159.4,164.5z"/>
					<path class="st19" d="M164.3,162.3v4.2h-0.1l-2.6-3.9v3.9h-0.1v-4.2h0.1l2.6,3.9L164.3,162.3L164.3,162.3z"/>
					<path class="st19" d="M165.3,162.3L165.3,162.3l0.1,4.2h-0.1V162.3z"/>
					<path class="st19" d="M166.5,162.3v4.1h1.6v0.1h-1.7L166.5,162.3L166.5,162.3L166.5,162.3z"/>
				</g>
			</g>
		</g>
		<g>
			<g>
				<rect x="96.8" y="181.8" class="st1" width="122.5" height="67.9"/>
				<g>
					<polygon class="st12" points="140.1,187.2 141.1,189.3 143.6,189.6 141.9,191.3 142.2,193.6 140.1,192.5 138,193.6 
						138.4,191.3 136.7,189.6 139.1,189.3 					"/>
					<polygon class="st12" points="150.3,187.2 151.4,189.3 153.8,189.6 152.1,191.3 152.4,193.6 150.3,192.5 148.2,193.6 
						148.6,191.3 146.9,189.6 149.3,189.3 					"/>
					<polygon class="st12" points="160.6,187.2 161.7,189.3 164,189.6 162.3,191.3 162.7,193.6 160.6,192.5 158.5,193.6 
						158.9,191.3 157.2,189.6 159.5,189.3 					"/>
					<polygon class="st20" points="170.9,187.2 171.9,189.3 174.3,189.6 172.6,191.3 173,193.6 170.9,192.5 168.7,193.6 
						169.1,191.3 167.4,189.6 169.7,189.3 					"/>
					<polygon class="st20" points="181.1,187.2 182.1,189.3 184.5,189.6 182.8,191.3 183.2,193.6 181.1,192.5 179,193.6 
						179.3,191.3 177.6,189.6 180.1,189.3 					"/>
					<g class="st13">
						<line class="st14" x1="214.8" y1="225.4" x2="203.2" y2="225.4"/>
						<line class="st14" x1="154.4" y1="216.6" x2="137.8" y2="216.6"/>
						<line class="st14" x1="214.8" y1="216.6" x2="161.6" y2="216.6"/>
						<line class="st14" x1="214.8" y1="207.9" x2="137.8" y2="207.9"/>
						<line class="st14" x1="165.6" y1="199.2" x2="137.8" y2="199.2"/>
						<line class="st14" x1="214.8" y1="199.2" x2="172.5" y2="199.2"/>
						<line class="st14" x1="196.2" y1="225.4" x2="137.8" y2="225.4"/>
					</g>
				</g>
			</g>
			<g>
				<rect x="101.6" y="191.7" class="st15" width="29.4" height="53.2"/>
				<g>
					<rect x="111.6" y="232.3" class="st16" width="9.1" height="12.8"/>
					<rect x="105.7" y="187.5" class="st15" width="21" height="3.7"/>
					<g class="st17">
						<rect x="117.3" y="216.1" class="st11" width="4.6" height="4.6"/>
						<rect x="124.2" y="216.1" class="st11" width="4.6" height="4.6"/>
						<rect x="103.6" y="223.2" class="st11" width="4.6" height="4.6"/>
						<rect x="110.5" y="223.2" class="st11" width="4.6" height="4.6"/>
						<rect x="117.3" y="223.2" class="st11" width="4.6" height="4.6"/>
						<rect x="124.2" y="223.2" class="st11" width="4.6" height="4.6"/>
						<rect x="103.6" y="194.6" class="st11" width="4.6" height="4.6"/>
						<rect x="110.5" y="194.6" class="st11" width="4.6" height="4.6"/>
						<rect x="117.3" y="194.6" class="st11" width="4.6" height="4.6"/>
						<rect x="124.2" y="194.6" class="st11" width="4.6" height="4.6"/>
						<rect x="103.6" y="201.8" class="st11" width="4.6" height="4.6"/>
						<rect x="110.5" y="201.8" class="st11" width="4.6" height="4.6"/>
						<rect x="117.3" y="201.8" class="st11" width="4.6" height="4.6"/>
						<rect x="124.2" y="201.8" class="st11" width="4.6" height="4.6"/>
						<rect x="103.6" y="208.9" class="st11" width="4.6" height="4.6"/>
						<rect x="110.5" y="208.9" class="st11" width="4.6" height="4.6"/>
						<rect x="117.3" y="208.9" class="st11" width="4.6" height="4.6"/>
						<rect x="124.2" y="208.9" class="st11" width="4.6" height="4.6"/>
						<rect x="103.6" y="216.1" class="st11" width="4.6" height="4.6"/>
						<rect x="110.5" y="216.1" class="st11" width="4.6" height="4.6"/>
					</g>
					<rect x="100.5" y="243" class="st18" width="31.3" height="2"/>
				</g>
			</g>
			<path class="st10" d="M169.2,245.1h-26.5c-3.3,0-6-2.7-6-6l0,0c0-3.3,2.7-6,6-6h26.5c3.3,0,6,2.7,6,6l0,0
				C175.1,242.4,172.5,245.1,169.2,245.1z"/>
			<g>
				<g>
					<path class="st19" d="M148.6,241.3c-0.8,0-1.3-0.5-1.4-1h0.1c0.1,0.3,0.3,0.9,1.2,0.9c0.7,0,1.1-0.4,1.1-1
						c0-1.4-2.4-0.6-2.4-2.2c0-0.6,0.5-1,1.2-1c0.8,0,1.1,0.5,1.3,0.9h-0.1c-0.1-0.3-0.4-0.8-1.1-0.8c-0.6,0-1.1,0.3-1.1,1
						c0,1.5,2.4,0.6,2.4,2.2C149.8,240.8,149.4,241.3,148.6,241.3z"/>
					<path class="st19" d="M153.3,239.2h-2.6v2.1h-0.1v-4.2h0.1v2L153.3,239.2v-2.1h0.1v4.2h-0.1V239.2z"/>
					<path class="st19" d="M156.3,241.3c-1.1,0-2-0.9-2-2.1s0.8-2.1,2-2.1c1.1,0,2,0.9,2,2.1S157.4,241.3,156.3,241.3z M156.3,241.2
						c1,0,1.9-0.8,1.9-2c0-1.2-0.8-2-1.9-2c-1,0-1.9,0.8-1.9,2C154.4,240.4,155.2,241.2,156.3,241.2z"/>
					<path class="st19" d="M160.2,239.3h-1v1.9h-0.1V237h1c1,0,1.4,0.5,1.4,1.1C161.5,239,161,239.3,160.2,239.3z M160.2,239.3
						c0.9,0,1.2-0.4,1.2-1c0-0.6-0.3-1-1.2-1h-1v2L160.2,239.3L160.2,239.3z"/>
					<path class="st19" d="M165.1,237.1v4.2H165l-2.6-3.9v3.9h-0.1v-4.2h0.1l2.6,3.9L165.1,237.1L165.1,237.1z"/>
					<path class="st19" d="M166.1,237.1L166.1,237.1l0.1,4.2h-0.1V237.1z"/>
					<path class="st19" d="M167.3,237.1v4.1h1.6v0.1h-1.7L167.3,237.1L167.3,237.1z"/>
				</g>
			</g>
		</g>
		<g>
			<g>
				<rect x="96.8" y="256.5" class="st1" width="122.5" height="67.9"/>
				<g>
					<polygon class="st12" points="140.1,261.9 141.1,264 143.6,264.3 141.9,266 142.2,268.3 140.1,267.2 138,268.3 138.4,266 
						136.7,264.3 139.1,264 					"/>
					<polygon class="st12" points="150.3,261.9 151.4,264 153.8,264.3 152.1,266 152.4,268.3 150.3,267.2 148.2,268.3 148.6,266 
						146.9,264.3 149.3,264 					"/>
					<polygon class="st12" points="160.6,261.9 161.7,264 164,264.3 162.3,266 162.7,268.3 160.6,267.2 158.5,268.3 158.9,266 
						157.2,264.3 159.5,264 					"/>
					<polygon class="st12" points="170.9,261.9 171.9,264 174.3,264.3 172.6,266 173,268.3 170.9,267.2 168.7,268.3 169.1,266 
						167.4,264.3 169.7,264 					"/>
					<polygon class="st20" points="181.1,261.9 182.1,264 184.5,264.3 182.8,266 183.2,268.3 181.1,267.2 179,268.3 179.3,266 
						177.6,264.3 180.1,264 					"/>
					<g class="st13">
						<line class="st14" x1="214.8" y1="300.1" x2="203.2" y2="300.1"/>
						<line class="st14" x1="154.4" y1="291.4" x2="137.8" y2="291.4"/>
						<line class="st14" x1="214.8" y1="291.4" x2="161.6" y2="291.4"/>
						<line class="st14" x1="214.8" y1="282.7" x2="137.8" y2="282.7"/>
						<line class="st14" x1="165.6" y1="274" x2="137.8" y2="274"/>
						<line class="st14" x1="214.8" y1="274" x2="172.5" y2="274"/>
						<line class="st14" x1="196.2" y1="300.1" x2="137.8" y2="300.1"/>
					</g>
				</g>
			</g>
			<g>
				<rect x="101.6" y="266.5" class="st15" width="29.4" height="53.2"/>
				<g>
					<rect x="111.6" y="307" class="st16" width="9.1" height="12.8"/>
					<rect x="105.7" y="262.1" class="st15" width="21" height="3.7"/>
					<g class="st17">
						<rect x="117.3" y="290.7" class="st11" width="4.6" height="4.6"/>
						<rect x="124.2" y="290.7" class="st11" width="4.6" height="4.6"/>
						<rect x="103.6" y="297.9" class="st11" width="4.6" height="4.6"/>
						<rect x="110.5" y="297.9" class="st11" width="4.6" height="4.6"/>
						<rect x="117.3" y="297.9" class="st11" width="4.6" height="4.6"/>
						<rect x="124.2" y="297.9" class="st11" width="4.6" height="4.6"/>
						<rect x="103.6" y="269.4" class="st11" width="4.6" height="4.6"/>
						<rect x="110.5" y="269.4" class="st11" width="4.6" height="4.6"/>
						<rect x="117.3" y="269.4" class="st11" width="4.6" height="4.6"/>
						<rect x="124.2" y="269.4" class="st11" width="4.6" height="4.6"/>
						<rect x="103.6" y="276.5" class="st11" width="4.6" height="4.6"/>
						<rect x="110.5" y="276.5" class="st11" width="4.6" height="4.6"/>
						<rect x="117.3" y="276.5" class="st11" width="4.6" height="4.6"/>
						<rect x="124.2" y="276.5" class="st11" width="4.6" height="4.6"/>
						<rect x="103.6" y="283.6" class="st11" width="4.6" height="4.6"/>
						<rect x="110.5" y="283.6" class="st11" width="4.6" height="4.6"/>
						<rect x="117.3" y="283.6" class="st11" width="4.6" height="4.6"/>
						<rect x="124.2" y="283.6" class="st11" width="4.6" height="4.6"/>
						<rect x="103.6" y="290.7" class="st11" width="4.6" height="4.6"/>
						<rect x="110.5" y="290.7" class="st11" width="4.6" height="4.6"/>
					</g>
					<rect x="100.5" y="317.7" class="st18" width="31.3" height="2"/>
				</g>
			</g>
			<path class="st10" d="M169.2,319.8h-26.5c-3.3,0-6-2.7-6-6l0,0c0-3.3,2.7-6,6-6h26.5c3.3,0,6,2.7,6,6l0,0
				C175.1,317.1,172.5,319.8,169.2,319.8z"/>
			<g>
				<g>
					<path class="st19" d="M148.6,316c-0.8,0-1.3-0.5-1.4-1h0.1c0.1,0.3,0.3,0.9,1.2,0.9c0.7,0,1.1-0.4,1.1-1c0-1.4-2.4-0.6-2.4-2.2
						c0-0.6,0.5-1,1.2-1c0.8,0,1.1,0.5,1.3,0.9h-0.1c-0.1-0.3-0.4-0.8-1.1-0.8c-0.6,0-1.1,0.3-1.1,1c0,1.5,2.4,0.6,2.4,2.2
						C149.8,315.5,149.4,316,148.6,316z"/>
					<path class="st19" d="M153.3,313.8h-2.6v2.1h-0.1v-4.2h0.1v2L153.3,313.8v-2.1h0.1v4.2h-0.1V313.8z"/>
					<path class="st19" d="M156.3,316c-1.1,0-2-0.9-2-2.1s0.8-2.1,2-2.1c1.1,0,2,0.9,2,2.1S157.4,316,156.3,316z M156.3,315.9
						c1,0,1.9-0.8,1.9-2s-0.8-2-1.9-2c-1,0-1.9,0.8-1.9,2S155.2,315.9,156.3,315.9z"/>
					<path class="st19" d="M160.2,314.1h-1v1.9h-0.1v-4.2h1c1,0,1.4,0.5,1.4,1.1C161.5,313.7,161,314.1,160.2,314.1z M160.2,313.9
						c0.9,0,1.2-0.4,1.2-1c0-0.6-0.3-1-1.2-1h-1v2L160.2,313.9L160.2,313.9z"/>
					<path class="st19" d="M165.1,311.8v4.2H165l-2.6-3.9v3.9h-0.1v-4.2h0.1l2.6,3.9L165.1,311.8L165.1,311.8z"/>
					<path class="st19" d="M166.1,311.8L166.1,311.8l0.1,4.2h-0.1V311.8z"/>
					<path class="st19" d="M167.3,311.8v4.1h1.6v0.1h-1.7L167.3,311.8L167.3,311.8z"/>
				</g>
			</g>
		</g>
		<g>
			<polygon class="st21" points="178.8,99.8 93.1,231 93.1,157.9 131.1,99.8 			"/>
			<polygon class="st21" points="214.9,99.8 93.1,286.2 93.1,252.4 192.8,99.8 			"/>
			<polygon class="st21" points="222.6,176.1 222.6,209.9 144,330.2 122,330.2 			"/>
		</g>
	</g>
</g>
<path class="st6" d="M341,354H11.4c-0.2,0-0.4-0.2-0.4-0.4l0,0c0-0.2,0.2-0.4,0.4-0.4H341c0.2,0,0.4,0.2,0.4,0.4l0,0
	C341.4,353.9,341.2,354,341,354z"/>
<g>
	<g>
		<g>
			<ellipse transform="matrix(0.3703 -0.9289 0.9289 0.3703 36.3886 143.0795)" class="st15" cx="123.7" cy="44.7" rx="5" ry="5"/>
			<polyline class="st22" points="121.6,44.1 122.7,46.6 126.4,44.2 			"/>
		</g>
		<g>
			<ellipse transform="matrix(0.9503 -0.3114 0.3114 0.9503 -39.4895 21.166)" class="st15" cx="46.5" cy="134.2" rx="5" ry="5"/>
			<polyline class="st22" points="44.6,135.1 47,136.3 48.4,132.1 			"/>
		</g>
		<g>
			
				<ellipse transform="matrix(0.3249 -0.9458 0.9458 0.3249 -114.5665 210.1418)" class="st15" cx="89.9" cy="185.3" rx="5" ry="5"/>
			<polyline class="st22" points="87.8,184.8 89,187.2 92.6,184.7 			"/>
		</g>
		<circle class="st15" cx="53.6" cy="101.6" r="1.9"/>
		<circle class="st15" cx="315.4" cy="69.6" r="1.9"/>
		<circle class="st15" cx="175.9" cy="53.6" r="1.9"/>
		<circle class="st15" cx="76.3" cy="85.3" r="2.9"/>
		<circle class="st15" cx="298.8" cy="139.9" r="2.9"/>
		<circle class="st15" cx="38.9" cy="85.3" r="2.9"/>
		<circle class="st15" cx="23.6" cy="215.7" r="2.9"/>
		<circle class="st23" cx="60.5" cy="173.7" r="2.9"/>
		<circle class="st23" cx="272.1" cy="125.6" r="4.5"/>
		<circle class="st23" cx="309.4" cy="28.1" r="4.5"/>
		<circle class="st23" cx="16.1" cy="260" r="4.5"/>
		<circle class="st23" cx="224.8" cy="39.7" r="2.9"/>
		<circle class="st24" cx="310.6" cy="206.3" r="2.9"/>
		<g>
			<g>
				<g>
					<path class="st15" d="M13.2,130.9c-0.3,0-0.6-0.2-0.6-0.6v-4.1c0-0.3,0.2-0.6,0.6-0.6c0.3,0,0.6,0.2,0.6,0.6v4.1
						C13.7,130.5,13.5,130.9,13.2,130.9z"/>
				</g>
				<g>
					<path class="st15" d="M15.2,128.8h-4.1c-0.3,0-0.6-0.2-0.6-0.6c0-0.3,0.2-0.6,0.6-0.6h4.1c0.3,0,0.6,0.2,0.6,0.6
						C15.8,128.5,15.5,128.8,15.2,128.8z"/>
				</g>
			</g>
		</g>
		<g>
			<g>
				<g>
					<path class="st25" d="M41.5,171.1c-0.3,0-0.6-0.2-0.6-0.6v-4.1c0-0.3,0.2-0.6,0.6-0.6c0.3,0,0.6,0.2,0.6,0.6v4.1
						C42.1,170.8,41.9,171.1,41.5,171.1z"/>
				</g>
				<g>
					<path class="st25" d="M43.6,169h-4.1c-0.3,0-0.6-0.2-0.6-0.6s0.2-0.6,0.6-0.6h4.1c0.3,0,0.6,0.2,0.6,0.6S44,169,43.6,169z"/>
				</g>
			</g>
		</g>
		<g>
			<g>
				<g>
					<path class="st15" d="M292.8,190.1c-0.3,0-0.6-0.2-0.6-0.6v-4.1c0-0.3,0.2-0.6,0.6-0.6c0.3,0,0.6,0.2,0.6,0.6v4.1
						C293.4,189.8,293.2,190.1,292.8,190.1z"/>
				</g>
				<g>
					<path class="st15" d="M294.8,188h-4.1c-0.3,0-0.6-0.2-0.6-0.6c0-0.3,0.2-0.6,0.6-0.6h4.1c0.3,0,0.6,0.2,0.6,0.6
						C295.4,187.8,295.2,188,294.8,188z"/>
				</g>
			</g>
		</g>
		<g>
			<g>
				<g>
					<path class="st15" d="M271.3,123.7c-0.3,0-0.6-0.2-0.6-0.6V119c0-0.3,0.2-0.6,0.6-0.6s0.6,0.2,0.6,0.6v4.1
						C271.9,123.4,271.7,123.7,271.3,123.7z"/>
				</g>
				<g>
					<path class="st15" d="M273.4,121.7h-4.1c-0.3,0-0.6-0.2-0.6-0.6s0.2-0.6,0.6-0.6h4.1c0.3,0,0.6,0.2,0.6,0.6
						C274,121.3,273.7,121.7,273.4,121.7z"/>
				</g>
			</g>
		</g>
	</g>
	<g>
		<g class="st26">
			<g>
				<path class="st2" d="M70.7,44.4l-1.4,0.8l0,0c-0.3,0.2-0.6,0.1-0.8-0.2c-0.2-0.2-0.1-0.6,0.2-0.8l1.4-0.9
					c0.3-0.2,0.6-0.1,0.8,0.2C71.1,43.8,70.9,44.1,70.7,44.4L70.7,44.4L70.7,44.4z"/>
				<path class="st2" d="M67.4,46.6c-0.9,0.6-1.7,1.3-2.5,2c-0.2,0.2-0.6,0.2-0.8-0.1c-0.2-0.2-0.2-0.6,0.1-0.8
					c0.8-0.7,1.7-1.4,2.6-2.1c0.2-0.2,0.6-0.2,0.8,0.1C67.6,46,67.6,46.3,67.4,46.6L67.4,46.6z"/>
				<path class="st2" d="M63.1,50.3c-0.7,0.7-1.5,1.5-2.2,2.3c-0.2,0.2-0.6,0.2-0.8,0.1c-0.2-0.2-0.2-0.6-0.1-0.8
					c0.7-0.8,1.4-1.6,2.3-2.4c0.2-0.2,0.6-0.2,0.8,0C63.4,49.6,63.4,50,63.1,50.3L63.1,50.3z"/>
				<path class="st2" d="M59.3,54.4c-0.6,0.8-1.3,1.7-1.9,2.6c-0.2,0.2-0.5,0.3-0.8,0.2c-0.2-0.2-0.3-0.5-0.2-0.8
					c0.6-0.9,1.3-1.8,1.9-2.7c0.2-0.2,0.6-0.3,0.8-0.1C59.5,53.8,59.6,54.1,59.3,54.4L59.3,54.4z"/>
				<path class="st2" d="M56.1,59c-0.6,0.9-1,1.9-1.6,2.8c-0.2,0.2-0.5,0.4-0.7,0.2c-0.2-0.2-0.4-0.5-0.2-0.7c0.5-1,1-1.9,1.6-2.9
					c0.2-0.2,0.5-0.3,0.7-0.2C56.2,58.4,56.3,58.7,56.1,59L56.1,59z"/>
				<path class="st2" d="M53.5,64c-0.4,1-0.8,2-1.1,3c-0.1,0.2-0.4,0.4-0.6,0.3c-0.2-0.1-0.4-0.4-0.3-0.6c0.3-1,0.7-2.1,1.1-3.1
					c0.1-0.2,0.4-0.4,0.7-0.2C53.5,63.4,53.7,63.7,53.5,64L53.5,64z"/>
				<path class="st2" d="M51.8,69.3c-0.2,1-0.4,2.1-0.6,3.1c0,0.2-0.2,0.5-0.6,0.5c-0.2,0-0.5-0.2-0.5-0.6c0.1-1.1,0.3-2.2,0.6-3.3
					c0.1-0.2,0.3-0.5,0.6-0.4C51.6,68.7,51.8,69,51.8,69.3L51.8,69.3z"/>
				<path class="st2" d="M51,74.8c0,1,0.1,2.1,0.2,3.1c0.1,0.2-0.2,0.5-0.4,0.6s-0.5-0.2-0.6-0.4C50.2,77,50,76,50,74.8
					c0-0.2,0.2-0.5,0.5-0.5C50.7,74.4,51,74.5,51,74.8L51,74.8z"/>
				<path class="st2" d="M51.9,80.2c0.3,1,0.7,1.9,1.3,2.9c0.2,0.2,0.1,0.5-0.2,0.6c-0.2,0.2-0.5,0.1-0.6-0.2c-0.6-1-1-2-1.4-3.1
					c-0.1-0.2,0.1-0.6,0.3-0.6C51.5,79.8,51.8,80,51.9,80.2L51.9,80.2z"/>
				<path class="st2" d="M54.4,85.1c0.6,0.8,1.4,1.6,2.2,2.3c0.2,0.2,0.2,0.5,0,0.6c-0.2,0.2-0.5,0.2-0.6,0
					c-0.8-0.7-1.6-1.5-2.3-2.4c-0.2-0.2-0.2-0.5,0.1-0.6C54,84.9,54.3,84.9,54.4,85.1L54.4,85.1z"/>
				<path class="st2" d="M58.5,88.9c0.9,0.6,1.8,1.2,2.7,1.7c0.2,0.1,0.3,0.4,0.2,0.6c-0.1,0.2-0.4,0.3-0.6,0.2
					c-1-0.5-1.9-1.1-2.8-1.8c-0.2-0.2-0.2-0.4-0.1-0.6C58,88.8,58.2,88.8,58.5,88.9L58.5,88.9z"/>
				<path class="st2" d="M63.3,91.7c1,0.4,2,0.8,3,1.1c0.2,0.1,0.3,0.3,0.3,0.6c-0.1,0.2-0.3,0.3-0.6,0.3c-1-0.3-2.1-0.6-3.1-1.1
					c-0.2-0.1-0.3-0.3-0.2-0.6C62.8,91.7,63,91.6,63.3,91.7L63.3,91.7z"/>
				<path class="st2" d="M68.6,93.4c1,0.2,2.1,0.4,3.1,0.5c0.2,0,0.4,0.2,0.4,0.5s-0.2,0.4-0.5,0.4c-1.1-0.1-2.2-0.2-3.3-0.5
					C68.1,94.2,68,94,68,93.8C68.2,93.4,68.4,93.4,68.6,93.4L68.6,93.4z"/>
				<path class="st2" d="M74.2,93.9c1,0,2.2-0.1,3.2-0.2c0.2,0,0.4,0.2,0.5,0.3c0,0.2-0.2,0.4-0.3,0.5c-1.1,0.2-2.2,0.2-3.3,0.2
					c-0.2,0-0.4-0.2-0.4-0.4C73.9,94.1,74,93.9,74.2,93.9L74.2,93.9z"/>
				<path class="st2" d="M79.8,93.3c1-0.2,2.1-0.6,3.1-0.9c0.2-0.1,0.4,0,0.5,0.2c0.1,0.2,0,0.4-0.2,0.5c-1,0.4-2.1,0.7-3.1,1
					c-0.2,0.1-0.4-0.1-0.5-0.3C79.4,93.5,79.6,93.4,79.8,93.3L79.8,93.3z"/>
				<path class="st2" d="M85,91.5c1-0.5,1.9-1,2.7-1.6c0.2-0.1,0.4-0.1,0.5,0.1c0.1,0.2,0.1,0.4-0.1,0.5c-0.9,0.6-1.9,1.2-2.8,1.7
					c-0.2,0.1-0.4,0-0.5-0.2C84.8,91.7,84.9,91.6,85,91.5L85,91.5z"/>
				<path class="st2" d="M89.6,88.4c0.7-0.7,1.4-1.6,1.9-2.5c0.1-0.2,0.3-0.2,0.5-0.2c0.2,0.1,0.2,0.3,0.2,0.5c-0.5,1-1.2,1.9-2,2.7
					c-0.2,0.2-0.4,0.2-0.5,0C89.5,88.7,89.5,88.5,89.6,88.4L89.6,88.4z"/>
				<path class="st2" d="M92.2,83.6c0.2-1,0.2-2.1,0-3.1c0-0.2,0.1-0.3,0.2-0.4c0.2,0,0.3,0.1,0.4,0.2c0.2,1.1,0.2,2.3,0,3.4
					c0,0.2-0.2,0.3-0.4,0.2C92.4,84,92.2,83.9,92.2,83.6L92.2,83.6z"/>
				<path class="st2" d="M91.6,78.2c-0.4-1-1-1.9-1.7-2.7c-0.2-0.2-0.1-0.3,0-0.5c0.2-0.2,0.3-0.1,0.5,0c0.8,0.8,1.4,1.8,1.9,2.8
					c0.1,0.2,0,0.3-0.2,0.4C91.8,78.5,91.6,78.4,91.6,78.2L91.6,78.2z"/>
				<path class="st2" d="M88,74.2c-0.9-0.5-1.9-0.8-3-1c-0.2,0-0.2-0.2-0.2-0.3c0-0.2,0.2-0.2,0.3-0.2c1.1,0.2,2.2,0.6,3.1,1
					c0.2,0.1,0.2,0.2,0.2,0.4C88.3,74.3,88.2,74.3,88,74.2L88,74.2z"/>
				<path class="st2" d="M82.7,73c-1,0-2.1,0.1-3.2,0.2c-0.2,0-0.3-0.1-0.3-0.2s0.1-0.3,0.2-0.3c1-0.2,2.2-0.3,3.3-0.3
					c0.2,0,0.3,0.2,0.3,0.3S82.9,73,82.7,73L82.7,73z"/>
				<path class="st2" d="M77.1,73.8c-1,0.3-2,0.6-3.1,1c-0.2,0.1-0.3,0-0.3-0.2c-0.1-0.2,0-0.3,0.2-0.3c1-0.4,2-0.8,3.1-1.1
					c0.2-0.1,0.3,0.1,0.3,0.2C77.4,73.5,77.3,73.7,77.1,73.8L77.1,73.8z"/>
				<path class="st2" d="M71.9,75.8c-1,0.5-1.9,1-2.8,1.6c-0.1,0.1-0.2,0.1-0.3-0.1c-0.1-0.1-0.1-0.2,0.1-0.3
					c0.9-0.6,1.9-1.1,2.8-1.7c0.2-0.1,0.3,0,0.3,0.1C72.1,75.6,72.1,75.8,71.9,75.8L71.9,75.8z"/>
				<path class="st2" d="M67.1,78.9c-0.9,0.6-1.7,1.4-2.4,2.1c-0.1,0.1-0.2,0.1-0.3,0s-0.1-0.2,0-0.3c0.8-0.7,1.6-1.4,2.5-2.2
					c0.1-0.1,0.2-0.1,0.3,0.1C67.3,78.6,67.3,78.8,67.1,78.9L67.1,78.9z"/>
				<path class="st2" d="M63,82.6c-0.7,0.8-1.4,1.6-2,2.5c-0.1,0.1-0.2,0.1-0.3,0.1c-0.1-0.1-0.1-0.2-0.1-0.3
					c0.6-0.9,1.4-1.7,2.1-2.6c0.1-0.1,0.2-0.1,0.3,0S63.1,82.6,63,82.6L63,82.6z"/>
				<path class="st2" d="M59.7,87.2c-0.6,0.9-1,1.9-1.5,2.8c-0.1,0.1-0.2,0.2-0.2,0.1c-0.1-0.1-0.2-0.2-0.1-0.2c0.5-1,1-1.9,1.5-2.9
					c0.1-0.1,0.2-0.2,0.3-0.1C59.7,86.9,59.7,87.1,59.7,87.2L59.7,87.2z"/>
				<path class="st2" d="M57.2,92.2c-0.4,1-0.7,2-1,3.1c0,0.1-0.2,0.2-0.2,0.2c-0.1,0-0.2-0.2-0.2-0.2c0.2-1,0.6-2.1,1-3.1
					c0-0.1,0.2-0.2,0.2-0.1C57.1,92,57.2,92.2,57.2,92.2L57.2,92.2z"/>
				<path class="st2" d="M55.7,97.7c-0.2,1-0.2,2.2-0.3,3.2c0,0.1-0.1,0.2-0.2,0.2s-0.2-0.1-0.2-0.2c0-1.1,0.2-2.2,0.3-3.2
					c0-0.1,0.1-0.2,0.2-0.2C55.6,97.5,55.7,97.5,55.7,97.7L55.7,97.7z"/>
				<path class="st2" d="M55.4,103.3c0.1,1,0.2,2.2,0.3,3.2c0,0.1-0.1,0.2-0.2,0.2s-0.2-0.1-0.2-0.2c-0.2-1-0.3-2.2-0.3-3.2
					c0-0.1,0.1-0.2,0.2-0.2S55.4,103.3,55.4,103.3L55.4,103.3z"/>
				<path class="st2" d="M56.2,108.9c0.2,1,0.6,2.1,0.9,3.1c0,0.1,0,0.2-0.1,0.2s-0.2,0-0.2-0.1c-0.3-1-0.6-2.1-0.9-3.1
					c0-0.1,0-0.2,0.1-0.2C56,108.8,56.1,108.8,56.2,108.9L56.2,108.9z"/>
				<path class="st2" d="M57.9,114.3c0.4,1,1,1.9,1.5,2.8c0,0.1,0,0.2,0,0.2c-0.1,0-0.2,0-0.2,0c-0.6-0.9-1.1-1.9-1.5-2.9
					C57.7,114.3,57.7,114.2,57.9,114.3C57.8,114.2,57.9,114.2,57.9,114.3L57.9,114.3z"/>
				<path class="st2" d="M60.9,119.1c0.7,0.8,1.4,1.6,2.3,2.3c0.1,0,0.1,0.1,0,0.2c0,0.1-0.1,0.1-0.2,0c-0.8-0.7-1.6-1.4-2.3-2.3
					c-0.1-0.1,0-0.2,0-0.2C60.7,119.1,60.8,119.1,60.9,119.1L60.9,119.1z"/>
				<path class="st2" d="M65.1,122.8c0.9,0.6,1.9,1.1,2.8,1.6c0.1,0,0.1,0.1,0.1,0.2c0,0.1-0.1,0.1-0.2,0.1c-1-0.5-1.9-1-2.8-1.6
					C64.9,123.1,64.9,123,65.1,122.8C64.9,122.8,65,122.8,65.1,122.8L65.1,122.8z"/>
				<path class="st2" d="M70,125.4c1,0.4,2,0.7,3.1,1c0.1,0,0.1,0.1,0.1,0.1c0,0.1-0.1,0.1-0.1,0.1c-1-0.2-2.1-0.6-3.1-1
					c-0.1,0-0.1-0.1-0.1-0.1C70,125.4,70,125.4,70,125.4L70,125.4z"/>
				<path class="st2" d="M75.5,126.9c1,0.2,2.2,0.3,3.2,0.5c0,0,0.1,0,0.1,0.1c0,0,0,0.1-0.1,0.1c-1-0.1-2.2-0.2-3.2-0.5V126.9
					L75.5,126.9L75.5,126.9z"/>
				<path class="st2" d="M81.2,127.6c1,0.1,2.2,0.1,3.2,0.1c0,0,0.1,0,0.1,0.1c0,0,0,0.1-0.1,0.1c-1,0-2.2,0-3.2-0.1
					C81.2,127.7,81.2,127.7,81.2,127.6L81.2,127.6L81.2,127.6z"/>
				<path class="st2" d="M86.9,127.6l3.2-0.2l0,0l0,0L86.9,127.6C86.9,127.7,86.8,127.7,86.9,127.6
					C86.8,127.6,86.9,127.6,86.9,127.6L86.9,127.6z"/>
				<path class="st2" d="M92.5,127.1l3.2-0.5l0,0l0,0L92.5,127.1C92.5,127.2,92.5,127.2,92.5,127.1L92.5,127.1L92.5,127.1z"/>
				<polygon class="st2" points="98.2,126.1 99.7,125.8 98.2,126.1 98.2,126.1 				"/>
			</g>
		</g>
		<g>
			<path class="st2" d="M80,17.9c0.1-0.2-10.9,6.6-10.9,6.6L72,42.9l5.4-13.8l14.1-2.7l20.1-18.9L80,17.9z"/>
			<polygon class="st27" points="111.6,7.4 72.1,42.9 77.4,29.1 			"/>
			<polygon class="st28" points="111.6,7.4 59.3,18.6 69.2,24.4 111.6,7.4 77.4,29.1 94.3,39.6 			"/>
		</g>
	</g>
</g>
<path class="st29" d="M338.2,38.7h-59.5c-4.3,0-7.8,3.5-7.8,7.8v32.1V81v20.5c0,0.3,0.2,0.6,0.6,0.8s0.7,0.1,1-0.2l13.3-13.3h52.5
	c4.3,0,7.8-3.5,7.8-7.8V46.5C345.9,42.2,342.5,38.7,338.2,38.7z"/>
<g>
	<g>
		<g>
			<path class="st30" d="M326.2,278.2c-5.1-5.2-8.9,1.4-8.3,8c0.5,6.2,5.9,27.6,4.8,36.6h2.1C329.9,311.3,332.8,284.9,326.2,278.2z"
				/>
			<path class="st31" d="M324.1,322.8c4.9-18.2-1.3-43.3-1.3-43.4c0-0.2-0.2-0.2-0.3-0.2c-0.2,0-0.2,0.2-0.2,0.3
				c0,0.1,6.2,25.2,1.3,43.3L324.1,322.8L324.1,322.8z"/>
		</g>
		<g>
			<path class="st32" d="M313.8,289.6c-5.3-2.8-6.7,3.3-4.6,8.5c1.7,4.2,9.3,16.8,12.2,24.7h2.7C324.3,311.8,320,293,313.8,289.6z"
				/>
			<path class="st30" d="M323.1,322.8c-1.8-15-11.8-31.3-11.8-31.4c-0.1-0.1-0.2-0.2-0.3-0.1c-0.1,0.1-0.2,0.2-0.1,0.3
				c0,0.1,10,16.3,11.8,31.2H323.1z"/>
		</g>
		<g>
			<path class="st33" d="M336.3,296.8c5.2-2.3,6,3.5,3.7,8.2c-1.5,3.1-7.2,11.1-11,17.9h-4.3C326.2,312.6,331,299.1,336.3,296.8z"/>
			<path class="st34" d="M326.3,322.8c3.7-12.5,12.2-24.2,12.2-24.2c0.1-0.1,0.2-0.2,0.3-0.1c0.1,0.1,0.2,0.2,0.1,0.3
				c0,0.1-8.4,11.7-12.1,23.9L326.3,322.8L326.3,322.8z"/>
		</g>
	</g>
	<g>
		<g>
			<path class="st35" d="M318.3,321.3c0,0-0.5,0.8,0.6,1.4c1.2,0.6,1.1,1.4-0.2,2.3c-1.3,1-4.8,2.3-3.7,7.7c1,5.4,3,18,3,18
				s0.6,2.7,3.1,2.7c2.3,0,4,0,4,0s1.7,0,4,0c2.3,0,3.1-2.7,3.1-2.7s1.9-12.6,3-18c1-5.4-2.4-6.8-3.7-7.7c-1.3-1-1.3-1.7-0.2-2.3
				c1.2-0.6,0.6-1.4,0.6-1.4H325H318.3z"/>
			<path class="st36" d="M318.3,321.3c0,0-0.5,0.8,0.6,1.4c1.2,0.6,1.1,1.4-0.2,2.3c-1.3,1-4.8,2.3-3.7,7.7c1,5.4,3,18,3,18
				s0.6,2.7,3.1,2.7l0,0h0.1l0,0l0,0h0.1l0,0l0,0h0.1l0,0l0,0h0.1l0,0h0.1h0.1l0,0h0.1l0,0l0,0h0.1l0,0h0.1l0,0l0,0h0.1l0,0h0.1l0,0
				h0.1l0,0h0.1h0.1l0,0h0.1l0,0h0.1l0,0h0.1l0,0h0.1l0,0h0.1l0,0h0.1l0,0h0.1l0,0h0.1l0,0h0.1l0,0h0.1l0,0h0.1l0,0h0.1h0.1l0,0h0.1
				l0,0h0.1l0,0h0.1l0,0l0,0h0.1l0,0h0.1l0,0l0,0h0.1l0,0h0.1h0.1l0,0h0.1l0,0l0,0h0.1l0,0l0,0h0.1l0,0l0,0h0.1l0,0
				c2.3,0,3.1-2.7,3.1-2.7s1.9-12.6,3-18c1-5.4-2.4-6.8-3.7-7.7c-1.3-1-1.3-1.7-0.2-2.3c1.2-0.6,0.6-1.4,0.6-1.4h-2.3H318.3z"/>
		</g>
		<path class="st35" d="M318.6,321.9h13.3c0.6,0,1.1-0.5,1.1-1.1l0,0c0-0.6-0.5-1.1-1.1-1.1h-13.3c-0.6,0-1.1,0.5-1.1,1.1l0,0
			C317.5,321.3,317.9,321.9,318.6,321.9z"/>
		<path class="st37" d="M318.5,321.1h10.1c0.2,0,0.5-0.2,0.5-0.5l0,0c0-0.2-0.2-0.5-0.5-0.5h-10.1c-0.2,0-0.5,0.2-0.5,0.5l0,0
			C318,320.9,318.3,321.1,318.5,321.1z"/>
	</g>
</g>
<g>
	<path class="st35" d="M332.6,35.8h-59.5c-4.3,0-7.8,3.5-7.8,7.8v32.1v2.3v20.5c0,0.3,0.2,0.6,0.6,0.8c0.3,0.2,0.7,0.1,1-0.2
		l13.3-13.3h52.5c4.3,0,7.8-3.5,7.8-7.8V43.5C340.4,39.3,336.9,35.8,332.6,35.8z"/>
	<g>
		<g>
			<path class="st19" d="M277.6,45.6c0-1,0.7-2,1.7-2.4c0.2-0.1,0.6-0.2,0.8-0.2h14.7c1.4,0,2.6,1.1,2.6,2.6v30.4
				c0,1.4-1.1,2.6-2.6,2.6h-14.6c-0.3,0-0.6-0.1-0.8-0.2c-1-0.3-1.7-1.3-1.7-2.4L277.6,45.6L277.6,45.6z M293,44.8L293,44.8
				c0,0.6-0.5,1.1-1,1.1h-8.8c-0.6,0-1-0.5-1-1v-0.1c0,0,0,0-0.1,0h-1.9c-0.4,0-0.8,0.4-0.8,0.8v30.4c0,0.4,0.4,0.8,0.8,0.8h14.7
				c0.4,0,0.8-0.4,0.8-0.8V45.6c0-0.4-0.4-0.8-0.8-0.8H293L293,44.8z"/>
			<path class="st19" d="M280.4,64.5V67l14.3-14.4v-2.5L280.4,64.5L280.4,64.5z M280.4,70.2l14.3-14.3v4.2l-14.4,14.4l0,0
				L280.4,70.2L280.4,70.2z"/>
		</g>
		<g>
			<path class="st19" d="M313.1,53.6c0.6-0.6,1.2-1,1.9-1.3s1.4-0.4,2.3-0.4s1.5,0.2,2.3,0.4c0.7,0.3,1.4,0.7,1.9,1.3
				c0.6,0.6,1,1.2,1.3,1.9c0.3,0.7,0.4,1.4,0.4,2.3s-0.2,1.5-0.4,2.3c-0.3,0.7-0.7,1.4-1.3,1.9c-0.6,0.6-1.2,1-1.9,1.3
				c-0.7,0.3-1.4,0.4-2.3,0.4c-0.8,0-1.5-0.2-2.3-0.4c-0.7-0.3-1.4-0.7-1.9-1.3c-0.6-0.6-1-1.2-1.3-1.9s-0.4-1.4-0.4-2.3
				s0.2-1.5,0.4-2.3C312.1,54.8,312.5,54.2,313.1,53.6L313.1,53.6z M315.2,52.9c-0.6,0.2-1.2,0.6-1.7,1.1s-0.9,1-1.1,1.7
				c-0.2,0.6-0.4,1.3-0.4,2s0.2,1.4,0.4,2c0.2,0.6,0.6,1.2,1.1,1.7s1,0.9,1.7,1.1c0.6,0.2,1.3,0.4,2,0.4c0.7,0,1.4-0.2,2-0.4
				c0.6-0.2,1.2-0.6,1.7-1.1c0.5-0.5,0.9-1,1.1-1.7c0.2-0.6,0.4-1.3,0.4-2s-0.2-1.4-0.4-2c-0.2-0.6-0.6-1.2-1.1-1.7
				c-0.5-0.5-1-0.9-1.7-1.1c-0.6-0.2-1.3-0.4-2-0.4C316.4,52.5,315.7,52.6,315.2,52.9L315.2,52.9z M314.5,48.6
				c-0.4,0.1-0.7,0.2-1,0.4c-0.3,0.2-0.7,0.3-1,0.5s-0.6,0.4-1,0.6c-0.3,0.2-0.6,0.5-0.9,0.7c-0.1,0.1-0.2,0.2-0.3,0.2
				c-0.2,0-0.2,0-0.4-0.1c-0.9-0.5-1.8-1-2.6-1.5c-0.1,0-0.1,0-0.2,0c-0.1,0-0.1,0-0.2,0c-0.1,0-0.1,0-0.2,0.1l-0.1,0.1
				c-0.6,1-1.3,2.2-1.9,3.1c0,0.1,0,0.1-0.1,0.2c0,0.1,0,0.1,0,0.2s0,0.1,0.1,0.2l0.1,0.1c0.8,0.5,1.8,1,2.6,1.5
				c0.1,0.1,0.2,0.2,0.2,0.3c0,0.1,0,0.1,0,0.2h0.1l-0.1,0.2c-0.1,0.2-0.1,0.4-0.2,0.6c0,0.2-0.1,0.4-0.1,0.6s-0.1,0.4-0.1,0.6
				c0,0.2,0,0.4,0,0.6c0,0.2,0,0.4,0,0.6s0,0.4,0.1,0.6c0,0.2,0.1,0.4,0.1,0.6c0,0.2,0.1,0.4,0.2,0.6c0,0.2,0,0.2,0,0.4
				c-0.1,0.1-0.2,0.2-0.2,0.3l-2.3,1.3l0,0l-0.2,0.2c-0.1,0-0.1,0.1-0.1,0.1s-0.1,0.1-0.1,0.2s0,0.1,0,0.2s0,0.1,0.1,0.2l1.7,2.9
				l0,0l0.2,0.2c0,0.1,0.1,0.1,0.1,0.1s0.1,0.1,0.2,0.1c0.1,0,0.1,0,0.2,0c0.1,0,0.1,0,0.2-0.1c0.8-0.5,1.8-1,2.6-1.5
				c0.1-0.1,0.2-0.1,0.4-0.1s0.2,0.1,0.3,0.2l0,0c0.2,0.2,0.6,0.5,0.9,0.7c0.3,0.2,0.6,0.5,1,0.6c0.3,0.2,0.6,0.4,1,0.5
				c0.3,0.2,0.7,0.2,1.1,0.4c0.2,0,0.2,0.1,0.3,0.2c0.1,0.1,0.2,0.2,0.2,0.4v3c0,0.1,0,0.1,0,0.2s0.1,0.1,0.1,0.1l0.1,0.1
				c0.1,0,0.1,0,0.2,0h3.6c0.1,0,0.1,0,0.2,0c0.1,0,0.1-0.1,0.1-0.1l0.1-0.1c0-0.1,0-0.1,0-0.2v-3c0-0.2,0.1-0.2,0.2-0.4
				c0.1-0.1,0.2-0.2,0.3-0.2c0.4-0.1,0.7-0.2,1-0.4s0.7-0.3,1-0.5s0.6-0.4,1-0.6c0.3-0.2,0.6-0.5,0.9-0.7c0.1-0.1,0.2-0.2,0.4-0.2
				s0.2,0,0.4,0.1l2.6,1.4c0.1,0,0.1,0,0.2,0.1c0.1,0,0.1,0,0.2,0c0.1,0,0.1,0,0.2-0.1l0.1-0.1c0.6-1,1.2-2.1,1.9-3.1
				c0-0.1,0-0.1,0.1-0.2c0-0.1,0-0.1,0-0.2s0-0.1-0.1-0.2l-0.1-0.1l-2.6-1.4c-0.1-0.1-0.2-0.2-0.2-0.3v-0.1h-0.1l0.1-0.2
				c0.1-0.2,0.1-0.4,0.2-0.6c0-0.2,0.1-0.4,0.1-0.6s0.1-0.4,0.1-0.6c0-0.2,0-0.4,0-0.6c0-0.2,0-0.4,0-0.6s0-0.4-0.1-0.6
				c0-0.2-0.1-0.4-0.1-0.6s-0.1-0.4-0.2-0.6c0-0.2,0-0.2,0-0.4c0.1-0.1,0.2-0.2,0.2-0.3l2.6-1.4c0.1,0,0.1-0.1,0.1-0.1
				s0.1-0.1,0.1-0.2c0-0.1,0-0.1,0-0.2s0-0.1-0.1-0.2c-0.6-1-1.3-2.2-1.9-3.1c0-0.1-0.1-0.1-0.1-0.1s-0.1-0.1-0.2-0.1
				c-0.1,0-0.1,0-0.2,0c-0.1,0-0.1,0-0.2,0.1l-2.6,1.5c-0.2,0.1-0.2,0.1-0.4,0.1s-0.2-0.1-0.3-0.2c-0.2-0.2-0.6-0.5-0.9-0.7
				c-0.3-0.2-0.6-0.5-1-0.6c-0.3-0.2-0.6-0.4-1-0.5c-0.3-0.2-0.7-0.2-1.1-0.4c-0.2,0-0.2-0.1-0.3-0.2c-0.1-0.1-0.2-0.2-0.2-0.4v-3
				c0-0.1,0-0.1,0-0.2s-0.1-0.1-0.1-0.1l-0.1-0.1c-0.1,0-0.1,0-0.2,0h-3.6c-0.1,0-0.1,0-0.2,0s-0.1,0.1-0.2,0.1
				c-0.1,0.1-0.1,0.2-0.1,0.2v3c0,0.2-0.1,0.2-0.2,0.4C314.7,48.5,314.6,48.5,314.5,48.6L314.5,48.6z M313.2,48.5
				c-0.4,0.2-0.7,0.3-1.1,0.6c-0.3,0.2-0.7,0.4-1,0.6c-0.3,0.2-0.6,0.5-1,0.8c0,0,0,0-0.1,0c0,0,0,0-0.1,0c-0.9-0.5-1.8-1-2.6-1.5
				c-0.1-0.1-0.2-0.1-0.3-0.1s-0.2,0-0.3,0s-0.2,0.1-0.3,0.2c-0.1,0.1-0.2,0.2-0.2,0.2c-0.6,1-1.2,2.1-1.9,3.1
				c-0.1,0.1-0.1,0.2-0.1,0.3s0,0.2,0,0.3c0,0.1,0.1,0.2,0.2,0.3c0.1,0.1,0.2,0.2,0.2,0.2c0.8,0.5,1.7,1,2.6,1.4l0,0c0,0,0,0,0,0.1
				l-0.1,0.2l0,0c0,0.1-0.1,0.2-0.1,0.3c0,0.2-0.1,0.4-0.1,0.6c0,0.2-0.1,0.4-0.1,0.6s0,0.4,0,0.6c0,0.2,0,0.4,0,0.6
				c0,0.2,0,0.4,0.1,0.6c0,0.2,0.1,0.4,0.1,0.6s0.1,0.4,0.2,0.6c0,0,0,0,0,0.1l0,0c-1,0.5-1.9,1.1-2.8,1.6v0.1l0,0
				c-0.1,0.1-0.2,0.2-0.2,0.3s0,0.2,0,0.3s0.1,0.2,0.1,0.3l1.9,3.4l0,0c0,0,0,0,0.1,0.1c0.1,0.1,0.2,0.2,0.3,0.2c0.1,0,0.2,0,0.3,0
				c0.1,0,0.2-0.1,0.3-0.1c0.9-0.5,1.8-1,2.6-1.5c0,0,0,0,0.1,0c0,0,0,0,0.1,0c0.3,0.3,0.6,0.6,1,0.8c0.3,0.2,0.6,0.5,1,0.6
				c0.3,0.2,0.7,0.4,1.1,0.6c0.4,0.2,0.7,0.3,1.1,0.4l0,0c0,0,0,0,0,0.1v3c0,0.2,0,0.2,0.1,0.3c0.1,0.1,0.1,0.2,0.2,0.3
				c0.1,0.1,0.2,0.2,0.3,0.2c0.1,0.1,0.2,0.1,0.3,0.1h3.6c0.2,0,0.2,0,0.3-0.1c0.1-0.1,0.2-0.1,0.3-0.2c0.1-0.1,0.2-0.2,0.2-0.3
				c0.1-0.1,0.1-0.2,0.1-0.3v-3c0,0,0,0,0-0.1l0,0l0,0c0.4-0.1,0.8-0.2,1.1-0.4c0.4-0.2,0.7-0.3,1.1-0.6c0.3-0.2,0.7-0.4,1-0.6
				c0.3-0.2,0.6-0.5,1-0.8c0,0,0,0,0.1,0c0,0,0,0,0.1,0l2.6,1.4c0.1,0.1,0.2,0.1,0.3,0.1c0.1,0,0.2,0,0.3,0s0.2-0.1,0.3-0.2
				s0.2-0.2,0.2-0.2c0.6-1.1,1.3-2.3,1.9-3.4l0,0v-0.1c0-0.1,0-0.2,0-0.3s-0.1-0.2-0.2-0.3s-0.2-0.2-0.2-0.2l-2.6-1.4l0,0
				c0,0,0,0,0-0.1l0.1-0.2l0,0c0-0.1,0.1-0.2,0.1-0.3c0-0.2,0.1-0.4,0.1-0.6c0-0.2,0.1-0.4,0.1-0.6c0-0.2,0-0.4,0-0.6
				c0-0.2,0-0.4,0-0.6s0-0.4-0.1-0.6c0-0.2-0.1-0.4-0.1-0.6c0-0.2-0.1-0.4-0.2-0.6c0,0,0,0,0-0.1l0,0l2.6-1.4
				c0.1-0.1,0.2-0.2,0.2-0.2c0.1-0.1,0.2-0.2,0.2-0.3s0-0.2,0-0.3s-0.1-0.2-0.1-0.3c-0.6-1.1-1.3-2.3-1.9-3.4l0,0c0,0,0,0-0.1-0.1
				c-0.1-0.1-0.2-0.2-0.3-0.2c-0.1,0-0.2,0-0.3,0c-0.1,0-0.2,0.1-0.3,0.1l-0.2,0.1l0,0l-2.4,1.4c0,0,0,0-0.1,0c0,0,0,0-0.1,0l0,0
				c-0.3-0.2-0.6-0.6-1-0.8c-0.3-0.2-0.6-0.5-1-0.6c-0.3-0.2-0.7-0.4-1.1-0.6c-0.4-0.2-0.7-0.3-1.1-0.4l0,0c0,0,0,0,0-0.1v-3
				c0-0.2,0-0.2-0.1-0.3c-0.1-0.1-0.1-0.2-0.2-0.3c-0.1-0.1-0.2-0.2-0.3-0.2c-0.1-0.1-0.2-0.1-0.3-0.1h-3.6c-0.2,0-0.2,0-0.3,0.1
				c-0.1,0.1-0.2,0.1-0.3,0.2c-0.2,0.2-0.2,0.4-0.2,0.6v3c0,0,0,0,0,0.1l0,0l0,0C313.9,48.2,313.5,48.3,313.2,48.5z"/>
			<path class="st19" d="M321.9,67.7c0.3-0.3,0.6-0.6,1-0.7c0.4-0.2,0.8-0.2,1.3-0.2c0.5,0,0.9,0.1,1.3,0.2c0.4,0.2,0.8,0.4,1,0.7
				c0.3,0.3,0.6,0.6,0.7,1c0.2,0.4,0.2,0.8,0.2,1.3s-0.1,0.9-0.2,1.3c-0.2,0.4-0.4,0.8-0.7,1c-0.3,0.3-0.6,0.6-1,0.7
				c-0.4,0.2-0.8,0.2-1.3,0.2c-0.5,0-0.9-0.1-1.3-0.2c-0.4-0.2-0.8-0.4-1-0.7c-0.3-0.3-0.6-0.6-0.7-1c-0.2-0.4-0.2-0.8-0.2-1.3
				s0.1-0.9,0.2-1.3C321.4,68.3,321.7,68,321.9,67.7L321.9,67.7z M322.8,64.8c-0.2,0.1-0.4,0.2-0.6,0.2c-0.2,0.1-0.4,0.2-0.6,0.3
				c-0.2,0.1-0.4,0.2-0.6,0.4c-0.2,0.2-0.3,0.2-0.5,0.4c-0.1,0.1-0.2,0.1-0.2,0.1c-0.1,0-0.2,0-0.2-0.1c-0.5-0.3-1-0.6-1.4-0.9h-0.1
				h-0.1h-0.1c0,0,0,0-0.1,0.1c-0.3,0.6-0.7,1.2-1,1.8v0.1v0.1v0.1c0,0,0,0,0.1,0.1c0.4,0.3,1,0.6,1.4,0.9c0.1,0,0.1,0.1,0.2,0.2
				v0.1l0,0v0.2c0,0.1-0.1,0.2-0.1,0.3s0,0.2-0.1,0.3c0,0.1,0,0.2,0,0.3s0,0.2,0,0.3s0,0.2,0,0.3s0,0.2,0,0.3s0,0.2,0.1,0.3
				c0,0.1,0.1,0.2,0.1,0.3c0,0.1,0,0.2,0,0.2c0,0.1-0.1,0.2-0.2,0.2l-1.3,0.7l0,0l-0.2,0.1c0,0-0.1,0-0.1,0.1v0.1v0.1v0.1l1,1.7l0,0
				l0.1,0.2c0,0,0,0.1,0.1,0.1h0.1h0.1h0.1c0.5-0.3,1-0.6,1.4-0.9c0.1,0,0.2-0.1,0.2-0.1s0.2,0.1,0.2,0.1l0,0
				c0.2,0.2,0.3,0.3,0.5,0.4c0.2,0.2,0.4,0.2,0.6,0.4c0.2,0.1,0.4,0.2,0.6,0.3c0.2,0.1,0.4,0.2,0.6,0.2c0.1,0,0.2,0.1,0.2,0.2
				c0.1,0.1,0.1,0.2,0.1,0.2v1.7v0.1c0,0,0,0.1,0.1,0.1c0,0,0.1,0,0.1,0.1h0.1h2.1h0.1c0,0,0.1,0,0.1-0.1c0,0,0-0.1,0.1-0.1v-0.1
				v-1.7c0-0.1,0-0.2,0.1-0.2c0.1-0.1,0.1-0.1,0.2-0.2c0.2-0.1,0.4-0.2,0.6-0.2c0.2-0.1,0.4-0.2,0.6-0.3c0.2-0.1,0.4-0.2,0.6-0.4
				c0.2-0.2,0.3-0.2,0.5-0.4c0.1-0.1,0.2-0.1,0.2-0.1s0.2,0,0.2,0.1l1.4,0.8h0.1h0.1h0.1c0,0,0,0,0.1-0.1c0.3-0.6,0.7-1.2,1-1.8
				v-0.1v-0.1v-0.1c0,0,0,0-0.1-0.1l-1.4-0.9c-0.1,0-0.1-0.1-0.2-0.2c0,0,0,0,0-0.1l0,0v-0.2c0-0.1,0.1-0.2,0.1-0.3s0-0.2,0.1-0.3
				c0-0.1,0-0.2,0-0.3s0-0.2,0-0.3s0-0.2,0-0.3s0-0.2,0-0.3s0-0.2-0.1-0.3c0-0.1-0.1-0.2-0.1-0.3s0-0.2,0-0.2c0-0.1,0.1-0.2,0.2-0.2
				l1.4-0.8c0,0,0.1,0,0.1-0.1v-0.1v-0.1v-0.1c-0.3-0.6-0.7-1.2-1-1.8c0,0,0-0.1-0.1-0.1h-0.1h-0.1h-0.1l-1.4,0.9
				c-0.1,0.1-0.2,0.1-0.2,0.1c-0.1,0-0.2-0.1-0.2-0.1c-0.2-0.2-0.3-0.3-0.5-0.4c-0.2-0.2-0.3-0.2-0.6-0.4c-0.2-0.1-0.4-0.2-0.6-0.3
				s-0.4-0.2-0.6-0.2c-0.1,0-0.2-0.1-0.2-0.2c-0.1-0.1-0.1-0.2-0.1-0.2v-1.7v-0.1c0,0,0-0.1-0.1-0.1c0,0-0.1,0-0.1-0.1h-0.1h-2.1
				h-0.1c0,0-0.1,0-0.1,0.1c0,0-0.1,0.1-0.1,0.2v1.7c0,0.1,0,0.2-0.1,0.2C322.9,64.7,322.9,64.8,322.8,64.8z"/>
		</g>
		<path class="st19" d="M300.5,45.7c-0.2,0-0.3,0.4-0.1,0.5c0,0,0,0,0.1,0h0.5c0.2,0,0.3-0.4,0.1-0.5c0,0,0,0-0.1,0H300.5
			L300.5,45.7z M310.4,46.2c0.2,0,0.3-0.4,0.1-0.5c0,0,0,0-0.1,0h-0.5c-0.2,0-0.3,0.4-0.1,0.5c0,0,0,0,0.1,0H310.4L310.4,46.2z
			 M308.5,46.2c0.2,0,0.3-0.4,0.1-0.5c0,0,0,0-0.1,0H308c-0.2,0-0.3,0.4-0.1,0.5c0,0,0,0,0.1,0H308.5L308.5,46.2z M306.6,46.2
			c0.2,0,0.3-0.4,0.1-0.5c0,0,0,0-0.1,0h-0.5c-0.2,0-0.3,0.4-0.1,0.5c0,0,0,0,0.1,0H306.6L306.6,46.2z M304.7,46.2
			c0.2,0,0.3-0.4,0.1-0.5c0,0,0,0-0.1,0h-0.5c-0.2,0-0.3,0.4-0.1,0.5c0,0,0,0,0.1,0H304.7L304.7,46.2z M302.8,46.2
			c0.2,0,0.3-0.4,0.1-0.5c0,0,0,0-0.1,0h-0.5c-0.2,0-0.3,0.4-0.1,0.5c0,0,0,0,0.1,0H302.8z"/>
		<path class="st19" d="M300.5,70c-0.2,0-0.3,0.4-0.1,0.5c0,0,0,0,0.1,0h0.5c0.2,0,0.3-0.4,0.1-0.5c0,0,0,0-0.1,0H300.5L300.5,70z
			 M310.4,70.5c0.2,0,0.3-0.4,0.1-0.5c0,0,0,0-0.1,0h-0.5c-0.2,0-0.3,0.4-0.1,0.5c0,0,0,0,0.1,0H310.4L310.4,70.5z M308.5,70.5
			c0.2,0,0.3-0.4,0.1-0.5c0,0,0,0-0.1,0H308c-0.2,0-0.3,0.4-0.1,0.5c0,0,0,0,0.1,0H308.5L308.5,70.5z M306.6,70.5
			c0.2,0,0.3-0.4,0.1-0.5c0,0,0,0-0.1,0h-0.5c-0.2,0-0.3,0.4-0.1,0.5c0,0,0,0,0.1,0H306.6L306.6,70.5z M304.7,70.5
			c0.2,0,0.3-0.4,0.1-0.5c0,0,0,0-0.1,0h-0.5c-0.2,0-0.3,0.4-0.1,0.5c0,0,0,0,0.1,0H304.7L304.7,70.5z M302.8,70.5
			c0.2,0,0.3-0.4,0.1-0.5c0,0,0,0-0.1,0h-0.5c-0.2,0-0.3,0.4-0.1,0.5c0,0,0,0,0.1,0H302.8z"/>
		<path class="st19" d="M300.5,75.8c-0.2,0-0.3,0.4-0.1,0.5c0,0,0,0,0.1,0h0.5c0.2,0,0.3-0.4,0.1-0.5c0,0,0,0-0.1,0H300.5
			L300.5,75.8z M311.7,75.8c-0.2,0-0.3,0.4-0.1,0.5c0,0,0,0,0.1,0h0.5c0.2,0,0.3-0.4,0.1-0.5c0,0,0,0-0.1,0H311.7L311.7,75.8z
			 M321.6,76.2c0.2,0,0.3-0.4,0.1-0.5c0,0,0,0-0.1,0h-0.5c-0.2,0-0.3,0.4-0.1,0.5c0,0,0,0,0.1,0H321.6L321.6,76.2z M319.7,76.2
			c0.2,0,0.3-0.4,0.1-0.5c0,0,0,0-0.1,0h-0.5c-0.2,0-0.3,0.4-0.1,0.5c0,0,0,0,0.1,0H319.7L319.7,76.2z M317.8,76.2
			c0.2,0,0.3-0.4,0.1-0.5c0,0,0,0-0.1,0h-0.5c-0.2,0-0.3,0.4-0.1,0.5c0,0,0,0,0.1,0H317.8L317.8,76.2z M316,76.2
			c0.2,0,0.3-0.4,0.1-0.5c0,0,0,0-0.1,0h-0.5c-0.2,0-0.3,0.4-0.1,0.5c0,0,0,0,0.1,0H316L316,76.2z M314,76.2c0.2,0,0.3-0.4,0.1-0.5
			c0,0,0,0-0.1,0h-0.5c-0.2,0-0.3,0.4-0.1,0.5c0,0,0,0,0.1,0H314L314,76.2z M310.4,76.2c0.2,0,0.3-0.4,0.1-0.5c0,0,0,0-0.1,0h-0.5
			c-0.2,0-0.3,0.4-0.1,0.5c0,0,0,0,0.1,0H310.4L310.4,76.2z M308.5,76.2c0.2,0,0.3-0.4,0.1-0.5c0,0,0,0-0.1,0H308
			c-0.2,0-0.3,0.4-0.1,0.5c0,0,0,0,0.1,0H308.5L308.5,76.2z M306.6,76.2c0.2,0,0.3-0.4,0.1-0.5c0,0,0,0-0.1,0h-0.5
			c-0.2,0-0.3,0.4-0.1,0.5c0,0,0,0,0.1,0H306.6L306.6,76.2z M304.7,76.2c0.2,0,0.3-0.4,0.1-0.5c0,0,0,0-0.1,0h-0.5
			c-0.2,0-0.3,0.4-0.1,0.5c0,0,0,0,0.1,0H304.7L304.7,76.2z M302.8,76.2c0.2,0,0.3-0.4,0.1-0.5c0,0,0,0-0.1,0h-0.5
			c-0.2,0-0.3,0.4-0.1,0.5c0,0,0,0,0.1,0H302.8z"/>
	</g>
</g>
<g>
	<path class="st38" d="M234.5,265.8c0,0,3.4,8.6,3.5,9.7c0.2,1-0.6,5.6-0.8,10.4c-0.3,4.9,3.9,23.9,8.8,35.8
		c4.9,11.9,5.8,18.8,6,19.6c0.1,0.7,0.8,1.8,2.7,1.8c1.8,0,6-1.6,6.4-2.7c0.5-1.1-1.5-6.4-6.5-28.9c-5.1-22.6,0.9-42.9,0.9-42.9
		L234.5,265.8z"/>
	<path class="st39" d="M259.6,333.3c-1-4.3-2.7-11.1-5.2-21.7c-1.2-5.2-1.8-10.3-1.9-15.1c-2.8,2.1-6.8,5.1-7.7,6
		c-1.4,1.4,7.2,27,8,28.8C253.3,332.4,256.9,332.9,259.6,333.3z"/>
	<path class="st40" d="M293.7,255.4c0,0,3.6,4.9,4.3,7.6c0.7,2.6-1.9,8.5-3,10.1c-1,1.7-36.7,16.2-46.8,21.8c0,0-2.7,2.1-4.9-0.7
		c-2.2-2.7-1.5-5.3-0.8-6.4c0.7-1,10.1-7.6,16.2-11.1s12.5-10.3,21.2-11.4c0,0-4.1,0.2-8.5-2.1C266.9,260.9,288.2,252.6,293.7,255.4
		z"/>
	<path class="st41" d="M293.7,255.4c0,0,0.8,1.1,1.8,2.6c-1-0.2-2.2-0.2-3.4,0.3c-2.4,1-6.4,4.2-6.7,4.8c-0.2,0.6,1,1.2,3.3,2.6
		c2.3,1.4-2.4,0.2-8.7,1.2c-6.3,0.9-24.3,14.3-27.2,16.7c-2.4,2-4.3,4.3-1,9.4c-1.4,0.7-2.7,1.4-3.6,1.9c0,0-2.7,2.1-4.9-0.7
		c-2.2-2.7-1.5-5.3-0.8-6.4c0.7-1,10.1-7.6,16.2-11.1c6.1-3.5,12.5-10.3,21.2-11.4c0,0-4.1,0.2-8.5-2.1
		C266.9,260.9,288.2,252.6,293.7,255.4z"/>
	<path class="st31" d="M233.7,208.7c0,0-3.9,7.4-4.8,9.3c-0.9,1.9-1.7,4.5-1.7,6s0,13.9,0,17.6c0,3.7,4.6,21.7,4.8,27.3
		c0,0,0,1.4,2,2.1c2,0.7,15,3.9,25.3,0L233.7,208.7z"/>
	<path class="st42" d="M233.7,208.7c0,0-3.9,7.4-4.8,9.3c-0.9,1.9-1.7,4.5-1.7,6v15.3c1.9,0.5,3.6,1.1,4.5,1.9
		c2.5,2.3,9.6,18.8,13.9,31.6c4.3,0.2,9.2-0.2,13.5-1.9L233.7,208.7z"/>
	<path class="st30" d="M233.7,208.7c0,0-6,10.1-4.1,20.2c1.9,10.1,29.7,41.1,30.5,45.2c0,0,0.2,0.3,0.6,0.1c0.5-0.2,7.7-7.8,18.3-11
		c10.6-3.1,15.1-8.5,15.1-8.5s-13.5-13.3-28.8-26.1c-15.3-12.9-11.9-19.5-11.9-19.5l-4.1-1.5L233.7,208.7z"/>
	<path class="st43" d="M233.7,208.7c0,0-6,10.1-4.1,20.2c1.9,10.1,29.7,41.1,30.5,45.2c0,0,0.2,0.3,0.6,0.1c0.3-0.2,3.5-3.4,8.5-6.5
		c-2.3-0.1-6.8-0.9-12.1-5.5c-7.7-6.5-21.3-26.4-23.4-36.4c-1.9-10.1,12.6-14.3,19.5-12.8l0,0c-0.6-2.6,0.1-3.9,0.1-3.9l-4.1-1.5
		L233.7,208.7L233.7,208.7z M272.4,266c-0.2-1.4-0.4-3.1-1-4.7c-1.4-3.2-8.8-16.4-7.9-15.4c0.9,1,4.1,4.8,9.5,10.7
		c5.3,5.9,11.9,4.5,12,4.4c-1.7,0.8-3.7,1.5-6,2.2C276.7,264,274.4,265,272.4,266z"/>
	<path class="st36" d="M244.8,291.6c0,0,1,0.2,1.4,0.4c0.4,0.2,1.9,2.9,1.9,2.9l1-0.6c0,0,0.2,1.2,0,1.5s-10.1,7.4-10.7,7.7
		s-1.4,0.1-1.4,0.1l-1-1c0,0,0.2-9,0.6-9.5C236.8,292.8,244.8,291.6,244.8,291.6z"/>
	<path class="st35" d="M239.4,277.8c0,0,3.5,1.4,4.7,2.2s2.1,2.2,2.6,2.6c0.5,0.4,1.6,0.1,1.6,0.1s0.3-0.1,0.2,0.4s-2.4,1.9-2.8,3.5
		s-0.1,4.8,0.1,5.6c0.1,0.8-0.5,2-3.4,4.3c-3,2.3-5.2,4.2-5.6,4.8c-0.4,0.6,0.2,2.2,0.2,2.7s-3,3.4-3.9,4.4c-1,1-1.3,2.4-1.4,3.1
		c-0.2,0.7-0.8,1.6-3.3,1.5l-0.3-0.6v-7.8l10.6-27L239.4,277.8z"/>
	<path class="st19" d="M237.6,276.9c0,0-9.3,25.1-9.6,26c-0.3,0.9-0.7,2.2-0.7,3.5c0,1.4,0,7,0,7s0.1,0.2,0.3,0.2s0.4,0,0.4,0
		s0.3-0.1,0.3-0.3c0,0,0-4.8,0-6.8c0-1.9,1.3-4.8,2.3-7.2c1-2.4,8.9-21.7,8.9-21.7s0.1-0.3-0.2-0.6c-0.2-0.3-1.1-0.5-1.1-0.5
		S237.8,276.5,237.6,276.9z"/>
	<path class="st36" d="M259.9,340.3c0,0,0-1.4,0.1-1.6c0.2-0.2,2-1.3,2.7-1.3c0.9,0,10.2,8.1,10.2,8.1l-0.2,3.5L259.9,340.3z"/>
	<path class="st35" d="M251.9,340.7c0,0-0.5,0.2-0.6,0.6c-0.2,0.3-1.6,5.4-1.8,6.8c-0.2,1.4,0.4,2.2,0.4,2.2l2.4,2.3h29.3l0.2-1
		c0,0,0.4-0.3,0.4-1.2s-0.9-3.1-3.4-3.1s-2.9-0.2-3.7-0.6c-0.8-0.4-1.5-1.1-1.8-1.2c-0.2-0.2-1.2,0.5-2.1,0.8
		c-0.9,0.3-8.5-6.1-9.5-6.8s-2.2,0.2-4.3,1.4c-2.2,1.2-3.5,1.4-4.2,1.1C252.5,341.8,252.3,340.7,251.9,340.7z"/>
	<path class="st19" d="M249.8,350.3c0,0-0.8,0.2-0.8,0.9c0,0.6,0,1.6,0,2.2s0.1,1.3,1.3,1.3c1.2,0,29.2,0,30.5,0
		c1.4,0,1.7-0.3,1.7-0.8s0-1.6,0-1.6s0-0.6-0.7-0.6c0,0-18.6,0-21.7,0C257.1,351.6,255.4,350.2,249.8,350.3z"/>
	<path class="st44" d="M246.4,124.9c0,0,1-3-1.4-4.8c-2.4-1.9-16.2-3.8-15.5,10.3c0.6,14.1,1.7,27.8-6.8,30.4c0,0-0.7,0.2-0.5,0.9
		c0.2,0.6,1.6,0.4,1.6,0.4c-5.6,10.3,24.2,20.3,27.1-4C253.4,138.1,246.4,124.9,246.4,124.9z"/>
	<path class="st44" d="M247.8,126.4c0,0,2.2-7-5.5-7v0.6c6.8,0,4.9,6.2,4.9,6.3L247.8,126.4z"/>
	<path class="st45" d="M256.1,173.7c0,0,0.8,0,1.4,0.5c0,0,0.2,1-0.9,2.7c-1,1.5-5.7,7.2-6.4,8c-0.7,0.9-2.3,1.2-2.6,1.1
		c-0.3,0-1-1.1-1-1.4c0-0.2,0.6-2.3,1-2.7C248,181.5,256.1,173.7,256.1,173.7z"/>
	<path class="st46" d="M250.5,169.9c0,0,13.5,12.3,15.4,12.9c1.9,0.6,3,2.8,8.8-4.3c5.2-6.2,10-12.1,11.8-14.1l0,0
		c0,0,0.6-1.3,1.2-3.1c1.4-3.4,3.3-2.6,4.9-4.6c1-1.1,1.1-1.7,1.6-1.9c0.5-0.1,1.9,2.3-1.1,4.8c0,0,7.3,0,9.1,0
		c1.8,0,1.3,2.2-1.5,2.2s-2.4,0-2.4,0s-2.2,1.5-3.4,2.7c-0.2,0.2,2,1.6,1.5,1.7c-2.3,0.3-4.4,0.4-5.2,1.4c0,0-16.2,21.2-18.4,23.8
		c-2.3,2.7-4.1,3.5-6.7,3c-2.6-0.5-15.4-9.4-15.4-9.4S246.9,172.9,250.5,169.9z"/>
	<path class="st39" d="M252.4,171.6c1.8,1.6,4.5,4,7.2,6.3c-0.8,4.2,1,11.2,3.5,12.7c2.8,1.7,5.6,1.1,8.4-1.6
		c2.8-2.7,18-21.6,18.4-22.4c0.3-0.8-0.5-1.9,0-2s0.4,0.8,3.2,0.8c2.8,0,1.7-3.1,1.6-3.6c-0.1-0.5,1.2-0.6,1.9-0.6s1.7,0,4.3,0
		c2.5,0,2.6-0.7,2.6-0.8c0.1,0.6-0.7,1.5-2.6,1.5c-2.8,0-2.4,0-2.4,0s-1.1,4.1-3.5,4.4c-0.8,0.1-0.6,0.2-1,0.3
		c-0.8,0.2-2,0.2-2.5,0.9c0,0-16.2,21.2-18.4,23.8c-2.3,2.7-4.1,3.5-6.7,3c-2.6-0.5-15.4-9.4-15.4-9.4s-0.2-0.6-0.5-1.7
		c-0.6-3.5-1.3-7.2-1.4-8.4c0-0.1,0-0.2,0-0.2C249.1,173.4,250.9,172.3,252.4,171.6z"/>
	<path class="st47" d="M238,162c0,0,3.9,0,7.5,2.1c3.6,2.1,9.8,8.5,11.2,9.3c0,0,0.6,0.4,0.8,0.8c0,0-1.1-0.6-3.9,2.3
		c-2.7,2.8-5.9,8.1-6.1,9.5c0,0-1,0.5-4.8-4.5c-3.9-5-8.7-7.8-9.9-10.7C231.5,167.9,231.4,162.3,238,162z"/>
	<path class="st44" d="M237.1,119.3c0,0-7.1-1.6-6.8,5.6h0.6c-0.3-6.4,6-5,6-5L237.1,119.3z"/>
	
		<ellipse transform="matrix(9.176329e-02 -0.9958 0.9958 9.176329e-02 92.7383 355.2238)" class="st48" cx="241.1" cy="126.8" rx="5.3" ry="5.3"/>
	<path class="st48" d="M255.8,142.2c0.1,0,0.2,0.1,0.2,0.1l0,0l0,0c1.5,0.5,2.6,1.9,2.5,3.6c-0.2,1.9-1.9,3.4-3.8,3.3
		c-1.9-0.2-3.4-1.9-3.3-3.8c0.1-1.1,0.7-2.1,1.5-2.7c-0.2,1-0.2,2.3,1.2,2.6l0.2-2C254.4,142.4,255.2,142.1,255.8,142.2z"/>
	<path class="st48" d="M231.3,140.1c-0.1,0-0.2,0-0.2,0l0,0l0,0c-1.6,0.2-2.9,1.4-3.1,3.1c-0.2,1.9,1.2,3.7,3.1,3.9
		c1.9,0.2,3.7-1.2,3.9-3.1c0.2-1.1-0.3-2.2-1-2.9c0,1-0.3,2.3-1.6,2.3l0.2-2C232.6,140.6,231.8,140.1,231.3,140.1z"/>
	<path class="st48" d="M244.8,154.1c-0.2,1.9-0.8,6-1,7.4c-0.2,3.1-2.6,5-5.5,4.8c-0.2,0-0.2,0-0.4-0.1c-0.2,0-0.2,0-0.4,0
		c-2.8-0.2-4.8-2.6-4.5-5.6c0.2-1.4,0.8-5.5,1-7.4c1-0.9,3.4-2,5.6-2.5C241.8,151.5,243.9,153,244.8,154.1z"/>
	<path class="st40" d="M245.6,123.7L245.6,123.7c6.6,0.6,11.5,6.5,11,13.1l-1,11c-0.6,6.6-6.5,11.5-13.1,11l0,0
		c-6.6-0.6-11.5-6.5-11-13.1l1-11C233,128,239,123.1,245.6,123.7z"/>
	<path class="st41" d="M241.2,158.6c-6-1.2-10.3-6.8-9.7-13l1-11c0.6-6.2,5.8-11,11.9-11l-3.8,7.2l13.7,2.7l-0.5,4.3
		c0,0-0.1-1.7-3-1.9s-10.3-0.8-11.8-0.8s-3.1,0.6-3.5,4C235.2,142.8,232.7,156.1,241.2,158.6z"/>
	<path class="st19" d="M247.5,150.2c-0.1,1.7-1.5,3-3.1,2.9c-1.7-0.1-3-1.5-2.9-3.1l0,0c0-0.3,0.2-0.5,0.6-0.5l5,0.2
		C247.2,149.6,247.5,149.9,247.5,150.2L247.5,150.2z"/>
	<path class="st19" d="M246.2,152.4c-0.6,0.4-1.2,0.6-1.9,0.6c-0.6,0-1.1-0.2-1.6-0.6c0.2-0.6,1-1,1.8-1
		C245.2,151.5,245.9,151.9,246.2,152.4z"/>
	<path class="st19" d="M241.9,149.3l4.7,0.2c0.1,0.5-0.2,1-0.6,1.1c-0.4,0.1-3.8-0.2-4-0.4C241.8,150.2,241.8,149.7,241.9,149.3z"/>
	
		<ellipse transform="matrix(7.284087e-02 -0.9973 0.9973 7.284087e-02 72.7726 374.7153)" class="st48" cx="237.9" cy="148.2" rx="1.5" ry="1.5"/>
	
		<ellipse transform="matrix(7.294737e-02 -0.9973 0.9973 7.294737e-02 84.0427 388.7235)" class="st48" cx="251.1" cy="149.2" rx="1.5" ry="1.5"/>
	<path class="st44" d="M252.4,142.3c0.2,0.2,0.5,0.1,0.6-0.2c0.2-0.2,0.1-0.5-0.2-0.6c-1-0.6-2.5-0.9-3.6-0.3
		c-0.2,0.1-0.3,0.3-0.2,0.6c0.1,0.2,0.3,0.3,0.6,0.2C250.5,141.6,251.6,141.8,252.4,142.3z"/>
	<path class="st44" d="M237.6,144.7c0-0.3,0.2-0.6,0.4-0.7s0.5-0.2,0.8-0.2s0.6,0.2,0.7,0.4c0.2,0.2,0.2,0.5,0.2,0.8
		c0,0.2,0.2,0.5,0.4,0.5s0.5-0.2,0.5-0.4c0.1-0.5-0.1-1-0.4-1.4c-0.3-0.4-0.8-0.6-1.3-0.7c-0.5-0.1-1,0.1-1.4,0.4
		c-0.2,0.2-0.4,0.4-0.5,0.6c-0.1,0-0.2,0-0.2-0.1c-0.1-0.1-0.2-0.1-0.2,0c-0.1,0.1-0.1,0.2,0,0.2c0.1,0.1,0.2,0.2,0.3,0.2l0,0
		c-0.1,0-0.2,0-0.4-0.1c-0.1,0-0.2,0-0.2,0.1s0,0.2,0.1,0.2c0.2,0.1,0.3,0.1,0.4,0.1l0,0c-0.1,0-0.2,0.1-0.4,0c-0.1,0-0.2,0-0.2,0.1
		s0,0.2,0.1,0.2c0.2,0,0.3,0,0.4,0c0,0.2,0.2,0.4,0.4,0.4C237.3,145.1,237.6,144.9,237.6,144.7z"/>
	<path class="st44" d="M237.6,140.9c0.9-0.3,2-0.3,2.8,0.2c0.2,0.2,0.5,0.1,0.6-0.1c0.2-0.2,0.1-0.5-0.1-0.6c-1-0.7-2.5-0.8-3.6-0.3
		c-0.2,0.1-0.3,0.3-0.2,0.6C237.1,140.9,237.3,141,237.6,140.9z"/>
	<path class="st44" d="M255.8,144l-0.2,1.7c-0.6-0.1-1.2-1-1.1-1.7s0.2-1.5,0.2-1.5s-1.1-2.3-1-4.5c0.2-2.3-0.2-3.6-2.1-3.8
		c-1.9-0.2-3.9,0.6-7.1,0.3c-3.1-0.3-5-1.4-6.9-1.6s-2.6,1.1-2.7,3.4c-0.2,2.3-1.8,4.3-1.8,4.3s-0.1,0.8-0.2,1.5
		c-0.1,0.7-0.8,1.5-1.4,1.4l0.2-1.7c0.1-1.2-0.2-1.6-0.2-1.6s0-0.1,0.5-5.1c1.6-17.2,26.5-14.8,24.9,2.3c-0.5,5-0.5,5.1-0.5,5.1
		S256,142.9,255.8,144z"/>
	<path class="st49" d="M253.7,135.9c-0.2-1-0.8-1.7-2.1-1.8c-1.9-0.2-3.9,0.6-7.1,0.3c-3.1-0.3-5-1.4-6.9-1.6
		c-0.7-0.1-1.3,0.1-1.7,0.4l0,0c0,0-2.2-0.6-2.7-3.1c5-10.4,21.5-8.5,23.4,3.4c-0.6,0.9-1.5,1.6-2.7,2.3
		C254,135.8,253.8,135.8,253.7,135.9z"/>
	<path class="st50" d="M235.3,127.1c0.2-0.2,0.5-0.5,0.7-0.7c0.9,1.8,3.1,3.7,8.9,4c5,0.3,7.5-1.4,8.8-3.5c1,1,1.8,2.2,2.3,3.5
		c-2.2,0.9-4.8,1.6-7.9,1.8C240.9,132.5,236.5,130.1,235.3,127.1z"/>
	<path class="st44" d="M251.7,146.1c0-0.3-0.1-0.6-0.2-0.8c-0.2-0.2-0.4-0.3-0.7-0.4c-0.3,0-0.6,0.1-0.8,0.2s-0.3,0.4-0.4,0.7
		c0,0.2-0.2,0.4-0.5,0.4c-0.2,0-0.4-0.2-0.4-0.5c0.1-0.5,0.3-1,0.7-1.3c0.4-0.3,0.9-0.5,1.4-0.4s1,0.3,1.3,0.7
		c0.2,0.2,0.3,0.4,0.4,0.6c0.1,0,0.2,0,0.2,0c0.1,0,0.2,0,0.2,0c0,0.1,0,0.2,0,0.2c-0.1,0.1-0.2,0.1-0.3,0.1l0,0
		c0.1,0,0.2,0.1,0.4,0c0.1,0,0.2,0,0.2,0.1s0,0.2-0.1,0.2c-0.2,0.1-0.3,0.1-0.4,0l0,0c0.1,0.1,0.2,0.1,0.4,0.1
		c0.1,0,0.2,0.1,0.2,0.1c0,0.1-0.1,0.2-0.1,0.2c-0.2,0-0.3,0-0.4-0.1c-0.1,0.2-0.2,0.3-0.5,0.3C251.8,146.5,251.7,146.2,251.7,146.1
		z"/>
	<path class="st51" d="M233.6,159.3c-2.3,1-5.6,6-6.3,8.1c-0.6,2,0.7,11.4,1.2,14.8c0.5,3.5,6.3,13.5,5.8,23.3c0,0,9.3,1.6,18.8,0
		c0,0,4.6-17.5,5.2-20.5c0.6-3.1-3.3-9.9-4.4-11.4s-9.4-11.6-10.7-12.6C240.2,158.5,235.9,158.3,233.6,159.3z"/>
	<path class="st52" d="M231.3,189.8c1.7,4.4,3.4,10.1,3.1,15.6c0,0,9.3,1.6,18.8,0c0,0,4.6-17.5,5.2-20.5c0,0-2.3,0.9-4,0.4
		c-1.7-0.5-5.2-7.1-5.2-7.1l-16.5-11.4c0,0,1.9,11.6,2.2,14.7c0.2,3.1,0.2,4.4-0.7,5.8C233.9,187.8,232.6,188.8,231.3,189.8z"/>
	<path class="st45" d="M251.3,180.3c0,0,0.7,0.4,0.9,1.1c0,0-0.5,1-2.3,1.7c-1.8,0.7-8.9,2.8-10,3.1c-1.1,0.3-2.7-0.2-2.9-0.4
		c-0.2-0.2-0.2-1.5-0.1-1.7c0.1-0.2,1.8-1.6,2.3-1.7C239.9,182.4,251.3,180.3,251.3,180.3z"/>
	<path class="st47" d="M253.3,205.4c0,0,0.3,0.1,0.5,0.5c0.1,0.4,0.2,2,0.2,2.5c0,0.5-0.4,0.8-0.4,0.8s-12.2,1.9-20.1-0.6
		c0,0,0-0.3,0-0.6c0-0.2,0.6-2.2,0.6-2.3c0.1-0.2,0.5-0.2,0.5-0.2L253.3,205.4L253.3,205.4z"/>
	<path class="st40" d="M250.2,179.4c0,0,1.4,5.6,2.2,8.3c0.8,2.7,8.3,23.6,10.9,29c2.6,5.4,9.2,18.1,9.2,18.1l0,0c-2.3-2-4.7-4-7-6
		c-2.6-2.2-4.6-4.2-6.3-6l0,0c0,0-6.6-7.8-9.8-13c-3.2-5.3-10.5-25-10.5-25l-0.2-3.7L250.2,179.4z"/>
	<path class="st41" d="M267.6,225.4c2.4,4.8,4.8,9.3,4.8,9.3l0,0c-2.3-2-4.7-4-7-6c-2.6-2.2-4.6-4.2-6.3-6l0,0c0,0-6.6-7.8-9.8-13
		c-3.2-5.3-10.5-25-10.5-25l-0.2-3.7l8.5-1.1c-1.2,1.1-3.4,3.8-2.7,7.9C245.4,193.1,251.2,216.6,267.6,225.4z"/>
	<path class="st47" d="M242.3,161.2c0,0,3.3,2.1,5.2,5.6c1.9,3.6,3.7,12.1,4.3,13.5c0,0,0.3,0.7,0.2,1c0,0-0.6-1-4.6-0.2
		c-3.9,0.9-9.7,3.5-10.6,4.6c0,0-1.1-0.2-1.6-6.3c-0.5-6.1-3.1-11-2.4-14C233.5,162.6,236.4,158,242.3,161.2z"/>
	<path class="st53" d="M245.3,181.9c-3.5,1.1-7.6,3.1-8.3,3.9c0,0-1.1-0.2-1.6-6.3s-3.1-11-2.4-14c0.4-1.9,1.8-4.5,4.3-5.2
		c-0.5,0.2-2.1,1-1.4,5.2c0.8,4.8,3.1,9.2,5.4,14.1C241.7,181,243.3,181.7,245.3,181.9z"/>
	<path class="st39" d="M298.1,161.9c-2.9-0.2-3.7-0.4-3.9,0.3c-0.2,0.7-0.2,1.3,1.4,1.4c1.6,0.2,2.5,0.2,2.7-0.5
		C298.6,162.6,298.6,161.8,298.1,161.9z"/>
	<path class="st46" d="M298.1,161.9c-1.3-0.1-2.1-0.2-2.7-0.2c-0.7,0-0.6,1.3,0.9,1.5c1.3,0.2,1.7,0.2,2.2,0l0,0
		C298.6,162.6,298.6,161.8,298.1,161.9z"/>
	<path class="st39" d="M297.6,163.6c-2.9-0.2-3.7-0.4-3.9,0.3c-0.2,0.7-0.2,1.3,1.4,1.4c1.6,0.2,2.5,0.2,2.7-0.5
		C298,164.2,298,163.5,297.6,163.6z"/>
	<path class="st39" d="M296.7,165.2c-2.9-0.2-3.7-0.4-3.9,0.3c-0.2,0.7-0.2,1.3,1.4,1.4c1.6,0.2,2.5,0.2,2.7-0.5
		C297.2,165.9,297.1,165.2,296.7,165.2z"/>
	<path class="st46" d="M297.6,163.6c-1.4-0.1-2.3-0.2-2.9-0.2c-0.3,0-0.6,1.3,1,1.5c1.3,0.2,1.7,0.2,2.2,0l0,0
		C298,164.2,298,163.5,297.6,163.6z"/>
	<path class="st46" d="M296.7,165.2c-1.2-0.1-2.1-0.2-2.7-0.2c-0.9,0-0.5,1.4,0.8,1.5c1.3,0.2,1.7,0.2,2.2,0l0,0
		C297.2,165.9,297.1,165.2,296.7,165.2z"/>
</g>
</svg>
