<?xml version="1.0" encoding="utf-8"?>
<!-- Generator: Adobe Illustrator 21.0.0, SVG Export Plug-In . SVG Version: 6.00 Build 0)  -->
<svg version="1.1" id="Слой_1" xmlns="http://www.w3.org/2000/svg" xmlns:xlink="http://www.w3.org/1999/xlink" x="0px" y="0px"
	 viewBox="0 0 4850 91" style="enable-background:new 0 0 4850 91;" xml:space="preserve">
<style type="text/css">
	.st0{fill:#F7F7F7;}
	.st1{fill:#F3F3F3;}
	.st2{fill:#EBEBEB;}
	.st3{opacity:0.4;fill:#F3F3F3;enable-background:new    ;}
	.st4{fill:#FFFFFF;}
</style>
<g transform="translate(0 -1)">
	<g>
		<path class="st0" d="M3344.5,74.6c202.1,0,202.1-69.4,404.2-69.4c202.1,0,202.1,69.4,404.2,69.4c202.1,0,202.1-69.4,404.2-69.4
			s202.1,69.4,404.2,69.4s202.1-69.4,404.2-69.4l0.7,86.6H111.1V74.6c202.1,0,202.1-69.4,404.2-69.4s202.1,69.4,404.2,69.4
			s202.1-69.4,404.2-69.4s202.1,69.4,404.2,69.4S1930,5.2,2132.1,5.2s202.1,69.4,404.2,69.4s202.1-69.4,404.2-69.4
			C3142.4,5.3,3142.6,74.6,3344.5,74.6L3344.5,74.6z"/>
		<path class="st1" d="M1605.5,89.8c-1.9,0-3.9-0.1-5.8-0.1c-1,0-1.9,0-2.9-0.1c-1.8,0-3.7-0.1-5.5-0.2c-0.9,0-1.8-0.1-2.6-0.1
			c-2.2-0.1-4.5-0.2-6.7-0.3c-0.4,0-0.8,0-1.1,0c-2.5-0.1-5-0.2-7.5-0.4c-0.8,0-1.5-0.1-2.2-0.1c-2.6-0.2-5.2-0.3-7.8-0.5
			c-1.6-0.1-3.1-0.2-4.7-0.4c-0.8-0.1-1.7-0.1-2.5-0.2c-1.7-0.1-3.5-0.3-5.2-0.5c-0.6-0.1-1.1-0.1-1.7-0.2c-2.2-0.2-4.4-0.4-6.6-0.7
			c-0.7-0.1-1.3-0.1-1.9-0.2c-1.5-0.2-3-0.3-4.6-0.5c-0.8-0.1-1.6-0.2-2.4-0.3c-1.3-0.2-2.7-0.3-4-0.5c-0.8-0.1-1.6-0.2-2.4-0.3
			c-1.4-0.2-2.8-0.4-4.2-0.6c-0.6-0.1-1.3-0.2-1.9-0.3c-1.9-0.3-3.9-0.6-5.8-0.9c-0.6-0.1-1.2-0.2-1.8-0.3c-1.3-0.2-2.7-0.5-4-0.7
			c-0.8-0.1-1.5-0.3-2.3-0.4c-1.1-0.2-2.2-0.4-3.4-0.6c-1.9-0.4-3.8-0.7-5.7-1.1c-0.7-0.1-1.4-0.3-2.2-0.4c-1.6-0.3-3.3-0.7-4.9-1
			c-0.7-0.2-1.4-0.3-2.1-0.5c-1.1-0.3-2.2-0.5-3.3-0.8c-0.8-0.2-1.6-0.4-2.4-0.6c-0.9-0.2-1.8-0.4-2.7-0.7c-0.8-0.2-1.6-0.4-2.4-0.6
			c-0.9-0.2-1.8-0.4-2.6-0.7c-0.8-0.2-1.6-0.4-2.4-0.6c-0.9-0.2-1.9-0.5-2.8-0.7c-1.3-0.3-2.6-0.7-3.9-1.1c-0.8-0.2-1.6-0.4-2.5-0.7
			c-0.9-0.2-1.7-0.5-2.6-0.7c-0.7-0.2-1.4-0.4-2-0.6c-0.9-0.3-1.8-0.5-2.6-0.8c-0.6-0.2-1.3-0.4-1.9-0.6c-0.9-0.3-1.8-0.5-2.7-0.8
			c-0.5-0.1-0.9-0.3-1.4-0.4c-2.3-0.7-4.6-1.4-6.8-2.1c24.7,3.4,53.3,5.4,87.8,5.4c33,0,60.6-1.9,84.6-5
			c29.8,5.5,65.3,9.1,111.2,9.1c10.7,0,20.8-0.2,30.5-0.6c-1.1,0.3-2.3,0.6-3.4,0.9c-0.9,0.2-1.7,0.4-2.6,0.6
			c-6.7,1.6-13.3,3.1-20.1,4.4c-0.7,0.1-1.5,0.3-2.2,0.4c-1.5,0.3-3,0.6-4.5,0.8c-0.7,0.1-1.4,0.3-2.2,0.4c-1.3,0.2-2.6,0.5-3.9,0.7
			c-0.8,0.1-1.6,0.3-2.4,0.4c-1.4,0.2-2.7,0.4-4.1,0.7c-0.7,0.1-1.4,0.2-2,0.3c-1.7,0.3-3.4,0.5-5.2,0.7c-0.6,0.1-1.2,0.2-1.8,0.2
			c-1.5,0.2-3,0.4-4.5,0.6c-0.5,0.1-1,0.1-1.6,0.2c-2.5,0.3-5.1,0.6-7.6,0.9c-2,0.2-4,0.4-6,0.6c-0.4,0-0.8,0.1-1.1,0.1
			c-1.9,0.2-3.7,0.3-5.6,0.5l-1.7,0.1c-2.1,0.2-4.3,0.3-6.5,0.5c-0.5,0-1.1,0.1-1.6,0.1c-2.1,0.1-4.2,0.3-6.3,0.4
			c-0.3,0-0.6,0-0.8,0.1c-2.3,0.1-4.7,0.3-7.1,0.4c-0.6,0-1.1,0.1-1.7,0.1c-2.4,0.1-4.9,0.2-7.3,0.3h-1.2c-2.3,0.1-4.6,0.1-7,0.2
			h-1.4c-2.6,0.1-5.2,0.1-7.8,0.1c-0.6,0-1.1,0-1.7,0c-2.7,0-5.5,0-8.3,0c-2.9,0-5.7,0-8.6,0C1607.3,89.8,1606.4,89.8,1605.5,89.8
			L1605.5,89.8z M797.2,89.8c-1.9,0-3.9-0.1-5.8-0.1c-1,0-1.9,0-2.9-0.1c-1.8,0-3.6-0.1-5.5-0.2c-0.9,0-1.8-0.1-2.6-0.1
			c-2.2-0.1-4.4-0.2-6.7-0.3c-0.4,0-0.8,0-1.1,0c-2.5-0.1-5-0.2-7.5-0.4c-0.8,0-1.5-0.1-2.2-0.1c-1.7-0.1-3.4-0.2-5.2-0.3
			c-2.4-0.2-4.9-0.4-7.3-0.5c-0.8-0.1-1.7-0.1-2.5-0.2c-1.7-0.1-3.5-0.3-5.2-0.5c-0.5-0.1-1.1-0.1-1.7-0.2c-2.2-0.2-4.4-0.4-6.6-0.7
			c-0.7-0.1-1.3-0.1-1.9-0.2c-1.5-0.2-3-0.3-4.6-0.5c-0.8-0.1-1.6-0.2-2.4-0.3c-1.3-0.2-2.7-0.3-4-0.5c-0.8-0.1-1.6-0.2-2.4-0.3
			c-1.4-0.2-2.8-0.4-4.2-0.6c-0.6-0.1-1.3-0.2-1.9-0.3c-1.9-0.3-3.9-0.6-5.8-0.9c-0.6-0.1-1.2-0.2-1.8-0.3c-1.3-0.2-2.7-0.5-4-0.7
			c-0.8-0.1-1.5-0.3-2.3-0.4c-1.1-0.2-2.3-0.4-3.4-0.6c-0.8-0.2-1.6-0.3-2.4-0.5c-1.1-0.2-2.2-0.4-3.3-0.7c-0.7-0.1-1.4-0.3-2.2-0.4
			c-1.6-0.3-3.3-0.7-4.9-1c-0.7-0.2-1.4-0.3-2.1-0.5c-1.1-0.3-2.2-0.5-3.3-0.8c-0.8-0.2-1.6-0.4-2.4-0.6c-0.9-0.2-1.8-0.4-2.7-0.7
			c-0.8-0.2-1.6-0.4-2.4-0.6c-0.9-0.2-1.8-0.4-2.6-0.7c-0.8-0.2-1.6-0.4-2.4-0.6c-0.9-0.2-1.9-0.5-2.8-0.7c-1.3-0.3-2.6-0.7-3.9-1.1
			c-0.8-0.2-1.6-0.4-2.5-0.7c-0.9-0.2-1.7-0.5-2.6-0.7c-0.7-0.2-1.4-0.4-2-0.6c-0.9-0.3-1.8-0.5-2.6-0.8c-0.6-0.2-1.3-0.4-1.9-0.6
			c-0.9-0.3-1.8-0.5-2.7-0.8c-0.5-0.1-0.9-0.3-1.4-0.4c-2.3-0.7-4.6-1.4-6.8-2.1c24.7,3.4,53.3,5.4,87.8,5.4c33,0,60.6-1.9,84.6-5
			c29.8,5.5,65.3,9.1,111.2,9.1c10.7,0,20.8-0.2,30.5-0.6c-1.1,0.3-2.3,0.6-3.4,0.9c-0.9,0.2-1.7,0.4-2.6,0.6
			c-0.7,0.2-1.4,0.3-2.1,0.5c-6,1.4-12,2.7-18,3.9c-0.7,0.1-1.5,0.3-2.2,0.4c-1.5,0.3-3,0.6-4.5,0.8c-0.7,0.1-1.4,0.3-2.2,0.4
			c-1.3,0.2-2.6,0.4-3.9,0.7c-0.8,0.1-1.6,0.3-2.4,0.4c-1.4,0.2-2.7,0.4-4.1,0.7c-0.7,0.1-1.4,0.2-2,0.3c-1.7,0.3-3.5,0.5-5.2,0.7
			c-0.6,0.1-1.2,0.2-1.8,0.2c-1.5,0.2-3,0.4-4.5,0.6c-0.5,0.1-1,0.1-1.6,0.2c-2.5,0.3-5.1,0.6-7.6,0.9c-2,0.2-4,0.4-6,0.6
			c-0.4,0-0.8,0.1-1.1,0.1c-1.9,0.2-3.7,0.3-5.6,0.5l-1.7,0.1c-2.1,0.2-4.3,0.3-6.5,0.5c-0.5,0-1.1,0.1-1.6,0.1
			c-2.1,0.1-4.2,0.3-6.3,0.4c-0.3,0-0.6,0-0.8,0.1c-2.3,0.1-4.7,0.3-7.1,0.4c-0.6,0-1.1,0.1-1.7,0.1c-2.4,0.1-4.9,0.2-7.3,0.3h-1.2
			c-2.3,0.1-4.6,0.1-7,0.2h-1.4c-2.6,0.1-5.2,0.1-7.8,0.1c-0.6,0-1.1,0-1.7,0c-2.7,0-5.5,0-8.3,0c-2.9,0-5.7,0-8.6,0
			C798.9,89.8,798.1,89.8,797.2,89.8L797.2,89.8z M-11.1,89.8c-1.9,0-3.9-0.1-5.8-0.1c-1,0-1.9,0-2.9-0.1c-1.8,0-3.6-0.1-5.5-0.2
			c-0.9,0-1.8-0.1-2.6-0.1c-2.2-0.1-4.5-0.2-6.7-0.3c-0.4,0-0.8,0-1.1,0c-2.5-0.1-5-0.2-7.5-0.4c-0.8,0-1.5-0.1-2.2-0.1
			c-1.7-0.1-3.4-0.2-5.2-0.3c-2.4-0.2-4.9-0.4-7.3-0.5c-0.8-0.1-1.7-0.1-2.5-0.2c-1.7-0.1-3.5-0.3-5.2-0.5c-0.6-0.1-1.1-0.1-1.7-0.2
			c-2.2-0.2-4.4-0.4-6.6-0.7c-0.7-0.1-1.3-0.1-1.9-0.2c-1.5-0.2-3-0.3-4.6-0.5c-0.8-0.1-1.6-0.2-2.4-0.3c-1.3-0.2-2.7-0.3-4-0.5
			c-0.8-0.1-1.6-0.2-2.4-0.3c-1.4-0.2-2.8-0.4-4.2-0.6c-0.6-0.1-1.3-0.2-1.9-0.3c-1.9-0.3-3.9-0.6-5.8-0.9c-0.6-0.1-1.2-0.2-1.8-0.3
			c-1.3-0.2-2.7-0.5-4-0.7c-0.8-0.1-1.5-0.3-2.3-0.4c-1.1-0.2-2.3-0.4-3.4-0.6c-0.8-0.2-1.6-0.3-2.4-0.5c-1.1-0.2-2.2-0.4-3.3-0.7
			c-0.7-0.1-1.4-0.3-2.2-0.4c-1.6-0.3-3.3-0.7-4.9-1c-0.7-0.2-1.4-0.3-2.1-0.5c-1.1-0.3-2.2-0.5-3.3-0.8c-0.8-0.2-1.6-0.4-2.4-0.6
			c-0.9-0.2-1.8-0.4-2.7-0.7c-0.8-0.2-1.6-0.4-2.4-0.6c-0.9-0.2-1.8-0.4-2.6-0.7c-0.8-0.2-1.6-0.4-2.4-0.6c-0.9-0.2-1.9-0.5-2.8-0.7
			c-1.3-0.3-2.6-0.7-3.9-1.1c-0.8-0.2-1.6-0.4-2.5-0.7c-0.9-0.2-1.7-0.5-2.6-0.7c-0.7-0.2-1.4-0.4-2-0.6c-0.9-0.3-1.8-0.5-2.6-0.8
			c-0.6-0.2-1.3-0.4-1.9-0.6c-0.9-0.3-1.8-0.5-2.7-0.8c-0.5-0.1-0.9-0.3-1.4-0.4c-2.3-0.7-4.6-1.4-6.8-2.1
			c24.7,3.4,53.3,5.4,87.8,5.4c33,0,60.6-1.9,84.6-5c29.8,5.5,65.3,9.1,111.2,9.1c10.7,0,20.8-0.2,30.5-0.6
			c-1.1,0.3-2.3,0.6-3.4,0.9c-0.9,0.2-1.7,0.4-2.6,0.6c-6.7,1.6-13.3,3.1-20.1,4.4c-0.7,0.1-1.5,0.3-2.2,0.4c-1.5,0.3-3,0.6-4.5,0.8
			c-0.7,0.1-1.4,0.3-2.2,0.4c-1.3,0.2-2.6,0.4-3.9,0.7c-0.8,0.1-1.6,0.3-2.4,0.4c-1.4,0.2-2.7,0.4-4.1,0.7c-0.7,0.1-1.4,0.2-2,0.3
			c-1.7,0.3-3.4,0.5-5.2,0.7c-0.6,0.1-1.2,0.2-1.8,0.2c-1.5,0.2-3,0.4-4.5,0.6c-0.5,0.1-1,0.1-1.6,0.2c-2.5,0.3-5.1,0.6-7.6,0.9
			c-2,0.2-4,0.4-6,0.6c-0.4,0-0.8,0.1-1.1,0.1c-1.9,0.2-3.7,0.3-5.6,0.5L59,87.6c-2.1,0.2-4.3,0.3-6.5,0.5c-0.5,0-1.1,0.1-1.6,0.1
			c-2.1,0.1-4.2,0.3-6.3,0.4c-0.3,0-0.6,0-0.8,0.1c-2.4,0.1-4.8,0.3-7.1,0.4c-0.6,0-1.1,0.1-1.7,0.1c-2.4,0.1-4.9,0.2-7.3,0.3h-1.1
			c-2.3,0.1-4.6,0.1-7,0.2h-1.4c-2.6,0.1-5.2,0.1-7.8,0.1c-0.6,0-1.1,0-1.7,0c-2.7,0-5.5,0-8.3,0c-2.9,0-5.7,0-8.6,0
			C-9.4,89.8-10.3,89.8-11.1,89.8L-11.1,89.8z M4030.5,89.8c-1.9,0-3.9-0.1-5.8-0.1c-1,0-1.9,0-2.9-0.1c-1.8,0-3.7-0.1-5.5-0.2
			c-0.9,0-1.8-0.1-2.6-0.1c-2.2-0.1-4.5-0.2-6.7-0.3c-0.4,0-0.8,0-1.1,0c-2.5-0.1-5-0.2-7.5-0.4c-0.8,0-1.5-0.1-2.2-0.1
			c-2.6-0.2-5.2-0.3-7.8-0.5c-1.6-0.1-3.1-0.2-4.7-0.4c-0.8-0.1-1.7-0.1-2.5-0.2c-1.7-0.1-3.5-0.3-5.2-0.5c-0.6-0.1-1.1-0.1-1.7-0.2
			c-2.2-0.2-4.4-0.4-6.6-0.7c-0.7-0.1-1.3-0.1-1.9-0.2c-1.5-0.2-3-0.3-4.6-0.5c-0.8-0.1-1.6-0.2-2.4-0.3c-1.3-0.2-2.7-0.3-4-0.5
			c-0.8-0.1-1.6-0.2-2.4-0.3c-1.4-0.2-2.8-0.4-4.2-0.6c-0.6-0.1-1.3-0.2-1.9-0.3c-1.9-0.3-3.9-0.6-5.8-0.9c-0.6-0.1-1.2-0.2-1.8-0.3
			c-1.3-0.2-2.7-0.5-4-0.7c-0.8-0.1-1.5-0.3-2.3-0.4c-1.1-0.2-2.2-0.4-3.4-0.6c-1.9-0.4-3.8-0.7-5.7-1.1c-0.7-0.1-1.4-0.3-2.2-0.4
			c-1.6-0.3-3.3-0.7-4.9-1c-0.7-0.2-1.4-0.3-2.1-0.5c-1.1-0.3-2.2-0.5-3.3-0.8c-0.8-0.2-1.6-0.4-2.4-0.6c-0.9-0.2-1.8-0.4-2.7-0.7
			c-0.8-0.2-1.6-0.4-2.4-0.6c-0.9-0.2-1.8-0.4-2.6-0.7c-0.8-0.2-1.6-0.4-2.4-0.6c-0.9-0.2-1.9-0.5-2.8-0.7c-1.3-0.3-2.6-0.7-3.9-1.1
			c-0.8-0.2-1.6-0.4-2.5-0.7c-0.9-0.2-1.7-0.5-2.6-0.7c-0.7-0.2-1.4-0.4-2-0.6c-0.9-0.3-1.8-0.5-2.6-0.8c-0.6-0.2-1.3-0.4-1.9-0.6
			c-0.9-0.3-1.8-0.5-2.7-0.8c-0.5-0.1-0.9-0.3-1.4-0.4c-2.3-0.7-4.6-1.4-6.8-2.1c24.7,3.4,53.3,5.4,87.8,5.4c33,0,60.6-1.9,84.6-5
			c29.8,5.5,65.3,9.1,111.2,9.1c10.7,0,20.8-0.2,30.5-0.6c-1.1,0.3-2.3,0.6-3.4,0.9c-0.9,0.2-1.7,0.4-2.6,0.6
			c-6.7,1.6-13.3,3.1-20.1,4.4c-0.7,0.1-1.5,0.3-2.2,0.4c-1.5,0.3-3,0.6-4.5,0.8c-0.7,0.1-1.4,0.3-2.2,0.4c-1.3,0.2-2.6,0.5-3.9,0.7
			c-0.8,0.1-1.6,0.3-2.4,0.4c-1.4,0.2-2.7,0.4-4.1,0.7c-0.7,0.1-1.4,0.2-2,0.3c-1.7,0.3-3.5,0.5-5.2,0.7c-0.6,0.1-1.2,0.2-1.8,0.2
			c-1.5,0.2-3,0.4-4.5,0.6c-0.5,0.1-1,0.1-1.6,0.2c-2.5,0.3-5.1,0.6-7.6,0.9c-2,0.2-4,0.4-6,0.6c-0.4,0-0.8,0.1-1.1,0.1
			c-1.9,0.2-3.7,0.3-5.6,0.5l-1.7,0.1c-2.1,0.2-4.3,0.3-6.5,0.5c-0.5,0-1.1,0.1-1.6,0.1c-2.1,0.1-4.2,0.3-6.4,0.4
			c-0.3,0-0.6,0-0.8,0.1c-2.3,0.1-4.7,0.3-7.1,0.4c-0.6,0-1.1,0.1-1.7,0.1c-2.4,0.1-4.9,0.2-7.3,0.3h-1.1c-2.3,0.1-4.6,0.1-7,0.2
			h-1.4c-2.6,0.1-5.2,0.1-7.8,0.1c-0.6,0-1.1,0-1.7,0c-2.7,0-5.5,0-8.3,0c-2.9,0-5.7,0-8.6,0C4032.3,89.8,4031.4,89.8,4030.5,89.8z
			 M3222.2,89.8c-1.9,0-3.9-0.1-5.8-0.1c-1,0-1.9,0-2.9-0.1c-1.8,0-3.6-0.1-5.5-0.2c-0.9,0-1.8-0.1-2.6-0.1
			c-2.2-0.1-4.5-0.2-6.7-0.3c-0.4,0-0.8,0-1.1,0c-2.5-0.1-5-0.2-7.5-0.4c-0.8,0-1.5-0.1-2.2-0.1c-1.7-0.1-3.4-0.2-5.2-0.3
			c-2.4-0.2-4.9-0.4-7.3-0.5c-0.8-0.1-1.7-0.1-2.5-0.2c-1.7-0.1-3.5-0.3-5.2-0.5c-0.5-0.1-1.1-0.1-1.7-0.2c-2.2-0.2-4.4-0.4-6.6-0.7
			c-0.7-0.1-1.3-0.1-1.9-0.2c-1.5-0.2-3-0.3-4.6-0.5c-0.8-0.1-1.6-0.2-2.4-0.3c-1.3-0.2-2.7-0.3-4-0.5c-0.8-0.1-1.6-0.2-2.4-0.3
			c-1.4-0.2-2.8-0.4-4.2-0.6c-0.6-0.1-1.3-0.2-1.9-0.3c-1.9-0.3-3.9-0.6-5.8-0.9c-0.6-0.1-1.2-0.2-1.8-0.3c-1.3-0.2-2.7-0.5-4-0.7
			c-0.8-0.1-1.5-0.3-2.3-0.4c-1.1-0.2-2.3-0.4-3.4-0.6c-1.9-0.4-3.8-0.7-5.7-1.1c-0.7-0.1-1.4-0.3-2.2-0.4c-1.6-0.3-3.3-0.7-4.9-1
			c-0.7-0.2-1.4-0.3-2.1-0.5c-1.1-0.3-2.2-0.5-3.3-0.8c-0.8-0.2-1.6-0.4-2.4-0.6c-0.9-0.2-1.8-0.4-2.7-0.7c-0.8-0.2-1.6-0.4-2.4-0.6
			c-0.9-0.2-1.8-0.4-2.6-0.7c-0.8-0.2-1.6-0.4-2.4-0.6c-0.9-0.2-1.9-0.5-2.8-0.7c-1.3-0.3-2.6-0.7-3.9-1.1c-0.8-0.2-1.6-0.4-2.5-0.7
			c-0.9-0.2-1.7-0.5-2.6-0.7c-0.7-0.2-1.4-0.4-2-0.6c-0.9-0.3-1.8-0.5-2.6-0.8c-0.6-0.2-1.3-0.4-1.9-0.6c-0.9-0.3-1.8-0.5-2.7-0.8
			c-0.5-0.1-0.9-0.3-1.4-0.4c-2.3-0.7-4.6-1.4-6.8-2.1c24.7,3.4,53.3,5.4,87.8,5.4c33,0,60.6-1.9,84.6-5
			c29.8,5.5,65.3,9.1,111.2,9.1c10.7,0,20.8-0.2,30.5-0.6c-1.1,0.3-2.3,0.6-3.4,0.9c-0.9,0.2-1.7,0.4-2.6,0.6
			c-0.7,0.2-1.4,0.3-2.1,0.5c-6,1.4-12,2.7-18,3.9c-0.7,0.1-1.5,0.3-2.2,0.4c-1.5,0.3-3,0.6-4.5,0.8c-0.7,0.1-1.4,0.3-2.2,0.4
			c-1.3,0.2-2.6,0.4-3.9,0.7c-0.8,0.1-1.6,0.3-2.4,0.4c-1.4,0.2-2.7,0.4-4.1,0.7c-0.7,0.1-1.4,0.2-2,0.3c-1.7,0.3-3.4,0.5-5.2,0.7
			c-0.6,0.1-1.2,0.2-1.8,0.2c-1.5,0.2-3,0.4-4.5,0.6c-0.5,0.1-1,0.1-1.6,0.2c-2.5,0.3-5.1,0.6-7.6,0.9c-2,0.2-4,0.4-6,0.6
			c-0.4,0-0.8,0.1-1.1,0.1c-1.9,0.2-3.7,0.3-5.6,0.5l-1.7,0.1c-2.1,0.2-4.3,0.3-6.5,0.5c-0.5,0-1.1,0.1-1.6,0.1
			c-2.1,0.1-4.2,0.3-6.3,0.4c-0.3,0-0.6,0-0.8,0.1c-2.3,0.1-4.7,0.3-7.1,0.4c-0.6,0-1.1,0.1-1.7,0.1c-2.4,0.1-4.9,0.2-7.3,0.3h-1.1
			c-2.3,0.1-4.6,0.1-7,0.2h-1.4c-2.6,0.1-5.2,0.1-7.8,0.1c-0.6,0-1.1,0-1.7,0c-2.7,0-5.5,0-8.3,0c-2.9,0-5.7,0-8.6,0
			C3223.9,89.8,3223.1,89.8,3222.2,89.8L3222.2,89.8z M4838.9,89.8c-1.9,0-3.9-0.1-5.8-0.1c-1,0-1.9,0-2.9-0.1
			c-1.8,0-3.7-0.1-5.5-0.2c-0.9,0-1.8-0.1-2.6-0.1c-2.2-0.1-4.5-0.2-6.7-0.3c-0.4,0-0.8,0-1.1,0c-2.5-0.1-5-0.2-7.5-0.4
			c-0.8,0-1.5-0.1-2.2-0.1c-2.6-0.2-5.2-0.3-7.8-0.5c-1.6-0.1-3.1-0.2-4.7-0.4c-0.8-0.1-1.7-0.1-2.5-0.2c-1.7-0.1-3.5-0.3-5.2-0.5
			c-0.5-0.1-1.1-0.1-1.7-0.2c-2.2-0.2-4.4-0.4-6.6-0.7c-0.7-0.1-1.3-0.1-1.9-0.2c-1.5-0.2-3-0.3-4.6-0.5c-0.8-0.1-1.6-0.2-2.4-0.3
			c-1.3-0.2-2.7-0.3-4-0.5c-0.8-0.1-1.6-0.2-2.4-0.3c-1.4-0.2-2.8-0.4-4.2-0.6c-0.6-0.1-1.3-0.2-1.9-0.3c-2-0.3-3.9-0.6-5.8-0.9
			c-0.6-0.1-1.2-0.2-1.8-0.3c-1.3-0.2-2.7-0.5-4-0.7c-0.8-0.1-1.5-0.3-2.3-0.4c-1.1-0.2-2.2-0.4-3.4-0.6c-1.9-0.4-3.8-0.7-5.7-1.1
			c-0.7-0.1-1.4-0.3-2.2-0.4c-1.6-0.3-3.3-0.7-4.9-1c-0.7-0.2-1.4-0.3-2.1-0.5c-1.1-0.3-2.2-0.5-3.3-0.8c-0.8-0.2-1.6-0.4-2.4-0.6
			c-0.9-0.2-1.8-0.4-2.7-0.7c-0.8-0.2-1.6-0.4-2.4-0.6c-0.9-0.2-1.8-0.4-2.6-0.7c-0.8-0.2-1.6-0.4-2.4-0.6c-0.9-0.2-1.9-0.5-2.8-0.7
			c-1.3-0.3-2.6-0.7-3.9-1.1c-0.8-0.2-1.6-0.4-2.5-0.7c-0.9-0.2-1.7-0.5-2.6-0.7c-0.7-0.2-1.4-0.4-2-0.6c-0.9-0.3-1.8-0.5-2.6-0.8
			c-0.6-0.2-1.3-0.4-1.9-0.6c-0.9-0.3-1.8-0.5-2.7-0.8c-0.5-0.1-0.9-0.3-1.4-0.4c-2.3-0.7-4.6-1.4-6.8-2.1
			c24.7,3.4,53.3,5.4,87.8,5.4c33,0,60.6-1.9,84.6-5c29.8,5.5,65.3,9.1,111.2,9.1c10.7,0,20.8-0.2,30.5-0.6
			c-1.1,0.3-2.3,0.6-3.4,0.9c-0.9,0.2-1.7,0.4-2.6,0.6c-6.7,1.6-13.3,3.1-20.1,4.4c-0.7,0.1-1.5,0.3-2.2,0.4c-1.5,0.3-3,0.6-4.5,0.8
			c-0.7,0.1-1.4,0.3-2.2,0.4c-1.3,0.2-2.6,0.4-3.9,0.7c-0.8,0.1-1.6,0.3-2.4,0.4c-1.4,0.2-2.7,0.4-4.1,0.7c-0.7,0.1-1.4,0.2-2,0.3
			c-1.7,0.3-3.5,0.5-5.2,0.7c-0.6,0.1-1.2,0.2-1.8,0.2c-1.5,0.2-3,0.4-4.5,0.6c-0.5,0.1-1,0.1-1.6,0.2c-2.5,0.3-5.1,0.6-7.6,0.9
			c-2,0.2-4,0.4-6,0.6c-0.4,0-0.8,0.1-1.1,0.1c-1.9,0.2-3.7,0.3-5.6,0.5l-1.7,0.1c-2.1,0.2-4.3,0.3-6.5,0.5c-0.5,0-1.1,0.1-1.6,0.1
			c-2.1,0.1-4.2,0.3-6.4,0.4c-0.3,0-0.6,0-0.8,0.1c-2.3,0.1-4.7,0.3-7.1,0.4c-0.6,0-1.1,0.1-1.7,0.1c-2.4,0.1-4.9,0.2-7.3,0.3h-1.1
			c-2.3,0.1-4.6,0.1-7,0.2h-1.4c-2.6,0.1-5.2,0.1-7.8,0.1c-0.6,0-1.1,0-1.7,0c-2.7,0-5.5,0-8.3,0c-2.9,0-5.7,0-8.6,0
			C4840.6,89.8,4839.7,89.8,4838.9,89.8L4838.9,89.8z M2413.9,89.8c-1.9,0-3.9-0.1-5.8-0.1c-1,0-1.9,0-2.9-0.1
			c-1.8,0-3.6-0.1-5.5-0.2c-0.9,0-1.8-0.1-2.6-0.1c-2.2-0.1-4.5-0.2-6.7-0.3c-0.4,0-0.8,0-1.1,0c-2.5-0.1-5-0.2-7.5-0.4
			c-0.8,0-1.5-0.1-2.2-0.1c-1.7-0.1-3.4-0.2-5.2-0.3c-2.4-0.2-4.9-0.4-7.3-0.5c-0.8-0.1-1.7-0.1-2.5-0.2c-1.7-0.1-3.5-0.3-5.2-0.5
			c-0.6-0.1-1.1-0.1-1.7-0.2c-2.2-0.2-4.4-0.4-6.6-0.7c-0.7-0.1-1.3-0.1-1.9-0.2c-1.5-0.2-3-0.3-4.6-0.5c-0.8-0.1-1.6-0.2-2.4-0.3
			c-1.3-0.2-2.7-0.3-4-0.5c-0.8-0.1-1.6-0.2-2.4-0.3c-1.4-0.2-2.8-0.4-4.2-0.6c-0.6-0.1-1.3-0.2-1.9-0.3c-1.9-0.3-3.9-0.6-5.8-0.9
			c-0.6-0.1-1.2-0.2-1.8-0.3c-1.3-0.2-2.7-0.5-4-0.7c-0.8-0.1-1.5-0.3-2.3-0.4c-1.1-0.2-2.2-0.4-3.4-0.6c-0.8-0.2-1.6-0.3-2.4-0.5
			c-1.1-0.2-2.2-0.4-3.3-0.7c-0.7-0.1-1.4-0.3-2.2-0.4c-1.6-0.3-3.3-0.7-4.9-1c-0.7-0.2-1.4-0.3-2.1-0.5c-1.1-0.3-2.2-0.5-3.3-0.8
			c-0.8-0.2-1.6-0.4-2.4-0.6c-0.9-0.2-1.8-0.4-2.7-0.7c-0.8-0.2-1.6-0.4-2.4-0.6c-0.9-0.2-1.8-0.4-2.6-0.7c-0.8-0.2-1.6-0.4-2.4-0.6
			c-0.9-0.2-1.9-0.5-2.8-0.7c-1.3-0.3-2.6-0.7-3.9-1.1c-0.8-0.2-1.6-0.4-2.5-0.7c-0.9-0.2-1.7-0.5-2.6-0.7c-0.7-0.2-1.4-0.4-2-0.6
			c-0.9-0.3-1.8-0.5-2.6-0.8c-0.6-0.2-1.3-0.4-1.9-0.6c-0.9-0.3-1.8-0.5-2.7-0.8c-0.5-0.1-0.9-0.3-1.4-0.4c-2.3-0.7-4.6-1.4-6.8-2.1
			c24.7,3.4,53.3,5.4,87.8,5.4c33,0,60.6-1.9,84.6-5c29.8,5.5,65.3,9.1,111.2,9.1c10.7,0,20.8-0.2,30.5-0.6
			c-1.1,0.3-2.3,0.6-3.4,0.9c-0.9,0.2-1.7,0.4-2.6,0.6c-6.7,1.6-13.3,3.1-20.1,4.4c-0.7,0.1-1.5,0.3-2.2,0.4c-1.5,0.3-3,0.6-4.5,0.8
			c-0.7,0.1-1.4,0.3-2.2,0.4c-1.3,0.2-2.6,0.4-3.9,0.7c-0.8,0.1-1.6,0.3-2.4,0.4c-1.4,0.2-2.7,0.4-4.1,0.7c-0.7,0.1-1.4,0.2-2,0.3
			c-1.7,0.3-3.4,0.5-5.2,0.7c-0.6,0.1-1.2,0.2-1.8,0.2c-1.5,0.2-3,0.4-4.5,0.6c-0.5,0.1-1,0.1-1.6,0.2c-2.5,0.3-5.1,0.6-7.6,0.9
			c-2,0.2-4,0.4-6,0.6c-0.4,0-0.8,0.1-1.1,0.1c-1.9,0.2-3.7,0.3-5.6,0.5l-1.7,0.1c-2.1,0.2-4.3,0.3-6.5,0.5c-0.5,0-1.1,0.1-1.6,0.1
			c-2.1,0.1-4.2,0.3-6.3,0.4c-0.3,0-0.6,0-0.8,0.1c-2.3,0.1-4.7,0.3-7.1,0.4c-0.6,0-1.1,0.1-1.7,0.1c-2.4,0.1-4.9,0.2-7.3,0.3h-1.1
			c-2.3,0.1-4.6,0.1-7,0.2h-1.4c-2.6,0.1-5.2,0.1-7.8,0.1c-0.6,0-1.1,0-1.7,0c-2.7,0-5.5,0-8.3,0c-2.9,0-5.7,0-8.6,0
			C2415.6,89.8,2414.7,89.8,2413.9,89.8L2413.9,89.8z"/>
		<path class="st2" d="M1239,10.1c24-3.1,51.6-5,84.6-5c156.2,0,191.7,41.5,293,60.3c-24,3.1-51.6,5-84.6,5c-34.5,0-63.1-2-87.8-5.4
			c-44.6-14.2-82.2-30.9-143.8-39.2C1281.9,19.9,1262.2,14.4,1239,10.1L1239,10.1z M430.7,10.1c24-3.1,51.6-5,84.6-5
			c156.2,0,191.7,41.5,293,60.3c-24,3.1-51.6,5-84.6,5c-34.5,0-63.1-2-87.8-5.4C591.2,50.8,553.7,34.2,492,25.8
			C473.5,19.9,453.8,14.4,430.7,10.1z M3664,10.1c24-3.1,51.6-5,84.6-5c156.2,0,191.7,41.5,293,60.3c-24,3.1-51.6,5-84.6,5
			c-34.5,0-63.1-2-87.8-5.4c-44.6-14.2-82.1-30.9-143.8-39.2C3706.9,19.9,3687.2,14.4,3664,10.1L3664,10.1z M2855.7,10.1
			c24-3.1,51.6-5,84.6-5c156.2,0,191.7,41.5,293,60.3c-24,3.1-51.6,5-84.6,5c-34.5,0-63.1-2-87.8-5.4
			c-44.6-14.2-82.1-30.9-143.8-39.2C2898.5,19.9,2878.8,14.4,2855.7,10.1L2855.7,10.1z M4472.3,10.1c24-3.1,51.6-5,84.6-5
			c156.2,0,191.7,41.5,293,60.3c-24,3.1-51.6,5-84.6,5c-34.5,0-63.1-2-87.8-5.4c-44.6-14.2-82.1-30.9-143.8-39.2
			C4515.2,19.9,4495.5,14.4,4472.3,10.1L4472.3,10.1z M2047.3,10.1c24-3.1,51.6-5,84.6-5c156.2,0,191.7,41.5,293,60.3
			c-24,3.1-51.6,5-84.6,5c-34.5,0-63.1-2-87.8-5.4c-44.6-14.2-82.1-30.9-143.8-39.2C2090.2,19.9,2070.5,14.4,2047.3,10.1
			L2047.3,10.1z"/>
		<path class="st1" d="M1239,10.1c23.1,4.3,42.9,9.8,61.4,15.7c-12.4-1.7-25.7-3-40.2-3.9c-1.7-0.1-3.5-0.2-5.2-0.3l-1.1-0.1
			c-1.4-0.1-2.8-0.1-4.2-0.2l-1.6-0.1c-1.9-0.1-3.8-0.2-5.8-0.2c-1.9-0.1-3.8-0.1-5.8-0.2c-1.2,0-2.5-0.1-3.7-0.1l-2.1-0.1
			c-1.3,0-2.6,0-3.9-0.1c-0.7,0-1.4,0-2.1,0c-1.4,0-2.8,0-4.2,0c-0.6,0-1.2,0-1.8,0c-2,0-4.1,0-6.1,0l0,0c-2.5,0-5.1,0-7.5,0
			c-0.4,0-0.8,0-1.1,0c-2.3,0-4.6,0.1-6.9,0.1l0,0c-5.1,0.1-10,0.2-14.8,0.4C1199,16.7,1217.6,12.9,1239,10.1L1239,10.1z
			 M430.7,10.1c23.1,4.3,42.9,9.8,61.4,15.7c-12.4-1.7-25.7-3-40.2-3.9c-1.7-0.1-3.5-0.2-5.2-0.3l-1.1-0.1c-1.4-0.1-2.8-0.1-4.2-0.2
			l-1.6-0.1c-1.9-0.1-3.8-0.2-5.8-0.2c-1.9-0.1-3.8-0.1-5.8-0.2c-1.2,0-2.5-0.1-3.7-0.1l-2.1-0.1c-1.3,0-2.6,0-3.9-0.1
			c-0.7,0-1.4,0-2.1,0c-1.4,0-2.8,0-4.2,0c-0.6,0-1.2,0-1.8,0c-2,0-4.1,0-6.1,0l0,0c-2.5,0-5.1,0-7.5,0c-0.4,0-0.8,0-1.1,0
			c-2.3,0-4.6,0.1-6.9,0.1l0,0c-5.1,0.1-10,0.2-14.8,0.4C390.7,16.7,409.2,12.9,430.7,10.1L430.7,10.1z M3664,10.1
			c23.1,4.3,42.9,9.8,61.4,15.7c-12.4-1.7-25.7-3-40.2-3.9c-1.7-0.1-3.5-0.2-5.2-0.3l-1.1-0.1c-1.4-0.1-2.8-0.1-4.2-0.2l-1.6-0.1
			c-1.9-0.1-3.8-0.2-5.8-0.2c-1.9-0.1-3.8-0.1-5.8-0.2c-1.2,0-2.5-0.1-3.7-0.1l-2.1-0.1c-1.3,0-2.6,0-3.9-0.1c-0.7,0-1.4,0-2.1,0
			c-1.4,0-2.8,0-4.2,0c-0.6,0-1.2,0-1.8,0c-2,0-4.1,0-6.1,0l0,0c-2.5,0-5.1,0-7.5,0c-0.4,0-0.8,0-1.1,0c-2.3,0-4.6,0.1-6.9,0.1l0,0
			c-5.1,0.1-10,0.2-14.8,0.4C3624,16.7,3642.6,12.9,3664,10.1L3664,10.1z M2855.7,10.1c23.1,4.3,42.9,9.8,61.4,15.7
			c-12.4-1.7-25.7-3-40.2-3.9c-1.7-0.1-3.5-0.2-5.2-0.3l-1.1-0.1c-1.4-0.1-2.8-0.1-4.2-0.2l-1.6-0.1c-1.9-0.1-3.8-0.2-5.8-0.2
			c-1.9-0.1-3.8-0.1-5.8-0.2c-1.2,0-2.5-0.1-3.7-0.1l-2.1-0.1c-1.3,0-2.6,0-3.9-0.1c-0.7,0-1.4,0-2.1,0c-1.4,0-2.8,0-4.2,0
			c-0.6,0-1.2,0-1.8,0c-2,0-4.1,0-6.1,0l0,0c-2.6,0-5.1,0-7.5,0c-0.4,0-0.8,0-1.1,0c-2.3,0-4.6,0.1-6.9,0.1l0,0
			c-5.1,0.1-10,0.2-14.8,0.4C2815.7,16.7,2834.2,12.9,2855.7,10.1L2855.7,10.1z M4472.3,10.1c23.1,4.3,42.9,9.8,61.4,15.7
			c-12.4-1.7-25.7-3-40.2-3.9c-1.7-0.1-3.5-0.2-5.2-0.3l-1.1-0.1c-1.4-0.1-2.8-0.1-4.2-0.2l-1.6-0.1c-1.9-0.1-3.8-0.2-5.8-0.2
			c-1.9-0.1-3.8-0.1-5.8-0.2c-1.2,0-2.5-0.1-3.7-0.1l-2.1-0.1c-1.3,0-2.6,0-3.9-0.1c-0.7,0-1.4,0-2.1,0c-1.4,0-2.8,0-4.2,0
			c-0.6,0-1.2,0-1.8,0c-2,0-4.1,0-6.1,0l0,0c-2.5,0-5.1,0-7.5,0c-0.4,0-0.8,0-1.1,0c-2.3,0-4.6,0.1-6.9,0.1l0,0
			c-5.1,0.1-10,0.2-14.8,0.4C4432.4,16.7,4450.9,12.9,4472.3,10.1L4472.3,10.1z M2047.3,10.1c23.1,4.3,42.9,9.8,61.4,15.7
			c-12.4-1.7-25.7-3-40.2-3.9c-1.7-0.1-3.5-0.2-5.2-0.3l-1.1-0.1c-1.4-0.1-2.8-0.1-4.2-0.2l-1.6-0.1c-1.9-0.1-3.8-0.2-5.8-0.2
			c-1.9-0.1-3.8-0.1-5.8-0.2c-1.2,0-2.5-0.1-3.7-0.1l-2.1-0.1c-1.3,0-2.6,0-3.9-0.1c-0.7,0-1.4,0-2.1,0c-1.4,0-2.8,0-4.2,0
			c-0.6,0-1.2,0-1.8,0c-2,0-4.1,0-6.1,0l0,0c-2.5,0-5.1,0-7.5,0c-0.4,0-0.8,0-1.1,0c-2.3,0-4.6,0.1-6.9,0.1l0,0
			c-5.1,0.1-10,0.2-14.8,0.4C2007.4,16.7,2025.9,12.9,2047.3,10.1L2047.3,10.1z"/>
		<path class="st3" d="M2047.3,10.1c-21.4,2.8-40,6.5-56.9,10.9c-115.9,4.4-158.4,34.1-232.2,53c-10.2,0.4-20.3,0.6-30.5,0.6
			c-45.9,0-81.4-3.6-111.2-9.1C1739.4,49.6,1767.1,1,1936.1,1C1982.1,1,2017.5,4.6,2047.3,10.1z M1127.8,1
			c45.9,0,81.4,3.6,111.2,9.1c-21.4,2.8-40,6.5-56.9,10.9l0,0c-115.9,4.4-158.4,34.1-232.2,53c-10.2,0.4-20.3,0.6-30.5,0.6
			c-45.9,0-81.4-3.6-111.2-9.1C931.1,49.6,958.8,1,1127.8,1z M319.5,1c45.9,0,81.4,3.6,111.2,9.1c-21.4,2.8-40,6.5-56.9,10.9l0,0
			c-115.9,4.4-158.4,34.1-232.2,53c-10.2,0.4-20.3,0.6-30.5,0.6C65.2,74.6,29.8,71,0,65.5C122.8,49.6,150.4,1,319.5,1L319.5,1z
			 M4472.3,10.1c-21.4,2.8-40,6.5-56.9,10.9c-115.9,4.4-158.4,34.1-232.2,53c-10.2,0.4-20.3,0.6-30.5,0.6
			c-45.9,0-81.4-3.6-111.2-9.1C4164.4,49.6,4192.1,1,4361.1,1C4407.1,1,4442.5,4.6,4472.3,10.1L4472.3,10.1z M3552.8,1
			c45.9,0,81.4,3.6,111.2,9.1c-21.4,2.8-40,6.5-56.9,10.9l0,0c-115.9,4.4-158.4,34.1-232.2,53c-10.2,0.4-20.3,0.6-30.5,0.6
			c-45.9,0-81.4-3.6-111.2-9.1C3356.1,49.6,3383.8,1,3552.8,1L3552.8,1z M5169.5,1c45.9,0,81.4,3.6,111.2,9.1
			c-21.4,2.8-40,6.5-56.9,10.9l0,0c-115.9,4.4-158.4,34.1-232.2,53c-10.2,0.4-20.3,0.6-30.5,0.6c-45.9,0-81.4-3.6-111.2-9.1
			C4972.8,49.6,5000.4,1,5169.5,1L5169.5,1z M2744.5,1c45.9,0,81.4,3.6,111.2,9.1c-21.4,2.8-40,6.5-56.9,10.9l0,0
			c-115.9,4.4-158.4,34.1-232.2,53c-10.2,0.4-20.3,0.6-30.5,0.6c-45.9,0-81.4-3.6-111.2-9.1C2547.8,49.6,2575.4,1,2744.5,1L2744.5,1
			z"/>
		<path class="st4" d="M3233.4,89.9c202.1,0,202.1-69.4,404.2-69.4c202.1,0,202.1,69.4,404.2,69.4c202.1,0,202.1-69.4,404.2-69.4
			s202.1,69.4,404.2,69.4s202.1-69.4,404.2-69.4l0.7,71.6H0V90c202.1,0,202.1-69.4,404.2-69.4S606.3,90,808.4,90
			s202.1-69.4,404.2-69.4S1414.7,90,1616.8,90s202.1-69.4,404.2-69.4S2223.1,90,2425.2,90s202.1-69.4,404.2-69.4
			C3031.3,20.6,3031.5,89.9,3233.4,89.9z"/>
	</g>
</g>
</svg>
